SplineFontDB: 3.2
FontName: KoreeneSans-ThinItalic
FullName: Koreene Sans Thin Italic
FamilyName: Koreene Sans Thin
Weight: Thin
Copyright: (C) Copyright HanYang I&C Co.,Ltd. All rights reserved.
Version: 2.50; ttfautohint (v1.8.4.7-5d5b-dirty)
ItalicAngle: 0
UnderlinePosition: -122
UnderlineWidth: 45
Ascent: 819
Descent: 205
InvalidEm: 0
sfntRevision: 0x00020147
LayerCount: 2
Layer: 0 1 "Back" 1
Layer: 1 1 "Fore" 0
XUID: [1021 531 -1996577725 14626079]
StyleMap: 0x0001
FSType: 0
OS2Version: 4
OS2_WeightWidthSlopeOnly: 0
OS2_UseTypoMetrics: 1
CreationTime: 1068260456
ModificationTime: 1706915586
PfmFamily: 81
TTFWeight: 100
TTFWidth: 5
LineGap: 256
VLineGap: 0
Panose: 0 0 0 0 0 0 0 0 0 0
OS2TypoAscent: 970
OS2TypoAOffset: 0
OS2TypoDescent: -235
OS2TypoDOffset: 0
OS2TypoLinegap: 256
OS2WinAscent: 1098
OS2WinAOffset: 0
OS2WinDescent: 363
OS2WinDOffset: 0
HheadAscent: 970
HheadAOffset: 0
HheadDescent: -235
HheadDOffset: 0
OS2SubXSize: 205
OS2SubYSize: 205
OS2SubXOff: 0
OS2SubYOff: 287
OS2SupXSize: 205
OS2SupYSize: 205
OS2SupXOff: 0
OS2SupYOff: 963
OS2StrikeYSize: 102
OS2StrikeYPos: 512
OS2CapHeight: 735
OS2XHeight: 520
OS2Vendor: 'HY  '
OS2CodePages: 2000019f.00000000
OS2UnicodeRanges: e10002ff.4000001b.00000000.00000000
Lookup: 1 0 0 "'aalt' Access All Alternates lookup 0" { "'aalt' Access All Alternates lookup 0 subtable"  } ['aalt' ('DFLT' <'dflt' > 'cyrl' <'dflt' > 'grek' <'dflt' > 'hang' <'dflt' > 'jamo' <'dflt' > 'latn' <'dflt' > ) ]
Lookup: 3 0 0 "'aalt' Access All Alternates lookup 1" { "'aalt' Access All Alternates lookup 1 subtable"  } ['aalt' ('DFLT' <'dflt' > 'cyrl' <'dflt' > 'grek' <'dflt' > 'hang' <'dflt' > 'jamo' <'dflt' > 'latn' <'dflt' > ) ]
Lookup: 1 0 0 "'locl' Localized Forms in Latin lookup 2" { "'locl' Localized Forms in Latin lookup 2 subtable"  } ['locl' ('latn' <'MOL ' > ) ]
Lookup: 1 0 0 "'locl' Localized Forms in Latin lookup 3" { "'locl' Localized Forms in Latin lookup 3 subtable"  } ['locl' ('latn' <'ROM ' > ) ]

StartChar: exclam
Encoding: 33 33 4
Width: 294
GlyphClass: 2
Flags: W
LayerCount: 2
Fore
SplineSet
57 -8 m 1,0,-1
 71 76 l 1,1,-1
 156 76 l 1,2,-1
 142 -8 l 1,3,-1
 57 -8 l 1,0,-1
149 211 m 1,4,-1
 123 211 l 1,5,-1
 203 736 l 1,6,-1
 243 736 l 1,7,-1
 149 211 l 1,4,-1
EndSplineSet
EndChar

StartChar: quotedbl
Encoding: 34 34 5
Width: 439
GlyphClass: 2
Flags: W
LayerCount: 2
Fore
SplineSet
295 560 m 1,0,-1
 429 836 l 1,1,-1
 486 836 l 1,2,-1
 324 560 l 1,3,-1
 295 560 l 1,0,-1
112 560 m 1,4,-1
 246 836 l 1,5,-1
 302 836 l 1,6,-1
 141 560 l 1,7,-1
 112 560 l 1,4,-1
EndSplineSet
EndChar

StartChar: numbersign
Encoding: 35 35 6
Width: 671
GlyphClass: 2
Flags: W
LayerCount: 2
Fore
SplineSet
34 217 m 1,0,-1
 37 241 l 1,1,-1
 171 241 l 1,2,-1
 242 474 l 1,3,-1
 109 474 l 1,4,-1
 113 498 l 1,5,-1
 249 498 l 1,6,-1
 314 710 l 1,7,-1
 341 710 l 1,8,-1
 277 498 l 1,9,-1
 506 498 l 1,10,-1
 572 710 l 1,11,-1
 598 710 l 1,12,-1
 535 498 l 1,13,-1
 664 498 l 1,14,-1
 660 474 l 1,15,-1
 527 474 l 1,16,-1
 456 241 l 1,17,-1
 588 241 l 1,18,-1
 584 217 l 1,19,-1
 449 217 l 1,20,-1
 384 4 l 1,21,-1
 356 4 l 1,22,-1
 422 217 l 1,23,-1
 191 217 l 1,24,-1
 127 4 l 1,25,-1
 99 4 l 1,26,-1
 164 217 l 1,27,-1
 34 217 l 1,0,-1
198 241 m 1,28,-1
 429 241 l 1,29,-1
 499 474 l 1,30,-1
 269 474 l 1,31,-1
 198 241 l 1,28,-1
EndSplineSet
EndChar

StartChar: dollar
Encoding: 36 36 7
Width: 575
GlyphClass: 2
Flags: W
LayerCount: 2
Fore
SplineSet
49 114 m 1,0,-1
 76 130 l 1,1,2
 98 85 98 85 148 56 c 128,-1,3
 198 27 198 27 245 27 c 0,4,5
 323 27 323 27 379.5 62.5 c 128,-1,6
 436 98 436 98 449 176 c 0,7,8
 453 201 453 201 449.5 222.5 c 128,-1,9
 446 244 446 244 440 259.5 c 128,-1,10
 434 275 434 275 417 291.5 c 128,-1,11
 400 308 400 308 388.5 317 c 128,-1,12
 377 326 377 326 351 338.5 c 128,-1,13
 325 351 325 351 312.5 356.5 c 128,-1,14
 300 362 300 362 271 374 c 0,15,16
 198 403 198 403 161.5 446.5 c 128,-1,17
 125 490 125 490 138 565 c 0,18,19
 149 634 149 634 207 683.5 c 128,-1,20
 265 733 265 733 347 734 c 1,21,-1
 361 818 l 1,22,-1
 391 818 l 1,23,-1
 377 734 l 1,24,25
 428 733 428 733 470.5 703 c 128,-1,26
 513 673 513 673 526 637 c 1,27,-1
 499 625 l 1,28,29
 455 707 455 707 356 707 c 0,30,31
 279 707 279 707 228.5 666.5 c 128,-1,32
 178 626 178 626 168 563 c 0,33,34
 157 497 157 497 191.5 459 c 128,-1,35
 226 421 226 421 298 392 c 0,36,37
 337 375 337 375 356.5 366.5 c 128,-1,38
 376 358 376 358 408 337.5 c 128,-1,39
 440 317 440 317 454 298 c 128,-1,40
 468 279 468 279 477.5 247.5 c 128,-1,41
 487 216 487 216 480 179 c 0,42,43
 465 90 465 90 401 46 c 128,-1,44
 337 2 337 2 256 0 c 1,45,-1
 242 -81 l 1,46,-1
 212 -81 l 1,47,-1
 225 0 l 1,48,49
 178 1 178 1 127 31 c 128,-1,50
 76 61 76 61 49 114 c 1,0,-1
EndSplineSet
EndChar

StartChar: percent
Encoding: 37 37 8
Width: 946
GlyphClass: 2
Flags: W
LayerCount: 2
Fore
SplineSet
507 153 m 0,0,1
 519 228 519 228 576.5 275.5 c 128,-1,2
 634 323 634 323 705 323 c 0,3,4
 779 323 779 323 820.5 275.5 c 128,-1,5
 862 228 862 228 850 153 c 0,6,7
 837 77 837 77 778.5 29 c 128,-1,8
 720 -19 720 -19 649 -19 c 0,9,10
 579 -19 579 -19 536.5 28.5 c 128,-1,11
 494 76 494 76 507 153 c 0,0,1
536 153 m 0,12,13
 525 87 525 87 561 47 c 128,-1,14
 597 7 597 7 653 7 c 0,15,16
 711 7 711 7 761 48 c 128,-1,17
 811 89 811 89 821 153 c 0,18,19
 831 216 831 216 796.5 256 c 128,-1,20
 762 296 762 296 701 296 c 0,21,22
 642 296 642 296 594 256 c 128,-1,23
 546 216 546 216 536 153 c 0,12,13
126 583 m 0,24,25
 138 658 138 658 196 706.5 c 128,-1,26
 254 755 254 755 327 755 c 0,27,28
 401 755 401 755 442 707 c 128,-1,29
 483 659 483 659 470 583 c 256,30,31
 457 507 457 507 399.5 460.5 c 128,-1,32
 342 414 342 414 270 414 c 0,33,34
 199 414 199 414 156 460 c 128,-1,35
 113 506 113 506 126 583 c 0,24,25
154 583 m 0,36,37
 144 520 144 520 181 480 c 128,-1,38
 218 440 218 440 275 440 c 256,39,40
 332 440 332 440 380.5 480 c 128,-1,41
 429 520 429 520 440 583 c 0,42,43
 451 647 451 647 416 688 c 128,-1,44
 381 729 381 729 323 729 c 256,45,46
 264 729 264 729 214.5 688 c 128,-1,47
 165 647 165 647 154 583 c 0,36,37
146 -5 m 1,48,-1
 797 740 l 1,49,-1
 831 740 l 1,50,-1
 180 -5 l 1,51,-1
 146 -5 l 1,48,-1
EndSplineSet
EndChar

StartChar: ampersand
Encoding: 38 38 9
Width: 629
GlyphClass: 2
Flags: W
LayerCount: 2
Fore
SplineSet
88 181 m 0,0,1
 76 106 76 106 118 56 c 128,-1,2
 160 6 160 6 236 6 c 0,3,4
 303 6 303 6 363 42 c 128,-1,5
 423 78 423 78 464 131 c 1,6,-1
 296 411 l 1,7,8
 111 319 111 319 88 181 c 0,0,1
57 180 m 0,9,10
 72 270 72 270 132.5 330 c 128,-1,11
 193 390 193 390 282 436 c 1,12,13
 261 475 261 475 251.5 495.5 c 128,-1,14
 242 516 242 516 233 548.5 c 128,-1,15
 224 581 224 581 228 605 c 0,16,17
 238 664 238 664 287.5 704.5 c 128,-1,18
 337 745 337 745 413 745 c 0,19,20
 476 745 476 745 516 712 c 128,-1,21
 556 679 556 679 569 632 c 1,22,-1
 541 622 l 1,23,24
 529 660 529 660 494 689 c 128,-1,25
 459 718 459 718 409 718 c 0,26,27
 349 718 349 718 308 684.5 c 128,-1,28
 267 651 267 651 259 606 c 0,29,30
 255 584 255 584 266.5 549 c 128,-1,31
 278 514 278 514 305 463 c 128,-1,32
 332 412 332 412 356.5 371 c 128,-1,33
 381 330 381 330 423 262 c 128,-1,34
 465 194 465 194 485 159 c 1,35,36
 538 234 538 234 565 334 c 1,37,-1
 594 330 l 1,38,39
 564 220 564 220 502 132 c 1,40,-1
 581 0 l 1,41,-1
 544 0 l 1,42,-1
 479 106 l 1,43,44
 439 55 439 55 375 17.5 c 128,-1,45
 311 -20 311 -20 231 -20 c 0,46,47
 136 -20 136 -20 89.5 37.5 c 128,-1,48
 43 95 43 95 57 180 c 0,9,10
EndSplineSet
EndChar

StartChar: quotesingle
Encoding: 39 39 10
Width: 249
GlyphClass: 2
Flags: W
LayerCount: 2
Fore
SplineSet
111 560 m 1,0,-1
 244 836 l 1,1,-1
 300 836 l 1,2,-1
 140 560 l 1,3,-1
 111 560 l 1,0,-1
EndSplineSet
EndChar

StartChar: parenleft
Encoding: 40 40 11
Width: 443
GlyphClass: 2
Flags: W
LayerCount: 2
Fore
SplineSet
178 349 m 0,0,1
 228 652 228 652 434 862 c 1,2,-1
 453 849 l 1,3,4
 413 805 413 805 383 764.5 c 128,-1,5
 353 724 353 724 316 661.5 c 128,-1,6
 279 599 279 599 252 519.5 c 128,-1,7
 225 440 225 440 210 349 c 0,8,9
 194 253 194 253 196 170 c 128,-1,10
 198 87 198 87 219 19.5 c 128,-1,11
 240 -48 240 -48 251 -74.5 c 128,-1,12
 262 -101 262 -101 288 -149 c 1,13,-1
 264 -161 l 1,14,15
 129 51 129 51 178 349 c 0,0,1
EndSplineSet
Substitution2: "'sups' Superscript lookup 5 subtable" uni207D
Substitution2: "'aalt' Access All Alternates lookup 0 subtable" uni207D
EndChar

StartChar: parenright
Encoding: 41 41 12
Width: 443
GlyphClass: 2
Flags: W
LayerCount: 2
Fore
SplineSet
11 -149 m 1,0,1
 45 -110 45 -110 61 -91 c 128,-1,2
 77 -72 77 -72 113.5 -18.5 c 128,-1,3
 150 35 150 35 172 81.5 c 128,-1,4
 194 128 194 128 219 200 c 128,-1,5
 244 272 244 272 256 349 c 0,6,7
 271 440 271 440 270 518.5 c 128,-1,8
 269 597 269 597 253 659 c 128,-1,9
 237 721 237 721 219.5 762.5 c 128,-1,10
 202 804 202 804 176 849 c 1,11,-1
 201 862 l 1,12,13
 337 652 337 652 287 349 c 0,14,15
 238 53 238 53 32 -161 c 1,16,-1
 11 -149 l 1,0,1
EndSplineSet
Substitution2: "'sups' Superscript lookup 5 subtable" uni207E
Substitution2: "'aalt' Access All Alternates lookup 0 subtable" uni207E
EndChar

StartChar: asterisk
Encoding: 42 42 13
Width: 545
GlyphClass: 2
Flags: W
LayerCount: 2
Fore
SplineSet
64 434 m 1,0,-1
 80 464 l 1,1,-1
 278 383 l 1,2,-1
 307 596 l 1,3,-1
 344 596 l 1,4,-1
 302 383 l 1,5,-1
 528 464 l 1,6,-1
 534 434 l 1,7,-1
 306 357 l 1,8,-1
 438 169 l 1,9,-1
 408 148 l 1,10,-1
 282 339 l 1,11,-1
 96 149 l 1,12,-1
 73 169 l 1,13,-1
 266 357 l 1,14,-1
 64 434 l 1,0,-1
EndSplineSet
EndChar

StartChar: plus
Encoding: 43 43 14
Width: 546
GlyphClass: 2
Flags: W
LayerCount: 2
Fore
SplineSet
45 348 m 1,0,-1
 50 375 l 1,1,-1
 275 375 l 1,2,-1
 312 596 l 1,3,-1
 340 596 l 1,4,-1
 303 375 l 1,5,-1
 527 375 l 1,6,-1
 522 348 l 1,7,-1
 299 348 l 1,8,-1
 261 119 l 1,9,-1
 233 119 l 1,10,-1
 271 348 l 1,11,-1
 45 348 l 1,0,-1
EndSplineSet
Substitution2: "'sups' Superscript lookup 5 subtable" uni207A
Substitution2: "'aalt' Access All Alternates lookup 0 subtable" uni207A
EndChar

StartChar: comma
Encoding: 44 44 15
Width: 275
GlyphClass: 2
Flags: W
LayerCount: 2
Fore
SplineSet
-38 -190 m 1,0,-1
 96 84 l 1,1,-1
 151 84 l 1,2,-1
 -10 -190 l 1,3,-1
 -38 -190 l 1,0,-1
EndSplineSet
EndChar

StartChar: hyphen
Encoding: 45 45 16
Width: 380
GlyphClass: 2
Flags: W
LayerCount: 2
Fore
SplineSet
48 348 m 1,0,-1
 52 375 l 1,1,-1
 360 375 l 1,2,-1
 356 348 l 1,3,-1
 48 348 l 1,0,-1
EndSplineSet
EndChar

StartChar: period
Encoding: 46 46 17
Width: 275
GlyphClass: 2
Flags: W
LayerCount: 2
Fore
SplineSet
50 0 m 1,0,-1
 64 84 l 1,1,-1
 148 84 l 1,2,-1
 134 0 l 1,3,-1
 50 0 l 1,0,-1
EndSplineSet
EndChar

StartChar: slash
Encoding: 47 47 18
Width: 308
GlyphClass: 2
Flags: W
LayerCount: 2
Fore
SplineSet
-65 -68 m 1,0,-1
 369 795 l 1,1,-1
 401 795 l 1,2,-1
 -33 -68 l 1,3,-1
 -65 -68 l 1,0,-1
EndSplineSet
EndChar

StartChar: zero
Encoding: 48 48 19
Width: 550
GlyphClass: 2
Flags: W
LayerCount: 2
Fore
SplineSet
108 368 m 0,0,1
 80 199 80 199 110.5 103 c 128,-1,2
 141 7 141 7 232 7 c 0,3,4
 281 7 281 7 322 36 c 128,-1,5
 363 65 363 65 391.5 116.5 c 128,-1,6
 420 168 420 168 440 230.5 c 128,-1,7
 460 293 460 293 473 368 c 0,8,9
 501 540 501 540 469.5 634 c 128,-1,10
 438 728 438 728 349 728 c 0,11,12
 262 728 262 728 199.5 636 c 128,-1,13
 137 544 137 544 108 368 c 0,0,1
76 368 m 0,14,15
 108 561 108 561 182 658 c 128,-1,16
 256 755 256 755 353 755 c 0,17,18
 451 755 451 755 493.5 657.5 c 128,-1,19
 536 560 536 560 504 368 c 0,20,21
 491 289 491 289 468 222 c 128,-1,22
 445 155 445 155 412 99.5 c 128,-1,23
 379 44 379 44 331.5 12.5 c 128,-1,24
 284 -19 284 -19 227 -19 c 0,25,26
 125 -19 125 -19 85.5 83 c 128,-1,27
 46 185 46 185 76 368 c 0,14,15
EndSplineSet
EndChar

StartChar: one
Encoding: 49 49 20
Width: 550
GlyphClass: 2
Flags: W
LayerCount: 2
Fore
SplineSet
172 612 m 1,0,-1
 176 636 l 1,1,-1
 214 636 l 2,2,3
 287 636 287 636 312.5 651 c 128,-1,4
 338 666 338 666 346 714 c 2,5,-1
 352 749 l 1,6,-1
 379 749 l 1,7,-1
 252 -14 l 1,8,-1
 221 -14 l 1,9,-1
 325 612 l 1,10,-1
 172 612 l 1,0,-1
EndSplineSet
Substitution2: "'subs' Subscript lookup 6 subtable" uni2081
Substitution2: "'sups' Superscript lookup 5 subtable" onesuperior
Substitution2: "'sinf' Scientific Inferiors lookup 4 subtable" uni2081
AlternateSubs2: "'aalt' Access All Alternates lookup 1 subtable" uni2081 onesuperior
EndChar

StartChar: two
Encoding: 50 50 21
Width: 550
GlyphClass: 2
Flags: W
LayerCount: 2
Fore
SplineSet
111 586 m 1,0,1
 189 755 189 755 354 755 c 0,2,3
 440 755 440 755 487 703.5 c 128,-1,4
 534 652 534 652 519 558 c 0,5,6
 501 448 501 448 370 340 c 0,7,8
 208 208 208 208 143 144.5 c 128,-1,9
 78 81 78 81 56 26 c 1,10,-1
 431 26 l 1,11,-1
 427 0 l 1,12,-1
 15 0 l 1,13,14
 19 24 19 24 31 49 c 128,-1,15
 43 74 43 74 71.5 106 c 128,-1,16
 100 138 100 138 119 159 c 128,-1,17
 138 180 138 180 187 222.5 c 128,-1,18
 236 265 236 265 258 282.5 c 128,-1,19
 280 300 280 300 344 353 c 0,20,21
 472 461 472 461 488 559 c 0,22,23
 502 641 502 641 463.5 684.5 c 128,-1,24
 425 728 425 728 346 728 c 0,25,26
 274 728 274 728 220.5 687.5 c 128,-1,27
 167 647 167 647 139 579 c 1,28,-1
 111 586 l 1,0,1
EndSplineSet
Substitution2: "'subs' Subscript lookup 6 subtable" uni2082
Substitution2: "'sups' Superscript lookup 5 subtable" twosuperior
Substitution2: "'sinf' Scientific Inferiors lookup 4 subtable" uni2082
AlternateSubs2: "'aalt' Access All Alternates lookup 1 subtable" uni2082 twosuperior
EndChar

StartChar: three
Encoding: 51 51 22
Width: 550
GlyphClass: 2
Flags: W
LayerCount: 2
Fore
SplineSet
19 103 m 1,0,-1
 49 117 l 1,1,2
 69 69 69 69 111.5 38 c 128,-1,3
 154 7 154 7 214 7 c 0,4,5
 298 7 298 7 363 55.5 c 128,-1,6
 428 104 428 104 444 199 c 0,7,8
 459 288 459 288 406.5 333 c 128,-1,9
 354 378 354 378 270 378 c 0,10,11
 230 378 230 378 219 377 c 1,12,-1
 224 405 l 1,13,14
 232 404 232 404 270 404 c 0,15,16
 349 404 349 404 406 449.5 c 128,-1,17
 463 495 463 495 476 572 c 0,18,19
 487 640 487 640 448.5 684 c 128,-1,20
 410 728 410 728 335 728 c 0,21,22
 227 728 227 728 152 611 c 1,23,-1
 126 622 l 1,24,25
 209 755 209 755 341 755 c 0,26,27
 432 755 432 755 475.5 702.5 c 128,-1,28
 519 650 519 650 507 573 c 0,29,30
 495 502 495 502 448 455.5 c 128,-1,31
 401 409 401 409 346 394 c 1,32,33
 409 382 409 382 449 333 c 128,-1,34
 489 284 489 284 475 199 c 0,35,36
 457 93 457 93 384.5 37 c 128,-1,37
 312 -19 312 -19 211 -19 c 0,38,39
 74 -19 74 -19 19 103 c 1,0,-1
EndSplineSet
Substitution2: "'subs' Subscript lookup 6 subtable" uni2083
Substitution2: "'sups' Superscript lookup 5 subtable" threesuperior
Substitution2: "'sinf' Scientific Inferiors lookup 4 subtable" uni2083
AlternateSubs2: "'aalt' Access All Alternates lookup 1 subtable" uni2083 threesuperior
EndChar

StartChar: four
Encoding: 52 52 23
Width: 550
GlyphClass: 2
Flags: W
LayerCount: 2
Fore
SplineSet
19 211 m 1,0,-1
 454 749 l 1,1,-1
 488 749 l 1,2,-1
 399 212 l 1,3,-1
 521 212 l 1,4,-1
 516 186 l 1,5,-1
 395 186 l 1,6,-1
 362 -15 l 1,7,-1
 332 -15 l 1,8,-1
 366 186 l 1,9,-1
 15 186 l 1,10,-1
 19 211 l 1,0,-1
50 212 m 1,11,-1
 370 212 l 1,12,-1
 431 584 l 2,13,14
 445 671 445 671 453 707 c 1,15,-1
 451 707 l 1,16,-1
 372 607 l 1,17,-1
 50 212 l 1,11,-1
EndSplineSet
Substitution2: "'subs' Subscript lookup 6 subtable" uni2084
Substitution2: "'sups' Superscript lookup 5 subtable" uni2074
Substitution2: "'sinf' Scientific Inferiors lookup 4 subtable" uni2084
AlternateSubs2: "'aalt' Access All Alternates lookup 1 subtable" uni2084 uni2074
EndChar

StartChar: five
Encoding: 53 53 24
Width: 550
GlyphClass: 2
Flags: W
LayerCount: 2
Fore
SplineSet
27 99 m 1,0,-1
 54 112 l 1,1,2
 73 64 73 64 114.5 35.5 c 128,-1,3
 156 7 156 7 207 7 c 0,4,5
 295 7 295 7 356 66 c 128,-1,6
 417 125 417 125 431 211 c 0,7,8
 446 304 446 304 404 359.5 c 128,-1,9
 362 415 362 415 277 415 c 0,10,11
 237 415 237 415 189.5 399 c 128,-1,12
 142 383 142 383 106 351 c 1,13,-1
 89 358 l 1,14,-1
 189 735 l 1,15,-1
 504 735 l 1,16,-1
 500 709 l 1,17,-1
 213 709 l 1,18,-1
 127 394 l 1,19,20
 204 442 204 442 291 442 c 0,21,22
 383 442 383 442 431.5 378.5 c 128,-1,23
 480 315 480 315 463 211 c 0,24,25
 447 114 447 114 377 47.5 c 128,-1,26
 307 -19 307 -19 203 -19 c 0,27,28
 139 -19 139 -19 93.5 12 c 128,-1,29
 48 43 48 43 27 99 c 1,0,-1
EndSplineSet
EndChar

StartChar: six
Encoding: 54 54 25
Width: 550
GlyphClass: 2
Flags: W
LayerCount: 2
Fore
SplineSet
90 222 m 0,0,1
 75 132 75 132 115 69.5 c 128,-1,2
 155 7 155 7 239 7 c 0,3,4
 318 7 318 7 380.5 69 c 128,-1,5
 443 131 443 131 458 222 c 0,6,7
 474 316 474 316 431.5 378.5 c 128,-1,8
 389 441 389 441 308 441 c 0,9,10
 229 441 229 441 167 377.5 c 128,-1,11
 105 314 105 314 90 222 c 0,0,1
67 321 m 0,12,13
 80 399 80 399 104 471 c 128,-1,14
 128 543 128 543 166 609 c 128,-1,15
 204 675 204 675 262 715 c 128,-1,16
 320 755 320 755 390 755 c 0,17,18
 501 755 501 755 546 644 c 1,19,-1
 518 631 l 1,20,21
 477 728 477 728 385 728 c 0,22,23
 329 728 329 728 282 696.5 c 128,-1,24
 235 665 235 665 203 612.5 c 128,-1,25
 171 560 171 560 151 510.5 c 128,-1,26
 131 461 131 461 117 404 c 0,27,28
 109 372 109 372 96 307 c 1,29,30
 124 378 124 378 182.5 422.5 c 128,-1,31
 241 467 241 467 318 467 c 0,32,33
 412 467 412 467 459 396.5 c 128,-1,34
 506 326 506 326 489 224 c 0,35,36
 472 123 472 123 402.5 52 c 128,-1,37
 333 -19 333 -19 237 -19 c 0,38,39
 148 -19 148 -19 101 36 c 0,40,41
 64 79 64 79 57 147.5 c 128,-1,42
 50 216 50 216 67 321 c 0,12,13
EndSplineSet
EndChar

StartChar: seven
Encoding: 55 55 26
Width: 550
GlyphClass: 2
Flags: W
LayerCount: 2
Fore
SplineSet
112 708 m 1,0,-1
 117 735 l 1,1,-1
 549 735 l 1,2,-1
 545 712 l 1,3,4
 400 518 400 518 308 358.5 c 128,-1,5
 216 199 216 199 133 -15 c 1,6,-1
 103 -15 l 1,7,8
 189 209 189 209 280.5 365.5 c 128,-1,9
 372 522 372 522 508 708 c 1,10,-1
 112 708 l 1,0,-1
EndSplineSet
EndChar

StartChar: eight
Encoding: 56 56 27
Width: 550
GlyphClass: 2
Flags: W
LayerCount: 2
Fore
SplineSet
155 570 m 0,0,1
 143 499 143 499 187 454.5 c 128,-1,2
 231 410 231 410 297 410 c 0,3,4
 364 410 364 410 422.5 456.5 c 128,-1,5
 481 503 481 503 492 570 c 0,6,7
 504 641 504 641 461.5 684.5 c 128,-1,8
 419 728 419 728 350 728 c 0,9,10
 276 728 276 728 221 682 c 128,-1,11
 166 636 166 636 155 570 c 0,0,1
36 190 m 0,12,13
 50 273 50 273 104.5 325.5 c 128,-1,14
 159 378 159 378 229 397 c 1,15,16
 174 416 174 416 143.5 459 c 128,-1,17
 113 502 113 502 125 572 c 0,18,19
 137 647 137 647 201.5 701 c 128,-1,20
 266 755 266 755 354 755 c 0,21,22
 439 755 439 755 487.5 702 c 128,-1,23
 536 649 536 649 523 572 c 0,24,25
 512 503 512 503 465 458.5 c 128,-1,26
 418 414 418 414 363 397 c 1,27,28
 428 378 428 378 464.5 325 c 128,-1,29
 501 272 501 272 487 188 c 0,30,31
 472 100 472 100 397 40.5 c 128,-1,32
 322 -19 322 -19 226 -19 c 0,33,34
 131 -19 131 -19 76 39.5 c 128,-1,35
 21 98 21 98 36 190 c 0,12,13
67 192 m 0,36,37
 54 112 54 112 101.5 59.5 c 128,-1,38
 149 7 149 7 230 7 c 0,39,40
 313 7 313 7 378 59.5 c 128,-1,41
 443 112 443 112 456 192 c 0,42,43
 470 275 470 275 421.5 329.5 c 128,-1,44
 373 384 373 384 293 384 c 0,45,46
 215 384 215 384 148 330.5 c 128,-1,47
 81 277 81 277 67 192 c 0,36,37
EndSplineSet
EndChar

StartChar: nine
Encoding: 57 57 28
Width: 550
GlyphClass: 2
Flags: W
LayerCount: 2
Fore
SplineSet
119 514 m 0,0,1
 103 417 103 417 147.5 357 c 128,-1,2
 192 297 192 297 268 297 c 0,3,4
 342 297 342 297 407 359 c 128,-1,5
 472 421 472 421 487 513 c 0,6,7
 502 604 502 604 460.5 666 c 128,-1,8
 419 728 419 728 339 728 c 256,9,10
 260 728 260 728 197 667 c 128,-1,11
 134 606 134 606 119 514 c 0,0,1
32 98 m 1,12,-1
 63 111 l 1,13,14
 77 64 77 64 114 35.5 c 128,-1,15
 151 7 151 7 203 7 c 0,16,17
 403 7 403 7 475 413 c 1,18,19
 447 357 447 357 389 313.5 c 128,-1,20
 331 270 331 270 260 270 c 0,21,22
 172 270 172 270 121 336.5 c 128,-1,23
 70 403 70 403 88 513 c 0,24,25
 105 618 105 618 176.5 686.5 c 128,-1,26
 248 755 248 755 344 755 c 0,27,28
 428 755 428 755 472.5 704 c 128,-1,29
 517 653 517 653 521 575 c 0,30,31
 524 528 524 528 503 406 c 0,32,33
 433 -19 433 -19 198 -19 c 0,34,35
 131 -19 131 -19 90 15 c 128,-1,36
 49 49 49 49 32 98 c 1,12,-1
EndSplineSet
EndChar

StartChar: colon
Encoding: 58 58 29
Width: 275
GlyphClass: 2
Flags: W
LayerCount: 2
Fore
SplineSet
50 0 m 1,0,-1
 64 85 l 1,1,-1
 148 85 l 1,2,-1
 134 0 l 1,3,-1
 50 0 l 1,0,-1
114 387 m 1,4,-1
 128 472 l 1,5,-1
 212 472 l 1,6,-1
 198 387 l 1,7,-1
 114 387 l 1,4,-1
EndSplineSet
EndChar

StartChar: semicolon
Encoding: 59 59 30
Width: 275
GlyphClass: 2
Flags: W
LayerCount: 2
Fore
SplineSet
-38 -190 m 1,0,-1
 96 85 l 1,1,-1
 151 85 l 1,2,-1
 -10 -190 l 1,3,-1
 -38 -190 l 1,0,-1
115 387 m 1,4,-1
 129 472 l 1,5,-1
 212 472 l 1,6,-1
 198 387 l 1,7,-1
 115 387 l 1,4,-1
EndSplineSet
EndChar

StartChar: less
Encoding: 60 60 31
Width: 542
GlyphClass: 2
Flags: W
LayerCount: 2
Fore
SplineSet
81 340 m 1,0,-1
 86 368 l 1,1,-1
 540 689 l 1,2,-1
 553 666 l 1,3,-1
 112 353 l 1,4,-1
 449 42 l 1,5,-1
 429 20 l 1,6,-1
 81 340 l 1,0,-1
EndSplineSet
EndChar

StartChar: equal
Encoding: 61 61 32
Width: 543
GlyphClass: 2
Flags: W
LayerCount: 2
Fore
SplineSet
48 257 m 1,0,-1
 53 283 l 1,1,-1
 493 283 l 1,2,-1
 488 257 l 1,3,-1
 48 257 l 1,0,-1
79 442 m 1,4,-1
 83 469 l 1,5,-1
 523 469 l 1,6,-1
 519 442 l 1,7,-1
 79 442 l 1,4,-1
EndSplineSet
Substitution2: "'sups' Superscript lookup 5 subtable" uni207C
Substitution2: "'aalt' Access All Alternates lookup 0 subtable" uni207C
EndChar

StartChar: greater
Encoding: 62 62 33
Width: 542
GlyphClass: 2
Flags: W
LayerCount: 2
Fore
SplineSet
28 20 m 1,0,-1
 15 42 l 1,1,-1
 453 353 l 1,2,-1
 118 666 l 1,3,-1
 138 689 l 1,4,-1
 485 368 l 1,5,-1
 480 340 l 1,6,-1
 28 20 l 1,0,-1
EndSplineSet
EndChar

StartChar: question
Encoding: 63 63 34
Width: 521
GlyphClass: 2
Flags: W
LayerCount: 2
Fore
SplineSet
122 614 m 1,0,1
 162 682 162 682 220 718.5 c 128,-1,2
 278 755 278 755 337 755 c 0,3,4
 424 755 424 755 464 703 c 128,-1,5
 504 651 504 651 490 565 c 0,6,7
 482 519 482 519 457.5 482 c 128,-1,8
 433 445 433 445 402.5 419 c 128,-1,9
 372 393 372 393 340.5 366.5 c 128,-1,10
 309 340 309 340 283.5 302 c 128,-1,11
 258 264 258 264 250 217 c 2,12,-1
 248 201 l 1,13,-1
 217 201 l 1,14,-1
 220 218 l 2,15,16
 228 269 228 269 254 309.5 c 128,-1,17
 280 350 280 350 311 376 c 128,-1,18
 342 402 342 402 372.5 427.5 c 128,-1,19
 403 453 403 453 427.5 487 c 128,-1,20
 452 521 452 521 459 563 c 0,21,22
 471 637 471 637 438 682.5 c 128,-1,23
 405 728 405 728 333 728 c 0,24,25
 225 728 225 728 147 603 c 1,26,-1
 122 614 l 1,0,1
155 -8 m 1,27,-1
 169 76 l 1,28,-1
 253 76 l 1,29,-1
 240 -8 l 1,30,-1
 155 -8 l 1,27,-1
EndSplineSet
EndChar

StartChar: at
Encoding: 64 64 35
Width: 941
GlyphClass: 2
Flags: W
LayerCount: 2
Fore
SplineSet
75 343 m 256,0,1
 105 525 105 525 243 641 c 128,-1,2
 381 757 381 757 573 757 c 0,3,4
 746 757 746 757 835 656.5 c 128,-1,5
 924 556 924 556 897 395 c 0,6,7
 874 259 874 259 814.5 191.5 c 128,-1,8
 755 124 755 124 684 124 c 0,9,10
 638 124 638 124 612 159.5 c 128,-1,11
 586 195 586 195 595 253 c 1,12,-1
 594 253 l 1,13,14
 569 205 569 205 517.5 165 c 128,-1,15
 466 125 466 125 404 125 c 0,16,17
 337 125 337 125 302.5 176.5 c 128,-1,18
 268 228 268 228 282 311 c 0,19,20
 300 422 300 422 370.5 488 c 128,-1,21
 441 554 441 554 522 554 c 0,22,23
 576 554 576 554 602.5 529 c 128,-1,24
 629 504 629 504 637 476 c 1,25,-1
 653 545 l 1,26,-1
 678 545 l 1,27,-1
 623 281 l 2,28,29
 622 276 622 276 621 272 c 0,30,31
 612 216 612 216 630 183.5 c 128,-1,32
 648 151 648 151 690 151 c 0,33,34
 753 151 753 151 801.5 215 c 128,-1,35
 850 279 850 279 868 392 c 0,36,37
 893 541 893 541 813.5 636 c 128,-1,38
 734 731 734 731 567 731 c 0,39,40
 395 731 395 731 264 624.5 c 128,-1,41
 133 518 133 518 104 343 c 256,42,43
 75 168 75 168 165 63.5 c 128,-1,44
 255 -41 255 -41 426 -41 c 0,45,46
 545 -41 545 -41 651 -9 c 1,47,-1
 654 -33 l 1,48,49
 543 -65 543 -65 422 -65 c 0,50,51
 236 -65 236 -65 140.5 48 c 128,-1,52
 45 161 45 161 75 343 c 256,0,1
310 310 m 0,53,54
 298 239 298 239 326.5 195.5 c 128,-1,55
 355 152 355 152 409 152 c 0,56,57
 434 152 434 152 462 163 c 128,-1,58
 490 174 490 174 522 199 c 128,-1,59
 554 224 554 224 579.5 274 c 128,-1,60
 605 324 605 324 617 394 c 0,61,62
 625 445 625 445 602 486.5 c 128,-1,63
 579 528 579 528 516 528 c 0,64,65
 451 528 451 528 389 470.5 c 128,-1,66
 327 413 327 413 310 310 c 0,53,54
EndSplineSet
EndChar

StartChar: A
Encoding: 65 65 36
Width: 608
GlyphClass: 2
Flags: W
LayerCount: 2
Fore
SplineSet
136 269 m 1,0,-1
 467 269 l 1,1,-1
 397 600 l 2,2,3
 393 620 393 620 385.5 655.5 c 128,-1,4
 378 691 378 691 375 706 c 1,5,-1
 373 706 l 1,6,7
 329 623 329 623 317 600 c 2,8,-1
 136 269 l 1,0,-1
-44 0 m 1,9,-1
 359 735 l 1,10,-1
 400 735 l 1,11,-1
 559 0 l 1,12,-1
 523 0 l 1,13,-1
 473 243 l 1,14,-1
 122 243 l 1,15,-1
 -10 0 l 1,16,-1
 -44 0 l 1,9,-1
EndSplineSet
Substitution2: "Single Substitution lookup 12 subtable" ordfeminine
EndChar

StartChar: B
Encoding: 66 66 37
Width: 656
GlyphClass: 2
Flags: W
LayerCount: 2
Fore
SplineSet
69 0 m 1,0,-1
 191 735 l 1,1,-1
 444 735 l 2,2,3
 541 735 541 735 585.5 684 c 128,-1,4
 630 633 630 633 617 553 c 0,5,6
 606 484 606 484 562.5 441 c 128,-1,7
 519 398 519 398 463 384 c 1,8,9
 526 368 526 368 562.5 317 c 128,-1,10
 599 266 599 266 587 198 c 0,11,12
 572 110 572 110 506 55 c 128,-1,13
 440 0 440 0 351 0 c 2,14,-1
 69 0 l 1,0,-1
103 27 m 1,15,-1
 348 27 l 2,16,17
 427 27 427 27 486 75.5 c 128,-1,18
 545 124 545 124 556 195 c 0,19,20
 568 268 568 268 522.5 317.5 c 128,-1,21
 477 367 477 367 398 367 c 2,22,-1
 160 367 l 1,23,-1
 103 27 l 1,15,-1
164 393 m 1,24,-1
 377 393 l 2,25,26
 454 393 454 393 513.5 433.5 c 128,-1,27
 573 474 573 474 586 552 c 0,28,29
 597 618 597 618 560.5 663 c 128,-1,30
 524 708 524 708 437 708 c 2,31,-1
 216 708 l 1,32,-1
 164 393 l 1,24,-1
EndSplineSet
EndChar

StartChar: C
Encoding: 67 67 38
Width: 613
GlyphClass: 2
Flags: W
LayerCount: 2
Fore
SplineSet
72 368 m 0,0,1
 102 550 102 550 200 652.5 c 128,-1,2
 298 755 298 755 428 755 c 0,3,4
 508 755 508 755 554 710.5 c 128,-1,5
 600 666 600 666 613 611 c 1,6,-1
 585 599 l 1,7,8
 570 652 570 652 530 689.5 c 128,-1,9
 490 727 490 727 424 727 c 0,10,11
 305 727 305 727 218 629 c 128,-1,12
 131 531 131 531 105 368 c 0,13,14
 78 202 78 202 133.5 105 c 128,-1,15
 189 8 189 8 305 8 c 0,16,17
 378 8 378 8 434.5 46 c 128,-1,18
 491 84 491 84 528 143 c 1,19,-1
 554 133 l 1,20,21
 458 -19 458 -19 300 -19 c 0,22,23
 169 -19 169 -19 105.5 84.5 c 128,-1,24
 42 188 42 188 72 368 c 0,0,1
EndSplineSet
EndChar

StartChar: D
Encoding: 68 68 39
Width: 663
GlyphClass: 2
Flags: W
LayerCount: 2
Fore
SplineSet
69 0 m 1,0,-1
 191 735 l 1,1,-1
 369 735 l 2,2,3
 518 735 518 735 589.5 644 c 128,-1,4
 661 553 661 553 630 368 c 0,5,6
 600 185 600 185 499 92.5 c 128,-1,7
 398 0 398 0 248 0 c 2,8,-1
 69 0 l 1,0,-1
103 27 m 1,9,-1
 238 27 l 2,10,11
 380 27 380 27 474.5 108.5 c 128,-1,12
 569 190 569 190 599 368 c 0,13,14
 655 708 655 708 352 708 c 2,15,-1
 216 708 l 1,16,-1
 103 27 l 1,9,-1
EndSplineSet
EndChar

StartChar: E
Encoding: 69 69 40
Width: 597
GlyphClass: 2
Flags: W
LayerCount: 2
Fore
SplineSet
69 0 m 1,0,-1
 191 735 l 1,1,-1
 619 735 l 1,2,-1
 615 708 l 1,3,-1
 216 708 l 1,4,-1
 164 395 l 1,5,-1
 525 395 l 1,6,-1
 521 369 l 1,7,-1
 160 369 l 1,8,-1
 103 27 l 1,9,-1
 516 27 l 1,10,-1
 511 0 l 1,11,-1
 69 0 l 1,0,-1
EndSplineSet
EndChar

StartChar: F
Encoding: 70 70 41
Width: 569
GlyphClass: 2
Flags: W
LayerCount: 2
Fore
SplineSet
69 0 m 1,0,-1
 191 735 l 1,1,-1
 602 735 l 1,2,-1
 597 708 l 1,3,-1
 216 708 l 1,4,-1
 163 385 l 1,5,-1
 506 385 l 1,6,-1
 501 359 l 1,7,-1
 158 359 l 1,8,-1
 99 0 l 1,9,-1
 69 0 l 1,0,-1
EndSplineSet
EndChar

StartChar: G
Encoding: 71 71 42
Width: 692
GlyphClass: 2
Flags: W
LayerCount: 2
Fore
SplineSet
72 368 m 0,0,1
 101 543 101 543 197.5 649 c 128,-1,2
 294 755 294 755 437 755 c 0,3,4
 517 755 517 755 566.5 714 c 128,-1,5
 616 673 616 673 633 618 c 1,6,-1
 606 607 l 1,7,8
 562 727 562 727 432 727 c 0,9,10
 304 727 304 727 217.5 627.5 c 128,-1,11
 131 528 131 528 105 368 c 0,12,13
 78 204 78 204 132.5 106 c 128,-1,14
 187 8 187 8 312 8 c 0,15,16
 388 8 388 8 447.5 49 c 128,-1,17
 507 90 507 90 538.5 148.5 c 128,-1,18
 570 207 570 207 581 275 c 2,19,-1
 594 351 l 1,20,-1
 359 351 l 1,21,-1
 364 378 l 1,22,-1
 628 378 l 1,23,-1
 565 0 l 1,24,-1
 538 0 l 1,25,-1
 563 152 l 1,26,27
 530 79 530 79 466.5 30 c 128,-1,28
 403 -19 403 -19 307 -19 c 0,29,30
 166 -19 166 -19 104.5 86 c 128,-1,31
 43 191 43 191 72 368 c 0,0,1
EndSplineSet
EndChar

StartChar: H
Encoding: 72 72 43
Width: 720
GlyphClass: 2
Flags: W
LayerCount: 2
Fore
SplineSet
69 0 m 1,0,-1
 191 735 l 1,1,-1
 221 735 l 1,2,-1
 164 393 l 1,3,-1
 592 393 l 1,4,-1
 649 735 l 1,5,-1
 679 735 l 1,6,-1
 558 0 l 1,7,-1
 527 0 l 1,8,-1
 588 367 l 1,9,-1
 160 367 l 1,10,-1
 99 0 l 1,11,-1
 69 0 l 1,0,-1
EndSplineSet
EndChar

StartChar: I
Encoding: 73 73 44
Width: 262
GlyphClass: 2
Flags: W
LayerCount: 2
Fore
SplineSet
69 0 m 1,0,-1
 191 735 l 1,1,-1
 221 735 l 1,2,-1
 99 0 l 1,3,-1
 69 0 l 1,0,-1
EndSplineSet
EndChar

StartChar: J
Encoding: 74 74 45
Width: 469
GlyphClass: 2
Flags: W
LayerCount: 2
Fore
SplineSet
-10 94 m 1,0,-1
 21 105 l 1,1,2
 33 58 33 58 63 33 c 128,-1,3
 93 8 93 8 129 8 c 0,4,5
 132 8 132 8 135 8 c 0,6,7
 279 12 279 12 311 207 c 2,8,-1
 398 735 l 1,9,-1
 429 735 l 1,10,-1
 340 196 l 2,11,12
 304 -19 304 -19 132 -19 c 0,13,14
 19 -19 19 -19 -10 94 c 1,0,-1
EndSplineSet
EndChar

StartChar: K
Encoding: 75 75 46
Width: 610
GlyphClass: 2
Flags: W
LayerCount: 2
Fore
SplineSet
69 0 m 1,0,-1
 191 735 l 1,1,-1
 221 735 l 1,2,-1
 145 281 l 1,3,-1
 147 281 l 1,4,-1
 612 735 l 1,5,-1
 654 735 l 1,6,-1
 331 421 l 1,7,-1
 556 0 l 1,8,-1
 515 0 l 1,9,-1
 307 397 l 1,10,-1
 137 233 l 1,11,-1
 99 0 l 1,12,-1
 69 0 l 1,0,-1
EndSplineSet
EndChar

StartChar: L
Encoding: 76 76 47
Width: 518
GlyphClass: 2
Flags: W
LayerCount: 2
Fore
SplineSet
69 0 m 1,0,-1
 191 735 l 1,1,-1
 221 735 l 1,2,-1
 103 27 l 1,3,-1
 465 27 l 1,4,-1
 461 0 l 1,5,-1
 69 0 l 1,0,-1
EndSplineSet
EndChar

StartChar: M
Encoding: 77 77 48
Width: 866
GlyphClass: 2
Flags: W
LayerCount: 2
Fore
SplineSet
69 0 m 1,0,-1
 191 735 l 1,1,-1
 231 735 l 1,2,-1
 362 264 l 2,3,4
 371 233 371 233 384 179 c 128,-1,5
 397 125 397 125 402 105 c 1,6,-1
 404 105 l 1,7,8
 417 126 417 126 448.5 180.5 c 128,-1,9
 480 235 480 235 498 264 c 2,10,-1
 784 735 l 1,11,-1
 826 735 l 1,12,-1
 705 0 l 1,13,-1
 673 0 l 1,14,-1
 758 511 l 2,15,16
 768 571 768 571 793 693 c 1,17,-1
 790 693 l 1,18,-1
 414 68 l 1,19,-1
 383 68 l 1,20,-1
 213 694 l 1,21,-1
 211 694 l 1,22,23
 206 645 206 645 183 511 c 2,24,-1
 99 0 l 1,25,-1
 69 0 l 1,0,-1
EndSplineSet
EndChar

StartChar: N
Encoding: 78 78 49
Width: 728
GlyphClass: 2
Flags: W
LayerCount: 2
Fore
SplineSet
69 0 m 1,0,-1
 191 735 l 1,1,-1
 228 735 l 1,2,-1
 545 43 l 1,3,-1
 548 43 l 1,4,5
 555 117 555 117 572 217 c 2,6,-1
 658 735 l 1,7,-1
 689 735 l 1,8,-1
 567 0 l 1,9,-1
 529 0 l 1,10,-1
 212 692 l 1,11,-1
 211 692 l 1,12,13
 203 628 203 628 181 498 c 2,14,-1
 99 0 l 1,15,-1
 69 0 l 1,0,-1
EndSplineSet
EndChar

StartChar: O
Encoding: 79 79 50
Width: 678
GlyphClass: 2
Flags: W
LayerCount: 2
Fore
SplineSet
72 368 m 0,0,1
 101 543 101 543 194 649 c 128,-1,2
 287 755 287 755 417 755 c 256,3,4
 547 755 547 755 605 648.5 c 128,-1,5
 663 542 663 542 634 367 c 0,6,7
 605 193 605 193 512.5 87 c 128,-1,8
 420 -19 420 -19 289 -19 c 256,9,10
 158 -19 158 -19 100.5 87.5 c 128,-1,11
 43 194 43 194 72 368 c 0,0,1
105 368 m 0,12,13
 79 208 79 208 127.5 108 c 128,-1,14
 176 8 176 8 294 8 c 0,15,16
 411 8 411 8 494 107 c 128,-1,17
 577 206 577 206 603 367 c 0,18,19
 630 531 630 531 579 629 c 128,-1,20
 528 727 528 727 413 727 c 0,21,22
 299 727 299 727 215.5 629.5 c 128,-1,23
 132 532 132 532 105 368 c 0,12,13
EndSplineSet
Substitution2: "Single Substitution lookup 12 subtable" ordmasculine
EndChar

StartChar: P
Encoding: 80 80 51
Width: 641
GlyphClass: 2
Flags: W
LayerCount: 2
Fore
SplineSet
69 0 m 1,0,-1
 191 735 l 1,1,-1
 456 735 l 2,2,3
 551 735 551 735 600.5 679.5 c 128,-1,4
 650 624 650 624 634 530 c 256,5,6
 618 436 618 436 549 380.5 c 128,-1,7
 480 325 480 325 387 325 c 2,8,-1
 153 325 l 1,9,-1
 99 0 l 1,10,-1
 69 0 l 1,0,-1
157 350 m 1,11,-1
 381 350 l 2,12,13
 469 350 469 350 529 396.5 c 128,-1,14
 589 443 589 443 603 530 c 0,15,16
 617 614 617 614 573 661 c 128,-1,17
 529 708 529 708 439 708 c 2,18,-1
 216 708 l 1,19,-1
 157 350 l 1,11,-1
EndSplineSet
EndChar

StartChar: Q
Encoding: 81 81 52
Width: 678
GlyphClass: 2
Flags: W
LayerCount: 2
Fore
SplineSet
72 367 m 0,0,1
 101 543 101 543 194 649 c 128,-1,2
 287 755 287 755 417 755 c 0,3,4
 546 755 546 755 604.5 648.5 c 128,-1,5
 663 542 663 542 634 367 c 256,6,7
 605 192 605 192 512 87 c 0,8,9
 502 75 502 75 491 65 c 1,10,-1
 566 -33 l 1,11,-1
 541 -52 l 1,12,-1
 467 44 l 1,13,14
 389 -19 389 -19 289 -19 c 0,15,16
 159 -19 159 -19 101 86.5 c 128,-1,17
 43 192 43 192 72 367 c 0,0,1
330 221 m 1,18,-1
 356 242 l 1,19,-1
 475 87 l 1,20,21
 483 96 483 96 493 106 c 0,22,23
 576 204 576 204 603 367 c 0,24,25
 630 532 630 532 578.5 629.5 c 128,-1,26
 527 727 527 727 413 727 c 256,27,28
 299 727 299 727 215.5 629.5 c 128,-1,29
 132 532 132 532 104 367 c 0,30,31
 77 205 77 205 127.5 106.5 c 128,-1,32
 178 8 178 8 294 8 c 0,33,34
 382 8 382 8 451 64 c 1,35,-1
 330 221 l 1,18,-1
EndSplineSet
EndChar

StartChar: R
Encoding: 82 82 53
Width: 646
GlyphClass: 2
Flags: W
LayerCount: 2
Fore
SplineSet
160 368 m 1,0,-1
 397 368 l 2,1,2
 484 368 484 368 539 414.5 c 128,-1,3
 594 461 594 461 607 539 c 0,4,5
 619 611 619 611 579 659.5 c 128,-1,6
 539 708 539 708 444 708 c 2,7,-1
 216 708 l 1,8,-1
 160 368 l 1,0,-1
69 0 m 1,9,-1
 191 735 l 1,10,-1
 459 735 l 2,11,12
 560 735 560 735 605.5 679.5 c 128,-1,13
 651 624 651 624 637 540 c 0,14,15
 622 452 622 452 568.5 406 c 128,-1,16
 515 360 515 360 461 350 c 1,17,18
 537 319 537 319 545 198 c 0,19,20
 546 185 546 185 548.5 158.5 c 128,-1,21
 551 132 551 132 551.5 123.5 c 128,-1,22
 552 115 552 115 554 96.5 c 128,-1,23
 556 78 556 78 558 70 c 128,-1,24
 560 62 560 62 562.5 48 c 128,-1,25
 565 34 565 34 568 23 c 128,-1,26
 571 12 571 12 577 0 c 1,27,-1
 542 0 l 1,28,29
 524 54 524 54 514 196 c 0,30,31
 502 340 502 340 385 340 c 2,32,-1
 155 340 l 1,33,-1
 99 0 l 1,34,-1
 69 0 l 1,9,-1
EndSplineSet
EndChar

StartChar: S
Encoding: 83 83 54
Width: 594
GlyphClass: 2
Flags: W
LayerCount: 2
Fore
SplineSet
25 113 m 1,0,-1
 57 127 l 1,1,2
 82 74 82 74 134 41 c 128,-1,3
 186 8 186 8 257 8 c 0,4,5
 347 8 347 8 413.5 54.5 c 128,-1,6
 480 101 480 101 494 183 c 0,7,8
 499 215 499 215 490.5 241 c 128,-1,9
 482 267 482 267 468 284 c 128,-1,10
 454 301 454 301 425 318 c 128,-1,11
 396 335 396 335 374 343.5 c 128,-1,12
 352 352 352 352 315 366 c 0,13,14
 273 380 273 380 249.5 389.5 c 128,-1,15
 226 399 226 399 193.5 418 c 128,-1,16
 161 437 161 437 145.5 456 c 128,-1,17
 130 475 130 475 121 505 c 128,-1,18
 112 535 112 535 118 573 c 0,19,20
 132 657 132 657 201.5 706 c 128,-1,21
 271 755 271 755 378 755 c 0,22,23
 452 755 452 755 503 720.5 c 128,-1,24
 554 686 554 686 575 637 c 1,25,-1
 546 626 l 1,26,27
 524 672 524 672 478.5 699.5 c 128,-1,28
 433 727 433 727 370 727 c 0,29,30
 278 727 278 727 219 685.5 c 128,-1,31
 160 644 160 644 149 573 c 0,32,33
 144 542 144 542 152 516 c 128,-1,34
 160 490 160 490 175 472.5 c 128,-1,35
 190 455 190 455 219.5 438.5 c 128,-1,36
 249 422 249 422 271.5 413 c 128,-1,37
 294 404 294 404 332 391 c 0,38,39
 367 378 367 378 386 370.5 c 128,-1,40
 405 363 405 363 434 349 c 128,-1,41
 463 335 463 335 478 321 c 128,-1,42
 493 307 493 307 508 286.5 c 128,-1,43
 523 266 523 266 526.5 240.5 c 128,-1,44
 530 215 530 215 525 184 c 0,45,46
 509 88 509 88 437 34.5 c 128,-1,47
 365 -19 365 -19 251 -19 c 0,48,49
 169 -19 169 -19 111.5 17.5 c 128,-1,50
 54 54 54 54 25 113 c 1,0,-1
EndSplineSet
EndChar

StartChar: T
Encoding: 84 84 55
Width: 533
GlyphClass: 2
Flags: W
LayerCount: 2
Fore
SplineSet
90 708 m 1,0,-1
 95 735 l 1,1,-1
 589 735 l 1,2,-1
 584 708 l 1,3,-1
 353 708 l 1,4,-1
 236 0 l 1,5,-1
 205 0 l 1,6,-1
 322 708 l 1,7,-1
 90 708 l 1,0,-1
EndSplineSet
EndChar

StartChar: U
Encoding: 85 85 56
Width: 720
GlyphClass: 2
Flags: W
LayerCount: 2
Fore
SplineSet
111 251 m 2,0,-1
 191 735 l 1,1,-1
 221 735 l 1,2,-1
 141 256 l 2,3,4
 121 136 121 136 167 72 c 128,-1,5
 213 8 213 8 314 8 c 0,6,7
 416 8 416 8 483.5 72.5 c 128,-1,8
 551 137 551 137 571 256 c 2,9,-1
 650 735 l 1,10,-1
 680 735 l 1,11,-1
 600 251 l 2,12,13
 579 122 579 122 504.5 51.5 c 128,-1,14
 430 -19 430 -19 309 -19 c 0,15,16
 193 -19 193 -19 141 50.5 c 128,-1,17
 89 120 89 120 111 251 c 2,0,-1
EndSplineSet
EndChar

StartChar: V
Encoding: 86 86 57
Width: 547
GlyphClass: 2
Flags: W
LayerCount: 2
Fore
SplineSet
72 735 m 1,0,-1
 107 735 l 1,1,-1
 204 184 l 2,2,3
 205 175 205 175 214.5 119.5 c 128,-1,4
 224 64 224 64 229 35 c 1,5,-1
 232 35 l 1,6,7
 243 57 243 57 256 82.5 c 128,-1,8
 269 108 269 108 283.5 137.5 c 128,-1,9
 298 167 298 167 308 184 c 2,10,-1
 591 735 l 1,11,-1
 627 735 l 1,12,-1
 242 0 l 1,13,-1
 207 0 l 1,14,-1
 72 735 l 1,0,-1
EndSplineSet
EndChar

StartChar: W
Encoding: 87 87 58
Width: 822
GlyphClass: 2
Flags: W
LayerCount: 2
Fore
SplineSet
85 735 m 1,0,-1
 120 735 l 1,1,-1
 161 181 l 2,2,3
 166 106 166 106 169 35 c 1,4,-1
 171 35 l 1,5,6
 182 59 182 59 201.5 107.5 c 128,-1,7
 221 156 221 156 232 181 c 2,8,-1
 466 735 l 1,9,-1
 506 735 l 1,10,-1
 556 181 l 2,11,12
 559 157 559 157 563.5 108 c 128,-1,13
 568 59 568 59 570 35 c 1,14,-1
 572 35 l 1,15,16
 609 135 609 135 628 181 c 2,17,-1
 852 735 l 1,18,-1
 887 735 l 1,19,-1
 585 0 l 1,20,-1
 546 0 l 1,21,-1
 495 544 l 2,22,23
 486 622 486 622 482 700 c 1,24,-1
 480 700 l 1,25,26
 457 644 457 644 415 544 c 2,27,-1
 184 0 l 1,28,-1
 144 0 l 1,29,-1
 85 735 l 1,0,-1
EndSplineSet
EndChar

StartChar: X
Encoding: 88 88 59
Width: 511
GlyphClass: 2
Flags: W
LayerCount: 2
Fore
SplineSet
-51 0 m 1,0,-1
 249 378 l 1,1,-1
 83 735 l 1,2,-1
 121 735 l 1,3,-1
 227 503 l 2,4,5
 244 468 244 468 273 401 c 1,6,-1
 276 401 l 1,7,8
 282 410 282 410 312 446.5 c 128,-1,9
 342 483 342 483 357 503 c 2,10,-1
 539 735 l 1,11,-1
 579 735 l 1,12,-1
 293 378 l 1,13,-1
 470 0 l 1,14,-1
 433 0 l 1,15,-1
 317 250 l 2,16,17
 315 251 315 251 269 355 c 1,18,-1
 266 355 l 1,19,20
 257 343 257 343 228.5 306 c 128,-1,21
 200 269 200 269 184 250 c 2,22,-1
 -13 0 l 1,23,-1
 -51 0 l 1,0,-1
EndSplineSet
EndChar

StartChar: Y
Encoding: 89 89 60
Width: 544
GlyphClass: 2
Flags: W
LayerCount: 2
Fore
SplineSet
73 735 m 1,0,-1
 109 735 l 1,1,-1
 237 439 l 2,2,3
 240 429 240 429 256 391 c 128,-1,4
 272 353 272 353 281 335 c 1,5,-1
 283 335 l 1,6,7
 299 356 299 356 361 439 c 2,8,-1
 585 735 l 1,9,-1
 623 735 l 1,10,-1
 293 304 l 1,11,-1
 242 0 l 1,12,-1
 212 0 l 1,13,-1
 262 304 l 1,14,-1
 73 735 l 1,0,-1
EndSplineSet
EndChar

StartChar: Z
Encoding: 90 90 61
Width: 604
GlyphClass: 2
Flags: W
LayerCount: 2
Fore
SplineSet
16 26 m 1,0,-1
 571 708 l 1,1,-1
 163 708 l 1,2,-1
 167 735 l 1,3,-1
 611 735 l 1,4,-1
 607 710 l 1,5,-1
 52 27 l 1,6,-1
 505 27 l 1,7,-1
 500 0 l 1,8,-1
 12 0 l 1,9,-1
 16 26 l 1,0,-1
EndSplineSet
EndChar

StartChar: bracketleft
Encoding: 91 91 62
Width: 442
GlyphClass: 2
Flags: W
LayerCount: 2
Fore
SplineSet
102 -137 m 1,0,-1
 264 839 l 1,1,-1
 430 839 l 1,2,-1
 425 813 l 1,3,-1
 289 813 l 1,4,-1
 136 -112 l 1,5,-1
 272 -112 l 1,6,-1
 268 -137 l 1,7,-1
 102 -137 l 1,0,-1
EndSplineSet
EndChar

StartChar: backslash
Encoding: 92 92 63
Width: 290
GlyphClass: 2
Flags: W
LayerCount: 2
Fore
SplineSet
78 795 m 1,0,-1
 108 795 l 1,1,-1
 240 -68 l 1,2,-1
 210 -68 l 1,3,-1
 78 795 l 1,0,-1
EndSplineSet
EndChar

StartChar: bracketright
Encoding: 93 93 64
Width: 442
GlyphClass: 2
Flags: W
LayerCount: 2
Fore
SplineSet
39 -112 m 1,0,-1
 175 -112 l 1,1,-1
 328 813 l 1,2,-1
 192 813 l 1,3,-1
 197 839 l 1,4,-1
 363 839 l 1,5,-1
 202 -137 l 1,6,-1
 35 -137 l 1,7,-1
 39 -112 l 1,0,-1
EndSplineSet
EndChar

StartChar: asciicircum
Encoding: 94 94 65
Width: 474
GlyphClass: 2
Flags: W
LayerCount: 2
Fore
SplineSet
69 505 m 1,0,-1
 311 820 l 1,1,-1
 342 820 l 1,2,-1
 478 505 l 1,3,-1
 444 505 l 1,4,-1
 322 791 l 1,5,-1
 321 791 l 1,6,-1
 277 735 l 1,7,-1
 105 505 l 1,8,-1
 69 505 l 1,0,-1
EndSplineSet
EndChar

StartChar: underscore
Encoding: 95 95 66
Width: 409
GlyphClass: 2
Flags: W
LayerCount: 2
Fore
SplineSet
-48 -53 m 1,0,-1
 348 -53 l 1,1,-1
 344 -80 l 1,2,-1
 -52 -80 l 1,3,-1
 -48 -53 l 1,0,-1
EndSplineSet
EndChar

StartChar: grave
Encoding: 96 96 67
Width: 244
GlyphClass: 2
Flags: W
LayerCount: 2
Fore
SplineSet
198 560 m 1,0,-1
 132 836 l 1,1,-1
 188 836 l 1,2,-1
 226 560 l 1,3,-1
 198 560 l 1,0,-1
EndSplineSet
EndChar

StartChar: a
Encoding: 97 97 68
Width: 528
GlyphClass: 2
Flags: W
LayerCount: 2
Fore
SplineSet
50 120 m 0,0,1
 42 74 42 74 73.5 40 c 128,-1,2
 105 6 105 6 173 6 c 0,3,4
 254 6 254 6 322.5 61 c 128,-1,5
 391 116 391 116 405 203 c 2,6,-1
 422 307 l 1,7,8
 363 285 363 285 249 267 c 0,9,10
 153 252 153 252 106.5 215.5 c 128,-1,11
 60 179 60 179 50 120 c 0,0,1
21 117 m 0,12,13
 45 259 45 259 253 291 c 0,14,15
 381 312 381 312 427 333 c 1,16,-1
 431 360 l 2,17,18
 442 427 442 427 406.5 470 c 128,-1,19
 371 513 371 513 295 513 c 0,20,21
 248 513 248 513 201 490 c 128,-1,22
 154 467 154 467 118 425 c 1,23,-1
 99 439 l 1,24,25
 133 481 133 481 187.5 510 c 128,-1,26
 242 539 242 539 299 539 c 0,27,28
 392 539 392 539 432 488 c 128,-1,29
 472 437 472 437 459 357 c 2,30,-1
 400 0 l 1,31,-1
 372 0 l 1,32,-1
 391 113 l 1,33,34
 364 60 364 60 301.5 20.5 c 128,-1,35
 239 -19 239 -19 167 -19 c 0,36,37
 89 -19 89 -19 50 19 c 128,-1,38
 11 57 11 57 21 117 c 0,12,13
EndSplineSet
Substitution2: "Single Substitution lookup 12 subtable" ordfeminine
EndChar

StartChar: b
Encoding: 98 98 69
Width: 550
GlyphClass: 2
Flags: W
LayerCount: 2
Fore
SplineSet
48 0 m 1,0,-1
 175 767 l 1,1,-1
 204 767 l 1,2,-1
 140 384 l 1,3,4
 162 442 162 442 216 490.5 c 128,-1,5
 270 539 270 539 339 539 c 0,6,7
 431 539 431 539 473 464.5 c 128,-1,8
 515 390 515 390 494 261 c 0,9,10
 471 122 471 122 400 51.5 c 128,-1,11
 329 -19 329 -19 245 -19 c 0,12,13
 183 -19 183 -19 145 22.5 c 128,-1,14
 107 64 107 64 97 125 c 1,15,-1
 77 0 l 1,16,-1
 48 0 l 1,0,-1
118 261 m 0,17,18
 98 141 98 141 137.5 73.5 c 128,-1,19
 177 6 177 6 248 6 c 0,20,21
 327 6 327 6 387.5 75.5 c 128,-1,22
 448 145 448 145 468 261 c 0,23,24
 487 376 487 376 449 444.5 c 128,-1,25
 411 513 411 513 333 513 c 0,26,27
 263 513 263 513 200 445.5 c 128,-1,28
 137 378 137 378 118 261 c 0,17,18
EndSplineSet
EndChar

StartChar: c
Encoding: 99 99 70
Width: 472
GlyphClass: 2
Flags: W
LayerCount: 2
Fore
SplineSet
50 260 m 0,0,1
 70 380 70 380 139 459.5 c 128,-1,2
 208 539 208 539 307 539 c 0,3,4
 365 539 365 539 403.5 506.5 c 128,-1,5
 442 474 442 474 452 424 c 1,6,-1
 424 415 l 1,7,8
 414 458 414 458 381.5 485.5 c 128,-1,9
 349 513 349 513 302 513 c 0,10,11
 220 513 220 513 158 442 c 128,-1,12
 96 371 96 371 78 260 c 0,13,14
 59 147 59 147 99 76.5 c 128,-1,15
 139 6 139 6 218 6 c 0,16,17
 267 6 267 6 314.5 37 c 128,-1,18
 362 68 362 68 389 110 c 1,19,-1
 412 100 l 1,20,21
 381 50 381 50 327.5 15.5 c 128,-1,22
 274 -19 274 -19 214 -19 c 0,23,24
 121 -19 121 -19 75 56.5 c 128,-1,25
 29 132 29 132 50 260 c 0,0,1
EndSplineSet
EndChar

StartChar: d
Encoding: 100 100 71
Width: 550
GlyphClass: 2
Flags: W
LayerCount: 2
Fore
SplineSet
50 261 m 0,0,1
 72 391 72 391 140 465 c 128,-1,2
 208 539 208 539 298 539 c 0,3,4
 363 539 363 539 401.5 493.5 c 128,-1,5
 440 448 440 448 445 385 c 1,6,-1
 509 767 l 1,7,-1
 537 767 l 1,8,-1
 410 0 l 1,9,-1
 383 0 l 1,10,-1
 403 126 l 1,11,12
 374 63 374 63 322 22 c 128,-1,13
 270 -19 270 -19 205 -19 c 0,14,15
 123 -19 123 -19 75 51.5 c 128,-1,16
 27 122 27 122 50 261 c 0,0,1
78 261 m 0,17,18
 59 147 59 147 95 76.5 c 128,-1,19
 131 6 131 6 212 6 c 0,20,21
 284 6 284 6 345 73.5 c 128,-1,22
 406 141 406 141 426 261 c 0,23,24
 445 378 445 378 404.5 445.5 c 128,-1,25
 364 513 364 513 295 513 c 0,26,27
 217 513 217 513 157 444.5 c 128,-1,28
 97 376 97 376 78 261 c 0,17,18
EndSplineSet
EndChar

StartChar: e
Encoding: 101 101 72
Width: 524
GlyphClass: 2
Flags: W
LayerCount: 2
Fore
SplineSet
50 263 m 0,0,1
 70 383 70 383 140.5 461 c 128,-1,2
 211 539 211 539 308 539 c 256,3,4
 406 539 406 539 449 461.5 c 128,-1,5
 492 384 492 384 475 279 c 0,6,7
 474 274 474 274 472 265.5 c 128,-1,8
 470 257 470 257 470 252 c 1,9,-1
 77 252 l 1,10,11
 60 151 60 151 98.5 78.5 c 128,-1,12
 137 6 137 6 223 6 c 0,13,14
 278 6 278 6 328.5 37 c 128,-1,15
 379 68 379 68 410 111 c 1,16,-1
 432 100 l 1,17,18
 396 47 396 47 341.5 14 c 128,-1,19
 287 -19 287 -19 219 -19 c 0,20,21
 119 -19 119 -19 74.5 60.5 c 128,-1,22
 30 140 30 140 50 263 c 0,0,1
80 275 m 1,23,-1
 445 275 l 1,24,25
 461 372 461 372 423.5 442.5 c 128,-1,26
 386 513 386 513 304 513 c 0,27,28
 245 513 245 513 196.5 476 c 128,-1,29
 148 439 148 439 120 387 c 128,-1,30
 92 335 92 335 80 275 c 1,23,-1
EndSplineSet
EndChar

StartChar: f
Encoding: 102 102 73
Width: 307
GlyphClass: 2
Flags: W
LayerCount: 2
Fore
SplineSet
60 494 m 1,0,-1
 65 520 l 1,1,-1
 161 520 l 1,2,-1
 179 626 l 2,3,4
 191 699 191 699 231.5 733 c 128,-1,5
 272 767 272 767 330 767 c 2,6,-1
 373 767 l 1,7,-1
 369 741 l 1,8,-1
 328 741 l 2,9,10
 227 741 227 741 207 619 c 2,11,-1
 191 520 l 1,12,-1
 318 520 l 1,13,-1
 314 494 l 1,14,-1
 186 494 l 1,15,-1
 105 0 l 1,16,-1
 75 0 l 1,17,-1
 157 494 l 1,18,-1
 60 494 l 1,0,-1
EndSplineSet
EndChar

StartChar: g
Encoding: 103 103 74
Width: 543
GlyphClass: 2
Flags: W
LayerCount: 2
Fore
SplineSet
79 269 m 0,0,1
 61 160 61 160 97.5 92.5 c 128,-1,2
 134 25 134 25 209 25 c 0,3,4
 288 25 288 25 344.5 90.5 c 128,-1,5
 401 156 401 156 420 271 c 0,6,7
 438 379 438 379 402 446 c 128,-1,8
 366 513 366 513 292 513 c 0,9,10
 211 513 211 513 154 444.5 c 128,-1,11
 97 376 97 376 79 269 c 0,0,1
51 269 m 0,12,13
 71 389 71 389 137 464 c 128,-1,14
 203 539 203 539 294 539 c 0,15,16
 361 539 361 539 396 496 c 128,-1,17
 431 453 431 453 441 397 c 1,18,-1
 461 520 l 1,19,-1
 489 520 l 1,20,-1
 409 38 l 2,21,22
 385 -108 385 -108 329 -178 c 128,-1,23
 273 -248 273 -248 168 -248 c 0,24,25
 117 -248 117 -248 77.5 -225 c 128,-1,26
 38 -202 38 -202 16 -164 c 1,27,-1
 42 -149 l 1,28,29
 90 -222 90 -222 173 -222 c 0,30,31
 263 -222 263 -222 311 -158.5 c 128,-1,32
 359 -95 359 -95 380 33 c 2,33,-1
 398 136 l 1,34,35
 330 -2 330 -2 206 -2 c 0,36,37
 116 -2 116 -2 73.5 74 c 128,-1,38
 31 150 31 150 51 269 c 0,12,13
EndSplineSet
EndChar

StartChar: h
Encoding: 104 104 75
Width: 547
GlyphClass: 2
Flags: W
LayerCount: 2
Fore
SplineSet
48 0 m 1,0,-1
 175 767 l 1,1,-1
 204 767 l 1,2,-1
 145 410 l 1,3,-1
 146 410 l 1,4,5
 170 457 170 457 226.5 498 c 128,-1,6
 283 539 283 539 347 539 c 0,7,8
 425 539 425 539 456 487 c 128,-1,9
 487 435 487 435 471 338 c 2,10,-1
 415 0 l 1,11,-1
 387 0 l 1,12,-1
 442 329 l 2,13,14
 472 513 472 513 337 513 c 0,15,16
 269 513 269 513 206 455 c 128,-1,17
 143 397 143 397 130 320 c 2,18,-1
 77 0 l 1,19,-1
 48 0 l 1,0,-1
EndSplineSet
Substitution2: "'sups' Superscript lookup 5 subtable" uni02B0
Substitution2: "'aalt' Access All Alternates lookup 0 subtable" uni02B0
EndChar

StartChar: i
Encoding: 105 105 76
Width: 258
GlyphClass: 2
Flags: W
LayerCount: 2
Fore
SplineSet
160 670 m 1,0,-1
 173 746 l 1,1,-1
 239 746 l 1,2,-1
 226 670 l 1,3,-1
 160 670 l 1,0,-1
69 0 m 1,4,-1
 155 520 l 1,5,-1
 183 520 l 1,6,-1
 97 0 l 1,7,-1
 69 0 l 1,4,-1
EndSplineSet
EndChar

StartChar: j
Encoding: 106 106 77
Width: 265
GlyphClass: 2
Flags: W
LayerCount: 2
Fore
SplineSet
168 670 m 1,0,-1
 180 746 l 1,1,-1
 245 746 l 1,2,-1
 232 670 l 1,3,-1
 168 670 l 1,0,-1
-86 -212 m 1,4,-1
 -59 -212 l 2,5,6
 42 -212 42 -212 64 -73 c 2,7,-1
 163 520 l 1,8,-1
 190 520 l 1,9,-1
 91 -77 l 2,10,11
 78 -156 78 -156 40 -197 c 128,-1,12
 2 -238 2 -238 -58 -238 c 2,13,-1
 -90 -238 l 1,14,-1
 -86 -212 l 1,4,-1
EndSplineSet
Substitution2: "'sups' Superscript lookup 5 subtable" uni02B2
Substitution2: "'aalt' Access All Alternates lookup 0 subtable" uni02B2
EndChar

StartChar: k
Encoding: 107 107 78
Width: 464
GlyphClass: 2
Flags: W
LayerCount: 2
Fore
SplineSet
49 0 m 1,0,-1
 176 767 l 1,1,-1
 205 767 l 1,2,-1
 111 201 l 1,3,-1
 435 520 l 1,4,-1
 474 520 l 1,5,-1
 269 316 l 1,6,-1
 415 0 l 1,7,-1
 379 0 l 1,8,-1
 243 292 l 1,9,-1
 104 157 l 1,10,-1
 78 0 l 1,11,-1
 49 0 l 1,0,-1
EndSplineSet
EndChar

StartChar: l
Encoding: 108 108 79
Width: 223
GlyphClass: 2
Flags: W
LayerCount: 2
Fore
SplineSet
50 0 m 1,0,-1
 177 767 l 1,1,-1
 206 767 l 1,2,-1
 80 0 l 1,3,-1
 50 0 l 1,0,-1
EndSplineSet
Substitution2: "'sups' Superscript lookup 5 subtable" uni02E1
Substitution2: "'aalt' Access All Alternates lookup 0 subtable" uni02E1
EndChar

StartChar: m
Encoding: 109 109 80
Width: 809
GlyphClass: 2
Flags: W
LayerCount: 2
Fore
SplineSet
44 0 m 1,0,-1
 130 520 l 1,1,-1
 157 520 l 1,2,-1
 141 420 l 1,3,-1
 143 420 l 1,4,5
 166 466 166 466 211.5 502.5 c 128,-1,6
 257 539 257 539 321 539 c 0,7,8
 386 539 386 539 410 497 c 128,-1,9
 434 455 434 455 433 397 c 1,10,11
 436 410 436 410 449.5 430.5 c 128,-1,12
 463 451 463 451 486 476.5 c 128,-1,13
 509 502 509 502 548.5 520.5 c 128,-1,14
 588 539 588 539 631 539 c 0,15,16
 701 539 701 539 725.5 489.5 c 128,-1,17
 750 440 750 440 733 338 c 2,18,-1
 677 0 l 1,19,-1
 649 0 l 1,20,-1
 703 331 l 2,21,22
 718 420 718 420 702 466.5 c 128,-1,23
 686 513 686 513 619 513 c 0,24,25
 554 513 554 513 498 457.5 c 128,-1,26
 442 402 442 402 428 313 c 2,27,-1
 376 0 l 1,28,-1
 347 0 l 1,29,-1
 401 330 l 2,30,31
 431 513 431 513 313 513 c 0,32,33
 245 513 245 513 192 458.5 c 128,-1,34
 139 404 139 404 125 320 c 2,35,-1
 72 0 l 1,36,-1
 44 0 l 1,0,-1
EndSplineSet
EndChar

StartChar: n
Encoding: 110 110 81
Width: 542
GlyphClass: 2
Flags: W
LayerCount: 2
Fore
SplineSet
44 0 m 1,0,-1
 130 520 l 1,1,-1
 157 520 l 1,2,-1
 138 402 l 1,3,-1
 140 402 l 1,4,5
 155 445 155 445 213 492 c 128,-1,6
 271 539 271 539 343 539 c 0,7,8
 371 539 371 539 394 531 c 128,-1,9
 417 523 417 523 438.5 502.5 c 128,-1,10
 460 482 460 482 468.5 440 c 128,-1,11
 477 398 477 398 467 338 c 2,12,-1
 411 0 l 1,13,-1
 381 0 l 1,14,-1
 435 329 l 2,15,16
 465 513 465 513 334 513 c 0,17,18
 266 513 266 513 202 455 c 128,-1,19
 138 397 138 397 125 320 c 2,20,-1
 72 0 l 1,21,-1
 44 0 l 1,0,-1
EndSplineSet
Substitution2: "'sups' Superscript lookup 5 subtable" uni207F
Substitution2: "'aalt' Access All Alternates lookup 0 subtable" uni207F
EndChar

StartChar: o
Encoding: 111 111 82
Width: 532
GlyphClass: 2
Flags: W
LayerCount: 2
Fore
SplineSet
78 260 m 0,0,1
 60 150 60 150 98 78 c 128,-1,2
 136 6 136 6 220 6 c 0,3,4
 303 6 303 6 365.5 78.5 c 128,-1,5
 428 151 428 151 447 260 c 0,6,7
 465 371 465 371 425 442 c 128,-1,8
 385 513 385 513 304 513 c 256,9,10
 223 513 223 513 160 442.5 c 128,-1,11
 97 372 97 372 78 260 c 0,0,1
50 260 m 0,12,13
 70 382 70 382 140 460.5 c 128,-1,14
 210 539 210 539 308 539 c 0,15,16
 405 539 405 539 450.5 460.5 c 128,-1,17
 496 382 496 382 476 260 c 0,18,19
 457 143 457 143 387 62 c 128,-1,20
 317 -19 317 -19 216 -19 c 0,21,22
 114 -19 114 -19 72.5 62 c 128,-1,23
 31 143 31 143 50 260 c 0,12,13
EndSplineSet
Substitution2: "Single Substitution lookup 12 subtable" ordmasculine
EndChar

StartChar: p
Encoding: 112 112 83
Width: 550
GlyphClass: 2
Flags: W
LayerCount: 2
Fore
SplineSet
119 262 m 0,0,1
 100 148 100 148 136.5 77 c 128,-1,2
 173 6 173 6 249 6 c 256,3,4
 325 6 325 6 386.5 74.5 c 128,-1,5
 448 143 448 143 468 261 c 0,6,7
 486 371 486 371 451 442 c 128,-1,8
 416 513 416 513 333 513 c 0,9,10
 260 513 260 513 198.5 442 c 128,-1,11
 137 371 137 371 119 262 c 0,0,1
7 -244 m 1,12,-1
 134 520 l 1,13,-1
 163 520 l 1,14,-1
 141 388 l 1,15,16
 173 457 173 457 226 498 c 128,-1,17
 279 539 279 539 339 539 c 0,18,19
 431 539 431 539 473 463.5 c 128,-1,20
 515 388 515 388 494 261 c 0,21,22
 472 128 472 128 403 54.5 c 128,-1,23
 334 -19 334 -19 245 -19 c 0,24,25
 182 -19 182 -19 145 22 c 128,-1,26
 108 63 108 63 98 129 c 1,27,-1
 36 -244 l 1,28,-1
 7 -244 l 1,12,-1
EndSplineSet
EndChar

StartChar: q
Encoding: 113 113 84
Width: 550
GlyphClass: 2
Flags: W
LayerCount: 2
Fore
SplineSet
78 261 m 0,0,1
 59 145 59 145 96.5 75.5 c 128,-1,2
 134 6 134 6 211 6 c 0,3,4
 289 6 289 6 347.5 78 c 128,-1,5
 406 150 406 150 425 262 c 0,6,7
 443 372 443 372 405.5 442.5 c 128,-1,8
 368 513 368 513 295 513 c 0,9,10
 212 513 212 513 154 441.5 c 128,-1,11
 96 370 96 370 78 261 c 0,0,1
50 261 m 0,12,13
 71 388 71 388 138.5 463.5 c 128,-1,14
 206 539 206 539 297 539 c 0,15,16
 356 539 356 539 396.5 499.5 c 128,-1,17
 437 460 437 460 447 390 c 1,18,-1
 469 520 l 1,19,-1
 496 520 l 1,20,-1
 369 -244 l 1,21,-1
 341 -244 l 1,22,-1
 403 130 l 1,23,24
 370 64 370 64 319.5 22.5 c 128,-1,25
 269 -19 269 -19 206 -19 c 0,26,27
 118 -19 118 -19 73 54.5 c 128,-1,28
 28 128 28 128 50 261 c 0,12,13
EndSplineSet
EndChar

StartChar: r
Encoding: 114 114 85
Width: 348
GlyphClass: 2
Flags: W
LayerCount: 2
Fore
SplineSet
44 0 m 1,0,-1
 130 520 l 1,1,-1
 157 520 l 1,2,-1
 141 422 l 1,3,4
 160 465 160 465 204.5 502 c 128,-1,5
 249 539 249 539 314 539 c 0,6,7
 355 539 355 539 388 522 c 1,8,-1
 383 494 l 1,9,10
 349 511 349 511 310 511 c 0,11,12
 241 511 241 511 189.5 455.5 c 128,-1,13
 138 400 138 400 125 316 c 2,14,-1
 72 0 l 1,15,-1
 44 0 l 1,0,-1
EndSplineSet
Substitution2: "'sups' Superscript lookup 5 subtable" uni02B3
Substitution2: "'aalt' Access All Alternates lookup 0 subtable" uni02B3
EndChar

StartChar: s
Encoding: 115 115 86
Width: 458
GlyphClass: 2
Flags: W
LayerCount: 2
Fore
SplineSet
13 85 m 1,0,-1
 38 99 l 1,1,2
 57 56 57 56 95 31 c 128,-1,3
 133 6 133 6 185 6 c 0,4,5
 253 6 253 6 300.5 38 c 128,-1,6
 348 70 348 70 356 120 c 0,7,8
 360 143 360 143 353 162.5 c 128,-1,9
 346 182 346 182 336 193 c 128,-1,10
 326 204 326 204 298.5 217 c 128,-1,11
 271 230 271 230 258 234.5 c 128,-1,12
 245 239 245 239 210 252 c 0,13,14
 176 263 176 263 154.5 272.5 c 128,-1,15
 133 282 133 282 110.5 299 c 128,-1,16
 88 316 88 316 79.5 342 c 128,-1,17
 71 368 71 368 76 401 c 0,18,19
 87 466 87 466 143 502.5 c 128,-1,20
 199 539 199 539 274 539 c 0,21,22
 331 539 331 539 370.5 509.5 c 128,-1,23
 410 480 410 480 425 438 c 1,24,-1
 401 424 l 1,25,26
 386 464 386 464 352 488.5 c 128,-1,27
 318 513 318 513 269 513 c 0,28,29
 204 513 204 513 158.5 481.5 c 128,-1,30
 113 450 113 450 105 401 c 0,31,32
 96 349 96 349 129.5 320.5 c 128,-1,33
 163 292 163 292 225 273 c 0,34,35
 254 264 254 264 274 257.5 c 128,-1,36
 294 251 294 251 319 236.5 c 128,-1,37
 344 222 344 222 359 207.5 c 128,-1,38
 374 193 374 193 382 170 c 128,-1,39
 390 147 390 147 385 120 c 0,40,41
 375 61 375 61 322 21 c 128,-1,42
 269 -19 269 -19 181 -19 c 0,43,44
 56 -19 56 -19 13 85 c 1,0,-1
EndSplineSet
Substitution2: "'hist' Historical Forms lookup 11 subtable" longs
Substitution2: "'sups' Superscript lookup 5 subtable" uni02E2
AlternateSubs2: "'aalt' Access All Alternates lookup 1 subtable" uni02E2 longs
EndChar

StartChar: t
Encoding: 116 116 87
Width: 334
GlyphClass: 2
Flags: W
LayerCount: 2
Fore
SplineSet
62 494 m 1,0,-1
 66 520 l 1,1,-1
 164 520 l 1,2,-1
 194 701 l 1,3,-1
 224 701 l 1,4,-1
 194 520 l 1,5,-1
 329 520 l 1,6,-1
 325 494 l 1,7,-1
 190 494 l 1,8,-1
 131 137 l 2,9,10
 121 78 121 78 138 52 c 128,-1,11
 155 26 155 26 202 26 c 0,12,13
 204 26 204 26 206 26 c 2,14,-1
 248 27 l 1,15,-1
 243 0 l 1,16,-1
 198 0 l 2,17,18
 194 0 194 0 191 0 c 0,19,20
 138 0 138 0 113.5 31.5 c 128,-1,21
 89 63 89 63 100 131 c 2,22,-1
 160 494 l 1,23,-1
 62 494 l 1,0,-1
EndSplineSet
EndChar

StartChar: u
Encoding: 117 117 88
Width: 539
GlyphClass: 2
Flags: W
LayerCount: 2
Fore
SplineSet
69 177 m 2,0,-1
 126 520 l 1,1,-1
 154 520 l 1,2,-1
 99 191 l 2,3,4
 86 111 86 111 108 58.5 c 128,-1,5
 130 6 130 6 204 6 c 0,6,7
 288 6 288 6 342 69 c 128,-1,8
 396 132 396 132 411 219 c 2,9,-1
 461 520 l 1,10,-1
 488 520 l 1,11,-1
 402 0 l 1,12,-1
 375 0 l 1,13,-1
 393 113 l 1,14,15
 377 65 377 65 324.5 23 c 128,-1,16
 272 -19 272 -19 194 -19 c 256,17,18
 116 -19 116 -19 85 35 c 128,-1,19
 54 89 54 89 69 177 c 2,0,-1
EndSplineSet
EndChar

StartChar: v
Encoding: 118 118 89
Width: 450
GlyphClass: 2
Flags: W
LayerCount: 2
Fore
SplineSet
55 520 m 1,0,-1
 86 520 l 1,1,-1
 162 140 l 2,2,3
 167 117 167 117 174.5 77.5 c 128,-1,4
 182 38 182 38 184 26 c 1,5,-1
 186 26 l 1,6,7
 199 50 199 50 245 140 c 2,8,-1
 443 520 l 1,9,-1
 477 520 l 1,10,-1
 198 0 l 1,11,-1
 160 0 l 1,12,-1
 55 520 l 1,0,-1
EndSplineSet
EndChar

StartChar: w
Encoding: 119 119 90
Width: 657
GlyphClass: 2
Flags: W
LayerCount: 2
Fore
SplineSet
52 520 m 1,0,-1
 85 520 l 1,1,-1
 125 130 l 2,2,3
 127 112 127 112 133 27 c 1,4,-1
 136 27 l 1,5,6
 143 46 143 46 158 81 c 128,-1,7
 173 116 173 116 179 130 c 2,8,-1
 349 520 l 1,9,-1
 387 520 l 1,10,-1
 429 130 l 2,11,12
 439 36 439 36 440 28 c 1,13,-1
 441 28 l 1,14,15
 447 42 447 42 462 76 c 128,-1,16
 477 110 477 110 484 130 c 2,17,-1
 653 520 l 1,18,-1
 686 520 l 1,19,-1
 455 0 l 1,20,-1
 417 0 l 1,21,-1
 374 377 l 2,22,23
 370 415 370 415 364 488 c 1,24,-1
 361 488 l 1,25,26
 326 401 326 401 315 377 c 2,27,-1
 149 0 l 1,28,-1
 109 0 l 1,29,-1
 52 520 l 1,0,-1
EndSplineSet
Substitution2: "'sups' Superscript lookup 5 subtable" uni02B7
Substitution2: "'aalt' Access All Alternates lookup 0 subtable" uni02B7
EndChar

StartChar: x
Encoding: 120 120 91
Width: 406
GlyphClass: 2
Flags: W
LayerCount: 2
Fore
SplineSet
-42 0 m 1,0,-1
 182 271 l 1,1,-1
 56 520 l 1,2,-1
 90 520 l 1,3,-1
 171 361 l 2,4,5
 189 325 189 325 205 294 c 1,6,-1
 206 294 l 1,7,8
 213 304 213 304 232.5 326 c 128,-1,9
 252 348 252 348 260 361 c 2,10,-1
 392 520 l 1,11,-1
 429 520 l 1,12,-1
 220 270 l 1,13,-1
 355 0 l 1,14,-1
 319 0 l 1,15,-1
 230 182 l 2,16,17
 229 185 229 185 216 210.5 c 128,-1,18
 203 236 203 236 198 248 c 1,19,-1
 197 248 l 1,20,21
 189 238 189 238 170.5 216 c 128,-1,22
 152 194 152 194 142 182 c 2,23,-1
 -5 0 l 1,24,-1
 -42 0 l 1,0,-1
EndSplineSet
Substitution2: "'sups' Superscript lookup 5 subtable" uni02E3
Substitution2: "'aalt' Access All Alternates lookup 0 subtable" uni02E3
EndChar

StartChar: y
Encoding: 121 121 92
Width: 441
GlyphClass: 2
Flags: W
LayerCount: 2
Fore
SplineSet
52 520 m 1,0,-1
 85 520 l 1,1,-1
 153 140 l 2,2,3
 157 119 157 119 164.5 76 c 128,-1,4
 172 33 172 33 176 11 c 1,5,-1
 178 11 l 1,6,7
 228 107 228 107 245 143 c 2,8,-1
 434 520 l 1,9,-1
 467 520 l 1,10,-1
 145 -108 l 2,11,12
 107 -182 107 -182 71.5 -213 c 128,-1,13
 36 -244 36 -244 -4 -244 c 2,14,-1
 -26 -244 l 1,15,-1
 -22 -217 l 1,16,-1
 -4 -217 l 2,17,18
 63 -217 63 -217 120 -99 c 2,19,-1
 155 -28 l 1,20,-1
 52 520 l 1,0,-1
EndSplineSet
Substitution2: "'sups' Superscript lookup 5 subtable" uni02B8
Substitution2: "'aalt' Access All Alternates lookup 0 subtable" uni02B8
EndChar

StartChar: z
Encoding: 122 122 93
Width: 446
GlyphClass: 2
Flags: W
LayerCount: 2
Fore
SplineSet
-6 0 m 1,0,-1
 -2 23 l 1,1,-1
 397 494 l 1,2,-1
 100 494 l 1,3,-1
 105 520 l 1,4,-1
 435 520 l 1,5,-1
 432 497 l 1,6,-1
 33 26 l 1,7,-1
 365 26 l 1,8,-1
 361 0 l 1,9,-1
 -6 0 l 1,0,-1
EndSplineSet
EndChar

StartChar: braceleft
Encoding: 123 123 94
Width: 450
GlyphClass: 2
Flags: W
LayerCount: 2
Fore
SplineSet
91 332 m 1,0,-1
 95 357 l 1,1,-1
 118 357 l 2,2,3
 211 357 211 357 239 521 c 2,4,-1
 272 725 l 2,5,6
 281 779 281 779 314 809 c 128,-1,7
 347 839 347 839 385 839 c 2,8,-1
 454 839 l 1,9,-1
 450 813 l 1,10,-1
 388 813 l 2,11,12
 359 813 359 813 334 788 c 128,-1,13
 309 763 309 763 301 716 c 2,14,-1
 268 514 l 2,15,16
 247 385 247 385 165 343 c 1,17,18
 197 330 197 330 210.5 288 c 128,-1,19
 224 246 224 246 213 182 c 2,20,-1
 182 -5 l 2,21,22
 173 -58 173 -58 189 -84.5 c 128,-1,23
 205 -111 205 -111 237 -111 c 2,24,-1
 297 -111 l 1,25,-1
 293 -136 l 1,26,-1
 225 -136 l 2,27,28
 188 -136 188 -136 163.5 -107.5 c 128,-1,29
 139 -79 139 -79 149 -22 c 2,30,-1
 180 169 l 2,31,32
 193 250 193 250 175.5 291 c 128,-1,33
 158 332 158 332 114 332 c 2,34,-1
 91 332 l 1,0,-1
EndSplineSet
EndChar

StartChar: bar
Encoding: 124 124 95
Width: 216
GlyphClass: 2
Flags: W
LayerCount: 2
Fore
SplineSet
19 -168 m 1,0,-1
 190 867 l 1,1,-1
 221 867 l 1,2,-1
 49 -168 l 1,3,-1
 19 -168 l 1,0,-1
EndSplineSet
EndChar

StartChar: braceright
Encoding: 125 125 96
Width: 450
GlyphClass: 2
Flags: W
LayerCount: 2
Fore
SplineSet
23 -111 m 1,0,-1
 83 -111 l 2,1,2
 115 -111 115 -111 140 -84.5 c 128,-1,3
 165 -58 165 -58 174 -5 c 2,4,-1
 206 187 l 2,5,6
 216 247 216 247 243 289 c 128,-1,7
 270 331 270 331 305 343 c 1,8,9
 238 384 238 384 259 509 c 2,10,-1
 293 716 l 2,11,12
 301 763 301 763 284.5 788 c 128,-1,13
 268 813 268 813 238 813 c 2,14,-1
 176 813 l 1,15,-1
 180 839 l 1,16,-1
 249 839 l 2,17,18
 288 839 288 839 310.5 809.5 c 128,-1,19
 333 780 333 780 324 725 c 2,20,-1
 290 521 l 2,21,22
 277 442 277 442 293.5 399.5 c 128,-1,23
 310 357 310 357 356 357 c 2,24,-1
 380 357 l 1,25,-1
 376 332 l 1,26,-1
 352 332 l 2,27,28
 307 332 307 332 276 289 c 128,-1,29
 245 246 245 246 233 176 c 2,30,-1
 200 -22 l 2,31,32
 191 -79 191 -79 158 -107.5 c 128,-1,33
 125 -136 125 -136 85 -136 c 2,34,-1
 19 -136 l 1,35,-1
 23 -111 l 1,0,-1
EndSplineSet
EndChar

StartChar: asciitilde
Encoding: 126 126 97
Width: 711
GlyphClass: 2
Flags: W
LayerCount: 2
Fore
SplineSet
79 317 m 1,0,1
 159 431 159 431 259 431 c 0,2,3
 294 431 294 431 319.5 417 c 128,-1,4
 345 403 345 403 361 383.5 c 128,-1,5
 377 364 377 364 392.5 344 c 128,-1,6
 408 324 408 324 430 310 c 128,-1,7
 452 296 452 296 481 296 c 0,8,9
 506 296 506 296 529.5 305.5 c 128,-1,10
 553 315 553 315 574 335 c 128,-1,11
 595 355 595 355 606.5 367 c 128,-1,12
 618 379 618 379 636 404 c 1,13,-1
 657 391 l 1,14,15
 618 338 618 338 575 304 c 128,-1,16
 532 270 532 270 477 270 c 0,17,18
 443 270 443 270 417 284 c 128,-1,19
 391 298 391 298 375.5 318 c 128,-1,20
 360 338 360 338 344.5 357.5 c 128,-1,21
 329 377 329 377 306.5 391 c 128,-1,22
 284 405 284 405 253 405 c 0,23,24
 176 405 176 405 101 304 c 1,25,-1
 79 317 l 1,0,1
EndSplineSet
EndChar

StartChar: exclamdown
Encoding: 161 161 99
Width: 294
GlyphClass: 2
Flags: W
LayerCount: 2
Fore
SplineSet
44 -219 m 1,0,-1
 139 306 l 1,1,-1
 165 306 l 1,2,-1
 84 -219 l 1,3,-1
 44 -219 l 1,0,-1
130 440 m 1,4,-1
 144 524 l 1,5,-1
 229 524 l 1,6,-1
 215 440 l 1,7,-1
 130 440 l 1,4,-1
EndSplineSet
EndChar

StartChar: cent
Encoding: 162 162 100
Width: 484
GlyphClass: 2
Flags: W
LayerCount: 2
Fore
SplineSet
50 260 m 0,0,1
 69 377 69 377 137.5 456 c 128,-1,2
 206 535 206 535 304 537 c 1,3,-1
 318 618 l 1,4,-1
 349 618 l 1,5,-1
 336 536 l 1,6,7
 388 530 388 530 421.5 499.5 c 128,-1,8
 455 469 455 469 464 424 c 1,9,-1
 436 415 l 1,10,11
 425 457 425 457 391 485 c 128,-1,12
 357 513 357 513 309 513 c 0,13,14
 224 513 224 513 161 442 c 128,-1,15
 98 371 98 371 79 260 c 0,16,17
 60 147 60 147 101 76.5 c 128,-1,18
 142 6 142 6 225 6 c 0,19,20
 276 6 276 6 324 37 c 128,-1,21
 372 68 372 68 400 110 c 1,22,-1
 424 100 l 1,23,24
 393 54 393 54 346.5 21.5 c 128,-1,25
 300 -11 300 -11 244 -18 c 1,26,-1
 230 -100 l 1,27,-1
 199 -100 l 1,28,-1
 212 -19 l 1,29,30
 120 -17 120 -17 74.5 58.5 c 128,-1,31
 29 134 29 134 50 260 c 0,0,1
EndSplineSet
EndChar

StartChar: sterling
Encoding: 163 163 101
Width: 540
GlyphClass: 2
Flags: W
LayerCount: 2
Fore
SplineSet
46 351 m 1,0,-1
 50 378 l 1,1,-1
 166 378 l 1,2,-1
 198 570 l 2,3,4
 213 661 213 661 268 708 c 128,-1,5
 323 755 323 755 405 755 c 0,6,7
 461 755 461 755 498 727.5 c 128,-1,8
 535 700 535 700 549 660 c 1,9,-1
 525 648 l 1,10,11
 492 728 492 728 402 728 c 0,12,13
 332 728 332 728 286 688 c 128,-1,14
 240 648 240 648 227 568 c 2,15,-1
 195 378 l 1,16,-1
 434 378 l 1,17,-1
 430 351 l 1,18,-1
 191 351 l 1,19,-1
 166 201 l 2,20,21
 146 80 146 80 62 22 c 1,22,23
 144 41 144 41 191 41 c 0,24,25
 225 41 225 41 269.5 24.5 c 128,-1,26
 314 8 314 8 344 8 c 0,27,28
 420 8 420 8 478 38 c 1,29,-1
 484 12 l 1,30,31
 420 -19 420 -19 338 -19 c 0,32,33
 310 -19 310 -19 262 -2.5 c 128,-1,34
 214 14 214 14 182 14 c 256,35,36
 150 14 150 14 104.5 7 c 128,-1,37
 59 0 59 0 31 -7 c 2,38,-1
 2 -15 l 1,39,-1
 -5 11 l 1,40,41
 53 32 53 32 89.5 86 c 128,-1,42
 126 140 126 140 136 201 c 2,43,-1
 161 351 l 1,44,-1
 46 351 l 1,0,-1
EndSplineSet
EndChar

StartChar: currency
Encoding: 164 164 102
Width: 606
GlyphClass: 2
Flags: W
LayerCount: 2
Fore
SplineSet
12 133 m 1,0,-1
 137 237 l 1,1,2
 98 289 98 289 111 367 c 256,3,4
 124 445 124 445 180 498 c 1,5,-1
 89 599 l 1,6,-1
 113 620 l 1,7,-1
 203 520 l 1,8,9
 270 570 270 570 352 570 c 256,10,11
 434 570 434 570 485 518 c 1,12,-1
 607 619 l 1,13,-1
 623 598 l 1,14,-1
 500 498 l 1,15,16
 540 442 540 442 527 367 c 0,17,18
 515 294 515 294 457 237 c 1,19,-1
 546 133 l 1,20,-1
 525 114 l 1,21,-1
 435 215 l 1,22,23
 372 164 372 164 285 164 c 0,24,25
 202 164 202 164 151 215 c 1,26,-1
 29 115 l 1,27,-1
 12 133 l 1,0,-1
140 367 m 0,28,29
 128 294 128 294 170 242.5 c 128,-1,30
 212 191 212 191 289 191 c 0,31,32
 365 191 365 191 425.5 242.5 c 128,-1,33
 486 294 486 294 498 367 c 0,34,35
 510 441 510 441 467 492.5 c 128,-1,36
 424 544 424 544 348 544 c 0,37,38
 273 544 273 544 212.5 492.5 c 128,-1,39
 152 441 152 441 140 367 c 0,28,29
EndSplineSet
EndChar

StartChar: yen
Encoding: 165 165 103
Width: 544
GlyphClass: 2
Flags: W
LayerCount: 2
Fore
SplineSet
73 735 m 1,0,-1
 109 735 l 1,1,-1
 237 456 l 2,2,3
 242 444 242 444 260 406.5 c 128,-1,4
 278 369 278 369 284 355 c 1,5,-1
 286 355 l 1,6,7
 297 369 297 369 324.5 404 c 128,-1,8
 352 439 352 439 363 453 c 2,9,-1
 585 735 l 1,10,-1
 623 735 l 1,11,-1
 320 353 l 1,12,-1
 499 353 l 1,13,-1
 495 329 l 1,14,-1
 296 329 l 1,15,-1
 278 221 l 1,16,-1
 477 221 l 1,17,-1
 473 196 l 1,18,-1
 274 196 l 1,19,-1
 241 0 l 1,20,-1
 212 0 l 1,21,-1
 244 196 l 1,22,-1
 41 196 l 1,23,-1
 46 221 l 1,24,-1
 248 221 l 1,25,-1
 266 329 l 1,26,-1
 63 329 l 1,27,-1
 67 353 l 1,28,-1
 250 353 l 1,29,-1
 73 735 l 1,0,-1
EndSplineSet
EndChar

StartChar: brokenbar
Encoding: 166 166 104
Width: 216
GlyphClass: 2
Flags: W
LayerCount: 2
Fore
SplineSet
125 471 m 1,0,-1
 190 867 l 1,1,-1
 221 867 l 1,2,-1
 155 471 l 1,3,-1
 125 471 l 1,0,-1
19 -168 m 1,4,-1
 84 225 l 1,5,-1
 114 225 l 1,6,-1
 49 -168 l 1,7,-1
 19 -168 l 1,4,-1
EndSplineSet
EndChar

StartChar: section
Encoding: 167 167 105
Width: 553
GlyphClass: 2
Flags: W
LayerCount: 2
Fore
SplineSet
127 361 m 0,0,1
 120 317 120 317 140 293 c 128,-1,2
 160 269 160 269 220 239 c 2,3,-1
 344 178 l 1,4,5
 439 244 439 244 451 316 c 0,6,7
 457 353 457 353 433 378 c 128,-1,8
 409 403 409 403 344 441 c 2,9,-1
 254 495 l 1,10,11
 211 469 211 469 193 456.5 c 128,-1,12
 175 444 175 444 153.5 417.5 c 128,-1,13
 132 391 132 391 127 361 c 0,0,1
34 32 m 1,14,-1
 60 49 l 1,15,16
 76 10 76 10 115 -11 c 128,-1,17
 154 -32 154 -32 206 -32 c 0,18,19
 277 -32 277 -32 319 -5.5 c 128,-1,20
 361 21 361 21 369 67 c 0,21,22
 375 106 375 106 356.5 129 c 128,-1,23
 338 152 338 152 287 176 c 2,24,-1
 188 224 l 2,25,26
 135 250 135 250 111.5 280 c 128,-1,27
 88 310 88 310 95 357 c 0,28,29
 100 386 100 386 113.5 409 c 128,-1,30
 127 432 127 432 149.5 452 c 128,-1,31
 172 472 172 472 188.5 482.5 c 128,-1,32
 205 493 205 493 233 509 c 1,33,34
 163 566 163 566 174 628 c 0,35,36
 184 688 184 688 234 721.5 c 128,-1,37
 284 755 284 755 371 755 c 0,38,39
 430 755 430 755 474.5 730 c 128,-1,40
 519 705 519 705 538 659 c 1,41,-1
 514 648 l 1,42,43
 469 728 469 728 367 728 c 0,44,45
 291 728 291 728 251.5 700.5 c 128,-1,46
 212 673 212 673 205 630 c 0,47,48
 202 612 202 612 205 596 c 128,-1,49
 208 580 208 580 222 564 c 128,-1,50
 236 548 236 548 243.5 538.5 c 128,-1,51
 251 529 251 529 278 512.5 c 128,-1,52
 305 496 305 496 312.5 492 c 128,-1,53
 320 488 320 488 352 470 c 2,54,-1
 363 464 l 2,55,56
 434 424 434 424 461.5 392.5 c 128,-1,57
 489 361 489 361 482 316 c 0,58,59
 468 231 468 231 367 161 c 1,60,61
 409 127 409 127 399 67 c 0,62,63
 390 12 390 12 340.5 -23 c 128,-1,64
 291 -58 291 -58 202 -58 c 0,65,66
 80 -58 80 -58 34 32 c 1,14,-1
EndSplineSet
EndChar

StartChar: dieresis
Encoding: 168 168 106
Width: 420
GlyphClass: 2
Flags: W
LayerCount: 2
Fore
SplineSet
161 667 m 1,0,-1
 172 735 l 1,1,-1
 242 735 l 1,2,-1
 230 667 l 1,3,-1
 161 667 l 1,0,-1
320 667 m 1,4,-1
 331 735 l 1,5,-1
 398 735 l 1,6,-1
 387 667 l 1,7,-1
 320 667 l 1,4,-1
EndSplineSet
EndChar

StartChar: copyright
Encoding: 169 169 107
Width: 881
GlyphClass: 2
Flags: W
LayerCount: 2
Fore
SplineSet
284 372 m 0,0,1
 301 476 301 476 361.5 544.5 c 128,-1,2
 422 613 422 613 511 613 c 0,3,4
 553 613 553 613 588.5 589.5 c 128,-1,5
 624 566 624 566 642 511 c 1,6,-1
 612 501 l 1,7,8
 602 539 602 539 573.5 562 c 128,-1,9
 545 585 545 585 506 585 c 0,10,11
 434 585 434 585 382 526 c 128,-1,12
 330 467 330 467 314 372 c 0,13,14
 298 275 298 275 331.5 216.5 c 128,-1,15
 365 158 365 158 435 158 c 0,16,17
 480 158 480 158 518.5 184 c 128,-1,18
 557 210 557 210 582 248 c 1,19,-1
 608 237 l 1,20,21
 578 192 578 192 531.5 161.5 c 128,-1,22
 485 131 485 131 431 131 c 0,23,24
 349 131 349 131 307.5 196.5 c 128,-1,25
 266 262 266 262 284 372 c 0,0,1
72 375 m 0,26,27
 99 541 99 541 227 652 c 128,-1,28
 355 763 355 763 520 763 c 0,29,30
 686 763 686 763 777 653 c 128,-1,31
 868 543 868 543 840 375 c 0,32,33
 813 212 813 212 685.5 99 c 128,-1,34
 558 -14 558 -14 391 -14 c 0,35,36
 227 -14 227 -14 136 98 c 128,-1,37
 45 210 45 210 72 375 c 0,26,27
98 375 m 0,38,39
 73 226 73 226 155.5 118 c 128,-1,40
 238 10 238 10 395 10 c 0,41,42
 553 10 553 10 671.5 118 c 128,-1,43
 790 226 790 226 814 375 c 0,44,45
 839 526 839 526 755.5 632.5 c 128,-1,46
 672 739 672 739 516 739 c 0,47,48
 363 739 363 739 243 634 c 128,-1,49
 123 529 123 529 98 375 c 0,38,39
EndSplineSet
EndChar

StartChar: ordfeminine
Encoding: 170 170 108
Width: 377
GlyphClass: 2
Flags: W
LayerCount: 2
Fore
SplineSet
43 348 m 1,0,-1
 48 373 l 1,1,-1
 358 373 l 1,2,-1
 354 348 l 1,3,-1
 43 348 l 1,0,-1
103 550 m 0,4,5
 98 521 98 521 120 498.5 c 128,-1,6
 142 476 142 476 188 476 c 0,7,8
 243 476 243 476 290 513 c 128,-1,9
 337 550 337 550 346 606 c 2,10,-1
 357 673 l 1,11,12
 332 663 332 663 283 655 c 128,-1,13
 234 647 234 647 201 640 c 128,-1,14
 168 633 168 633 138.5 610.5 c 128,-1,15
 109 588 109 588 103 550 c 0,4,5
77 549 m 0,16,17
 85 596 85 596 120.5 624.5 c 128,-1,18
 156 653 156 653 194.5 660.5 c 128,-1,19
 233 668 233 668 285 677.5 c 128,-1,20
 337 687 337 687 361 698 c 1,21,-1
 363 713 l 2,22,23
 370 758 370 758 346.5 786 c 128,-1,24
 323 814 323 814 271 814 c 0,25,26
 229 814 229 814 194.5 792.5 c 128,-1,27
 160 771 160 771 148 754 c 1,28,-1
 129 766 l 1,29,30
 155 797 155 797 195 817.5 c 128,-1,31
 235 838 235 838 275 838 c 0,32,33
 343 838 343 838 371.5 802.5 c 128,-1,34
 400 767 400 767 391 711 c 2,35,-1
 350 465 l 1,36,-1
 324 465 l 1,37,-1
 335 530 l 1,38,39
 311 497 311 497 270.5 474.5 c 128,-1,40
 230 452 230 452 183 452 c 0,41,42
 127 452 127 452 98.5 479 c 128,-1,43
 70 506 70 506 77 549 c 0,16,17
EndSplineSet
EndChar

StartChar: guillemotleft
Encoding: 171 171 109
Width: 397
GlyphClass: 2
Flags: W
LayerCount: 2
Fore
SplineSet
27 252 m 1,0,-1
 218 471 l 1,1,-1
 238 456 l 1,2,-1
 61 252 l 1,3,-1
 169 46 l 1,4,-1
 143 30 l 1,5,-1
 27 252 l 1,0,-1
180 252 m 1,6,-1
 371 470 l 1,7,-1
 391 454 l 1,8,-1
 215 252 l 1,9,-1
 323 47 l 1,10,-1
 298 31 l 1,11,-1
 180 252 l 1,6,-1
EndSplineSet
EndChar

StartChar: logicalnot
Encoding: 172 172 110
Width: 524
GlyphClass: 2
Flags: W
LayerCount: 2
Fore
SplineSet
57 339 m 1,0,-1
 62 365 l 1,1,-1
 491 365 l 1,2,-1
 452 129 l 1,3,-1
 421 129 l 1,4,-1
 456 339 l 1,5,-1
 57 339 l 1,0,-1
EndSplineSet
EndChar

StartChar: uni00AD
Encoding: 173 173 111
Width: 542
GlyphClass: 2
Flags: W
LayerCount: 2
Fore
SplineSet
73 348 m 1,0,-1
 78 375 l 1,1,-1
 497 375 l 1,2,-1
 493 348 l 1,3,-1
 73 348 l 1,0,-1
EndSplineSet
EndChar

StartChar: registered
Encoding: 174 174 112
Width: 881
GlyphClass: 2
Flags: W
LayerCount: 2
Fore
SplineSet
297 148 m 1,0,-1
 372 599 l 1,1,-1
 528 599 l 2,2,3
 588 599 588 599 617 563.5 c 128,-1,4
 646 528 646 528 637 477 c 0,5,6
 623 393 623 393 540 364 c 1,7,8
 571 343 571 343 577 281 c 0,9,10
 578 273 578 273 579 247.5 c 128,-1,11
 580 222 580 222 581 211 c 128,-1,12
 582 200 582 200 586.5 181 c 128,-1,13
 591 162 591 162 596 148 c 1,14,-1
 560 148 l 1,15,16
 555 161 555 161 552 178 c 128,-1,17
 549 195 549 195 548 207 c 128,-1,18
 547 219 547 219 546 240 c 128,-1,19
 545 261 545 261 544 270 c 0,20,21
 541 310 541 310 528 331 c 128,-1,22
 515 352 515 352 479 352 c 2,23,-1
 363 352 l 1,24,-1
 329 148 l 1,25,-1
 297 148 l 1,0,-1
367 380 m 1,26,-1
 486 380 l 2,27,28
 532 380 532 380 564 406 c 128,-1,29
 596 432 596 432 603 475 c 0,30,31
 610 517 610 517 590 544.5 c 128,-1,32
 570 572 570 572 518 572 c 2,33,-1
 399 572 l 1,34,-1
 367 380 l 1,26,-1
72 374 m 0,35,36
 100 541 100 541 228 652 c 128,-1,37
 356 763 356 763 520 763 c 0,38,39
 686 763 686 763 777 653 c 128,-1,40
 868 543 868 543 840 374 c 0,41,42
 813 211 813 211 686.5 98.5 c 128,-1,43
 560 -14 560 -14 391 -14 c 0,44,45
 227 -14 227 -14 136 97.5 c 128,-1,46
 45 209 45 209 72 374 c 0,35,36
98 374 m 0,47,48
 73 225 73 225 155 117.5 c 128,-1,49
 237 10 237 10 395 10 c 256,50,51
 553 10 553 10 671.5 118 c 128,-1,52
 790 226 790 226 814 374 c 0,53,54
 839 524 839 524 756 631.5 c 128,-1,55
 673 739 673 739 516 739 c 0,56,57
 363 739 363 739 243 633.5 c 128,-1,58
 123 528 123 528 98 374 c 0,47,48
EndSplineSet
EndChar

StartChar: macron
Encoding: 175 175 113
Width: 515
GlyphClass: 2
Flags: W
LayerCount: 2
Fore
SplineSet
85 797 m 1,0,-1
 89 823 l 1,1,-1
 606 823 l 1,2,-1
 601 797 l 1,3,-1
 85 797 l 1,0,-1
EndSplineSet
EndChar

StartChar: degree
Encoding: 176 176 114
Width: 393
GlyphClass: 2
Flags: W
LayerCount: 2
Fore
SplineSet
140 633 m 0,0,1
 147 677 147 677 185 710 c 128,-1,2
 223 743 223 743 274 743 c 0,3,4
 322 743 322 743 349.5 712 c 128,-1,5
 377 681 377 681 369 633 c 0,6,7
 361 584 361 584 322.5 552 c 128,-1,8
 284 520 284 520 237 520 c 0,9,10
 189 520 189 520 160.5 552.5 c 128,-1,11
 132 585 132 585 140 633 c 0,0,1
164 633 m 0,12,13
 157 593 157 593 179 568 c 128,-1,14
 201 543 201 543 240 543 c 0,15,16
 276 543 276 543 307 569 c 128,-1,17
 338 595 338 595 345 633 c 0,18,19
 351 670 351 670 331 695 c 128,-1,20
 311 720 311 720 270 720 c 0,21,22
 228 720 228 720 199 695 c 128,-1,23
 170 670 170 670 164 633 c 0,12,13
EndSplineSet
EndChar

StartChar: plusminus
Encoding: 177 177 115
Width: 545
GlyphClass: 2
Flags: W
LayerCount: 2
Fore
SplineSet
64 412 m 1,0,-1
 68 439 l 1,1,-1
 285 439 l 1,2,-1
 319 646 l 1,3,-1
 348 646 l 1,4,-1
 313 439 l 1,5,-1
 530 439 l 1,6,-1
 526 412 l 1,7,-1
 309 412 l 1,8,-1
 275 205 l 1,9,-1
 246 205 l 1,10,-1
 281 412 l 1,11,-1
 64 412 l 1,0,-1
13 86 m 1,12,-1
 17 112 l 1,13,-1
 473 112 l 1,14,-1
 469 86 l 1,15,-1
 13 86 l 1,12,-1
EndSplineSet
EndChar

StartChar: twosuperior
Encoding: 178 178 116
Width: 301
GlyphClass: 2
Flags: W
LayerCount: 2
Fore
SplineSet
106 738 m 1,0,1
 122 778 122 778 156 807.5 c 128,-1,2
 190 837 190 837 243 837 c 0,3,4
 292 837 292 837 318.5 808 c 128,-1,5
 345 779 345 779 337 727 c 0,6,7
 327 664 327 664 252 604 c 0,8,9
 169 536 169 536 135.5 504 c 128,-1,10
 102 472 102 472 90 444 c 1,11,-1
 290 444 l 1,12,-1
 286 421 l 1,13,-1
 56 421 l 1,14,15
 56 423 56 423 56 425 c 0,16,17
 59 441 59 441 68.5 458 c 128,-1,18
 78 475 78 475 102 499.5 c 128,-1,19
 126 524 126 524 139 536.5 c 128,-1,20
 152 549 152 549 190.5 581 c 128,-1,21
 229 613 229 613 239 622 c 0,22,23
 303 678 303 678 311 727 c 0,24,25
 318 768 318 768 297.5 790.5 c 128,-1,26
 277 813 277 813 238 813 c 0,27,28
 166 813 166 813 129 733 c 1,29,-1
 106 738 l 1,0,1
EndSplineSet
EndChar

StartChar: threesuperior
Encoding: 179 179 117
Width: 302
GlyphClass: 2
Flags: W
LayerCount: 2
Fore
SplineSet
58 483 m 1,0,-1
 81 496 l 1,1,2
 106 435 106 435 169 435 c 0,3,4
 212 435 212 435 245.5 459.5 c 128,-1,5
 279 484 279 484 287 533 c 0,6,7
 293 572 293 572 272 599 c 128,-1,8
 251 626 251 626 188 626 c 0,9,10
 183 626 183 626 166 624 c 1,11,-1
 170 650 l 1,12,13
 179 649 179 649 191 649 c 0,14,15
 246 649 246 649 272.5 674.5 c 128,-1,16
 299 700 299 700 305 734 c 0,17,18
 311 769 311 769 291 791.5 c 128,-1,19
 271 814 271 814 233 814 c 0,20,21
 179 814 179 814 135 751 c 1,22,-1
 114 759 l 1,23,24
 162 838 162 838 237 838 c 0,25,26
 288 838 288 838 312.5 808.5 c 128,-1,27
 337 779 337 779 330 735 c 0,28,29
 319 667 319 667 253 639 c 1,30,31
 326 613 326 613 313 533 c 0,32,33
 303 474 303 474 262 442.5 c 128,-1,34
 221 411 221 411 165 411 c 0,35,36
 87 411 87 411 58 483 c 1,0,-1
EndSplineSet
EndChar

StartChar: acute
Encoding: 180 180 118
Width: 308
GlyphClass: 2
Flags: W
LayerCount: 2
Fore
SplineSet
144 662 m 1,0,-1
 288 836 l 1,1,-1
 341 836 l 1,2,-1
 177 662 l 1,3,-1
 144 662 l 1,0,-1
EndSplineSet
EndChar

StartChar: uni00B5
Encoding: 181 181 119
Width: 557
GlyphClass: 2
Flags: W
LayerCount: 2
Fore
SplineSet
7 -244 m 1,0,-1
 134 520 l 1,1,-1
 164 520 l 1,2,-1
 108 185 l 2,3,4
 95 107 95 107 120.5 56.5 c 128,-1,5
 146 6 146 6 216 6 c 0,6,7
 300 6 300 6 357 69.5 c 128,-1,8
 414 133 414 133 428 219 c 2,9,-1
 478 520 l 1,10,-1
 506 520 l 1,11,-1
 420 0 l 1,12,-1
 393 0 l 1,13,-1
 412 113 l 1,14,-1
 410 113 l 1,15,16
 389 62 389 62 336.5 21.5 c 128,-1,17
 284 -19 284 -19 209 -19 c 0,18,19
 112 -19 112 -19 89 67 c 1,20,-1
 37 -244 l 1,21,-1
 7 -244 l 1,0,-1
EndSplineSet
EndChar

StartChar: paragraph
Encoding: 182 182 120
Width: 618
GlyphClass: 2
Flags: W
LayerCount: 2
Fore
SplineSet
113 553 m 0,0,1
 130 654 130 654 191.5 716 c 128,-1,2
 253 778 253 778 344 778 c 2,3,-1
 606 778 l 1,4,-1
 465 -71 l 1,5,-1
 439 -71 l 1,6,-1
 574 747 l 1,7,-1
 439 747 l 1,8,-1
 303 -71 l 1,9,-1
 276 -71 l 1,10,-1
 345 344 l 1,11,12
 295 330 295 330 257 330 c 0,13,14
 180 330 180 330 137.5 388.5 c 128,-1,15
 95 447 95 447 113 553 c 0,0,1
EndSplineSet
EndChar

StartChar: periodcentered
Encoding: 183 183 121
Width: 318
GlyphClass: 2
Flags: W
LayerCount: 2
Fore
SplineSet
122 309 m 1,0,-1
 137 394 l 1,1,-1
 220 394 l 1,2,-1
 206 309 l 1,3,-1
 122 309 l 1,0,-1
EndSplineSet
EndChar

StartChar: cedilla
Encoding: 184 184 122
Width: 276
GlyphClass: 2
Flags: W
LayerCount: 2
Fore
SplineSet
-35 -198 m 1,0,1
 14 -208 14 -208 28 -208 c 0,2,3
 113 -208 113 -208 123 -150 c 0,4,5
 131 -102 131 -102 32 -87 c 1,6,-1
 79 -15 l 1,7,-1
 108 -15 l 1,8,-1
 72 -70 l 1,9,10
 161 -86 161 -86 151 -151 c 0,11,12
 144 -191 144 -191 111.5 -212.5 c 128,-1,13
 79 -234 79 -234 25 -234 c 0,14,15
 -4 -234 -4 -234 -39 -221 c 1,16,-1
 -35 -198 l 1,0,1
EndSplineSet
EndChar

StartChar: onesuperior
Encoding: 185 185 123
Width: 292
GlyphClass: 2
Flags: W
LayerCount: 2
Fore
SplineSet
138 752 m 1,0,-1
 142 773 l 1,1,-1
 167 773 l 2,2,3
 204 773 204 773 217 779.5 c 128,-1,4
 230 786 230 786 234 807 c 2,5,-1
 238 834 l 1,6,-1
 261 834 l 1,7,-1
 191 415 l 1,8,-1
 165 415 l 1,9,-1
 221 752 l 1,10,-1
 138 752 l 1,0,-1
EndSplineSet
EndChar

StartChar: ordmasculine
Encoding: 186 186 124
Width: 377
GlyphClass: 2
Flags: W
LayerCount: 2
Fore
SplineSet
123 646 m 256,0,1
 111 572 111 572 137 524 c 128,-1,2
 163 476 163 476 219 476 c 256,3,4
 276 476 276 476 319 524.5 c 128,-1,5
 362 573 362 573 374 646 c 256,6,7
 386 719 386 719 359 766.5 c 128,-1,8
 332 814 332 814 275 814 c 0,9,10
 220 814 220 814 177.5 767 c 128,-1,11
 135 720 135 720 123 646 c 256,0,1
95 646 m 0,12,13
 109 730 109 730 159 784 c 128,-1,14
 209 838 209 838 279 838 c 256,15,16
 349 838 349 838 381.5 784 c 128,-1,17
 414 730 414 730 400 646 c 0,18,19
 387 566 387 566 337.5 509 c 128,-1,20
 288 452 288 452 215 452 c 256,21,22
 142 452 142 452 112 509 c 128,-1,23
 82 566 82 566 95 646 c 0,12,13
43 348 m 1,24,-1
 48 373 l 1,25,-1
 358 373 l 1,26,-1
 354 348 l 1,27,-1
 43 348 l 1,24,-1
EndSplineSet
EndChar

StartChar: guillemotright
Encoding: 187 187 125
Width: 397
GlyphClass: 2
Flags: W
LayerCount: 2
Fore
SplineSet
63 454 m 1,0,-1
 88 470 l 1,1,-1
 207 252 l 1,2,-1
 16 31 l 1,3,-1
 -2 47 l 1,4,-1
 173 252 l 1,5,-1
 63 454 l 1,0,-1
150 46 m 1,6,-1
 327 252 l 1,7,-1
 217 456 l 1,8,-1
 242 471 l 1,9,-1
 361 252 l 1,10,-1
 171 30 l 1,11,-1
 150 46 l 1,6,-1
EndSplineSet
EndChar

StartChar: onequarter
Encoding: 188 188 126
Width: 932
GlyphClass: 3
Flags: W
LayerCount: 2
Fore
SplineSet
526 112 m 1,0,-1
 716 112 l 1,1,-1
 754 344 l 2,2,3
 756 356 756 356 760 378.5 c 128,-1,4
 764 401 764 401 766 410 c 1,5,-1
 725 356 l 1,6,-1
 526 112 l 1,0,-1
493 108 m 1,7,-1
 771 454 l 1,8,-1
 801 454 l 1,9,-1
 744 112 l 1,10,-1
 821 112 l 1,11,-1
 817 86 l 1,12,-1
 740 86 l 1,13,-1
 719 -42 l 1,14,-1
 690 -42 l 1,15,-1
 711 86 l 1,16,-1
 489 86 l 1,17,-1
 493 108 l 1,7,-1
156 707 m 1,18,-1
 160 731 l 1,19,-1
 189 731 l 2,20,21
 234 731 234 731 249 737.5 c 128,-1,22
 264 744 264 744 268 771 c 2,23,-1
 273 803 l 1,24,-1
 297 803 l 1,25,-1
 215 308 l 1,26,-1
 187 308 l 1,27,-1
 253 707 l 1,28,-1
 156 707 l 1,18,-1
99 -52 m 1,29,-1
 725 787 l 1,30,-1
 757 787 l 1,31,-1
 130 -52 l 1,32,-1
 99 -52 l 1,29,-1
EndSplineSet
Ligature2: "'frac' Diagonal Fractions lookup 7 subtable" one fraction four
Ligature2: "'frac' Diagonal Fractions lookup 7 subtable" one slash four
EndChar

StartChar: onehalf
Encoding: 189 189 127
Width: 931
GlyphClass: 3
Flags: W
LayerCount: 2
Fore
SplineSet
564 341 m 1,0,1
 618 457 618 457 725 457 c 0,2,3
 783 457 783 457 814 423 c 128,-1,4
 845 389 845 389 835 327 c 0,5,6
 823 254 823 254 738 184 c 0,7,8
 636 101 636 101 596.5 63 c 128,-1,9
 557 25 557 25 542 -7 c 1,10,-1
 779 -7 l 1,11,-1
 775 -34 l 1,12,-1
 504 -34 l 1,13,14
 511 10 511 10 555.5 56.5 c 128,-1,15
 600 103 600 103 716 200 c 0,16,17
 796 266 796 266 806 327 c 0,18,19
 814 377 814 377 790 403.5 c 128,-1,20
 766 430 766 430 718 430 c 0,21,22
 678 430 678 430 643.5 404.5 c 128,-1,23
 609 379 609 379 590 335 c 1,24,-1
 564 341 l 1,0,1
156 707 m 1,25,-1
 160 731 l 1,26,-1
 189 731 l 2,27,28
 234 731 234 731 249 737.5 c 128,-1,29
 264 744 264 744 268 771 c 2,30,-1
 273 803 l 1,31,-1
 297 803 l 1,32,-1
 215 308 l 1,33,-1
 187 308 l 1,34,-1
 253 707 l 1,35,-1
 156 707 l 1,25,-1
75 -52 m 1,36,-1
 719 786 l 1,37,-1
 751 786 l 1,38,-1
 108 -52 l 1,39,-1
 75 -52 l 1,36,-1
EndSplineSet
Ligature2: "'frac' Diagonal Fractions lookup 7 subtable" one fraction two
Ligature2: "'frac' Diagonal Fractions lookup 7 subtable" one slash two
EndChar

StartChar: threequarters
Encoding: 190 190 128
Width: 935
GlyphClass: 3
Flags: W
LayerCount: 2
Fore
SplineSet
77 390 m 1,0,-1
 104 403 l 1,1,2
 134 332 134 332 209 332 c 0,3,4
 261 332 261 332 300.5 361 c 128,-1,5
 340 390 340 390 350 448 c 0,6,7
 359 503 359 503 326.5 530.5 c 128,-1,8
 294 558 294 558 242 558 c 0,9,10
 215 558 215 558 205 557 c 1,11,-1
 210 585 l 1,12,13
 219 584 219 584 244 584 c 0,14,15
 293 584 293 584 327.5 611 c 128,-1,16
 362 638 362 638 370 686 c 0,17,18
 377 728 377 728 353.5 755 c 128,-1,19
 330 782 330 782 285 782 c 0,20,21
 218 782 218 782 169 706 c 1,22,-1
 144 716 l 1,23,24
 200 808 200 808 289 808 c 0,25,26
 349 808 349 808 378 773 c 128,-1,27
 407 738 407 738 398 687 c 0,28,29
 391 645 391 645 365 615.5 c 128,-1,30
 339 586 339 586 306 574 c 1,31,32
 343 562 343 562 365 530.5 c 128,-1,33
 387 499 387 499 378 448 c 0,34,35
 366 378 366 378 318.5 341.5 c 128,-1,36
 271 305 271 305 205 305 c 0,37,38
 154 305 154 305 122 330.5 c 128,-1,39
 90 356 90 356 77 390 c 1,0,-1
504 108 m 1,40,-1
 784 454 l 1,41,-1
 813 454 l 1,42,-1
 757 112 l 1,43,-1
 834 112 l 1,44,-1
 830 86 l 1,45,-1
 753 86 l 1,46,-1
 731 -42 l 1,47,-1
 703 -42 l 1,48,-1
 724 86 l 1,49,-1
 501 86 l 1,50,-1
 504 108 l 1,40,-1
537 112 m 1,51,-1
 728 112 l 1,52,-1
 767 344 l 2,53,54
 769 356 769 356 773 377.5 c 128,-1,55
 777 399 777 399 779 409 c 1,56,-1
 537 112 l 1,51,-1
159 -52 m 1,57,-1
 802 786 l 1,58,-1
 833 786 l 1,59,-1
 192 -52 l 1,60,-1
 159 -52 l 1,57,-1
EndSplineSet
Ligature2: "'frac' Diagonal Fractions lookup 7 subtable" three fraction four
Ligature2: "'frac' Diagonal Fractions lookup 7 subtable" three slash four
EndChar

StartChar: questiondown
Encoding: 191 191 129
Width: 517
GlyphClass: 2
Flags: W
LayerCount: 2
Fore
SplineSet
17 -47 m 0,0,1
 25 -1 25 -1 49.5 36 c 128,-1,2
 74 73 74 73 106 99 c 128,-1,3
 138 125 138 125 169 151 c 128,-1,4
 200 177 200 177 225 215 c 128,-1,5
 250 253 250 253 258 300 c 2,6,-1
 260 316 l 1,7,-1
 290 316 l 1,8,-1
 287 299 l 2,9,10
 279 248 279 248 253.5 207.5 c 128,-1,11
 228 167 228 167 197 141 c 128,-1,12
 166 115 166 115 135 90 c 128,-1,13
 104 65 104 65 79.5 31 c 128,-1,14
 55 -3 55 -3 48 -46 c 0,15,16
 36 -121 36 -121 69 -165.5 c 128,-1,17
 102 -210 102 -210 174 -210 c 0,18,19
 283 -210 283 -210 363 -85 c 1,20,-1
 386 -97 l 1,21,22
 346 -165 346 -165 289.5 -201 c 128,-1,23
 233 -237 233 -237 171 -237 c 0,24,25
 85 -237 85 -237 44 -185 c 128,-1,26
 3 -133 3 -133 17 -47 c 0,0,1
254 441 m 1,27,-1
 267 524 l 1,28,-1
 351 524 l 1,29,-1
 337 441 l 1,30,-1
 254 441 l 1,27,-1
EndSplineSet
EndChar

StartChar: AE
Encoding: 198 198 136
Width: 892
GlyphClass: 2
Flags: W
LayerCount: 2
Fore
SplineSet
202 269 m 1,0,-1
 481 269 l 1,1,-1
 554 708 l 1,2,-1
 544 708 l 1,3,-1
 202 269 l 1,0,-1
-44 0 m 1,4,-1
 533 735 l 1,5,-1
 925 735 l 1,6,-1
 921 708 l 1,7,-1
 584 708 l 1,8,-1
 533 395 l 1,9,-1
 834 395 l 1,10,-1
 829 369 l 1,11,-1
 527 369 l 1,12,-1
 471 27 l 1,13,-1
 811 27 l 1,14,-1
 806 0 l 1,15,-1
 437 0 l 1,16,-1
 477 243 l 1,17,-1
 182 243 l 1,18,-1
 -10 0 l 1,19,-1
 -44 0 l 1,4,-1
EndSplineSet
EndChar

StartChar: multiply
Encoding: 215 215 153
Width: 544
GlyphClass: 2
Flags: W
LayerCount: 2
Fore
SplineSet
27 167 m 1,0,-1
 267 359 l 1,1,-1
 96 551 l 1,2,-1
 119 572 l 1,3,-1
 288 377 l 1,4,-1
 523 572 l 1,5,-1
 539 551 l 1,6,-1
 306 359 l 1,7,-1
 482 166 l 1,8,-1
 458 147 l 1,9,-1
 282 340 l 1,10,-1
 44 147 l 1,11,-1
 27 167 l 1,0,-1
EndSplineSet
EndChar

StartChar: Oslash
Encoding: 216 216 154
Width: 678
GlyphClass: 2
Flags: W
LayerCount: 2
Fore
SplineSet
72 367 m 0,0,1
 101 542 101 542 194 648.5 c 128,-1,2
 287 755 287 755 417 755 c 0,3,4
 502 755 502 755 559 707 c 1,5,-1
 619 798 l 1,6,-1
 649 798 l 1,7,-1
 578 689 l 1,8,9
 670 587 670 587 634 367 c 0,10,11
 605 194 605 194 513 87.5 c 128,-1,12
 421 -19 421 -19 289 -19 c 0,13,14
 217 -19 217 -19 168 15 c 1,15,-1
 106 -82 l 1,16,-1
 75 -82 l 1,17,-1
 149 29 l 1,18,19
 92 77 92 77 72.5 164.5 c 128,-1,20
 53 252 53 252 72 367 c 0,0,1
558 659 m 1,21,-1
 186 41 l 1,22,23
 231 8 231 8 294 8 c 0,24,25
 412 8 412 8 494.5 107.5 c 128,-1,26
 577 207 577 207 603 367 c 0,27,28
 636 565 636 565 558 659 c 1,21,-1
542 679 m 1,29,30
 490 727 490 727 413 727 c 0,31,32
 298 727 298 727 215 629.5 c 128,-1,33
 132 532 132 532 104 367 c 0,34,35
 87 263 87 263 102.5 182 c 128,-1,36
 118 101 118 101 166 56 c 1,37,-1
 542 679 l 1,29,30
EndSplineSet
EndChar

StartChar: Thorn
Encoding: 222 222 160
Width: 601
GlyphClass: 2
Flags: W
LayerCount: 2
Fore
SplineSet
69 0 m 1,0,-1
 191 736 l 1,1,-1
 221 736 l 1,2,-1
 198 598 l 1,3,-1
 363 598 l 2,4,5
 485 598 485 598 536 540.5 c 128,-1,6
 587 483 587 483 570 377 c 0,7,8
 551 262 551 262 471.5 208 c 128,-1,9
 392 154 392 154 270 154 c 2,10,-1
 124 154 l 1,11,-1
 99 0 l 1,12,-1
 69 0 l 1,0,-1
129 180 m 1,13,-1
 271 180 l 2,14,15
 507 180 507 180 539 376 c 256,16,17
 571 572 571 572 353 572 c 2,18,-1
 194 572 l 1,19,-1
 129 180 l 1,13,-1
EndSplineSet
EndChar

StartChar: germandbls
Encoding: 223 223 161
Width: 631
GlyphClass: 2
Flags: W
LayerCount: 2
Fore
SplineSet
69 0 m 1,0,-1
 164 572 l 2,1,2
 178 658 178 658 242 706.5 c 128,-1,3
 306 755 306 755 395 755 c 0,4,5
 480 755 480 755 526.5 701.5 c 128,-1,6
 573 648 573 648 559 561 c 0,7,8
 548 493 548 493 514.5 447.5 c 128,-1,9
 481 402 481 402 441 383 c 1,10,-1
 441 380 l 1,11,12
 465 375 465 375 486.5 362 c 128,-1,13
 508 349 508 349 528.5 326.5 c 128,-1,14
 549 304 549 304 558 264.5 c 128,-1,15
 567 225 567 225 558 176 c 0,16,17
 545 95 545 95 484.5 38 c 128,-1,18
 424 -19 424 -19 337 -19 c 0,19,20
 260 -19 260 -19 191 4 c 1,21,-1
 204 32 l 1,22,23
 264 8 264 8 340 8 c 0,24,25
 406 8 406 8 461 54.5 c 128,-1,26
 516 101 516 101 528 176 c 0,27,28
 543 269 543 269 496.5 316.5 c 128,-1,29
 450 364 450 364 376 364 c 2,30,-1
 320 364 l 1,31,-1
 325 390 l 1,32,-1
 376 390 l 2,33,34
 432 390 432 390 474.5 439 c 128,-1,35
 517 488 517 488 528 558 c 0,36,37
 540 631 540 631 503 679 c 128,-1,38
 466 727 466 727 389 727 c 256,39,40
 312 727 312 727 258 684 c 128,-1,41
 204 641 204 641 192 569 c 2,42,-1
 98 0 l 1,43,-1
 69 0 l 1,0,-1
EndSplineSet
EndChar

StartChar: ae
Encoding: 230 230 168
Width: 888
GlyphClass: 2
Flags: W
LayerCount: 2
Fore
SplineSet
21 119 m 0,0,1
 32 187 32 187 86 230.5 c 128,-1,2
 140 274 140 274 252 291 c 0,3,4
 381 312 381 312 426 333 c 1,5,-1
 430 360 l 2,6,7
 441 426 441 426 407 469.5 c 128,-1,8
 373 513 373 513 296 513 c 0,9,10
 194 513 194 513 118 425 c 1,11,-1
 98 439 l 1,12,13
 132 481 132 481 186.5 510 c 128,-1,14
 241 539 241 539 300 539 c 0,15,16
 383 539 383 539 421.5 497 c 128,-1,17
 460 455 460 455 458 390 c 1,18,19
 492 457 492 457 549 498 c 128,-1,20
 606 539 606 539 672 539 c 0,21,22
 766 539 766 539 810.5 460.5 c 128,-1,23
 855 382 855 382 838 278 c 2,24,-1
 833 251 l 1,25,-1
 440 251 l 1,26,-1
 436 225 l 1,27,28
 427 133 427 133 465.5 69.5 c 128,-1,29
 504 6 504 6 586 6 c 0,30,31
 644 6 644 6 691.5 35.5 c 128,-1,32
 739 65 739 65 769 110 c 1,33,-1
 793 99 l 1,34,35
 711 -19 711 -19 581 -19 c 0,36,37
 507 -19 507 -19 463.5 26.5 c 128,-1,38
 420 72 420 72 412 148 c 1,39,40
 381 74 381 74 313 27.5 c 128,-1,41
 245 -19 245 -19 167 -19 c 256,42,43
 89 -19 89 -19 50 19.5 c 128,-1,44
 11 58 11 58 21 119 c 0,0,1
50 120 m 0,45,46
 42 74 42 74 73.5 40 c 128,-1,47
 105 6 105 6 172 6 c 0,48,49
 253 6 253 6 321.5 61 c 128,-1,50
 390 116 390 116 404 203 c 2,51,-1
 421 307 l 1,52,53
 361 284 361 284 249 267 c 0,54,55
 154 253 154 253 107 216.5 c 128,-1,56
 60 180 60 180 50 120 c 0,45,46
444 275 m 1,57,-1
 810 275 l 1,58,59
 826 371 826 371 787.5 442 c 128,-1,60
 749 513 749 513 668 513 c 0,61,62
 589 513 589 513 530 449 c 128,-1,63
 471 385 471 385 449 297 c 2,64,-1
 444 275 l 1,57,-1
EndSplineSet
EndChar

StartChar: eth
Encoding: 240 240 178
Width: 534
GlyphClass: 2
Flags: W
LayerCount: 2
Fore
SplineSet
47 243 m 0,0,1
 67 363 67 363 137 431.5 c 128,-1,2
 207 500 207 500 304 500 c 0,3,4
 372 500 372 500 410.5 465 c 128,-1,5
 449 430 449 430 459 377 c 1,6,7
 469 574 469 574 387 666 c 1,8,-1
 226 557 l 1,9,-1
 213 577 l 1,10,-1
 369 683 l 1,11,12
 319 729 319 729 239 741 c 1,13,-1
 251 766 l 1,14,15
 341 751 341 751 396 701 c 1,16,-1
 505 775 l 1,17,-1
 518 754 l 1,18,-1
 414 684 l 1,19,20
 441 654 441 654 459 615 c 0,21,22
 512 489 512 489 472 250 c 0,23,24
 453 133 453 133 386.5 57 c 128,-1,25
 320 -19 320 -19 218 -19 c 0,26,27
 114 -19 114 -19 71.5 56.5 c 128,-1,28
 29 132 29 132 47 243 c 0,0,1
75 243 m 0,29,30
 58 138 58 138 96.5 72 c 128,-1,31
 135 6 135 6 223 6 c 0,32,33
 306 6 306 6 364.5 71 c 128,-1,34
 423 136 423 136 441 246 c 0,35,36
 458 350 458 350 419.5 412 c 128,-1,37
 381 474 381 474 301 474 c 0,38,39
 219 474 219 474 156.5 414.5 c 128,-1,40
 94 355 94 355 75 243 c 0,29,30
EndSplineSet
EndChar

StartChar: divide
Encoding: 247 247 185
Width: 546
GlyphClass: 2
Flags: W
LayerCount: 2
Fore
SplineSet
272 505 m 1,0,-1
 285 581 l 1,1,-1
 362 581 l 1,2,-1
 350 505 l 1,3,-1
 272 505 l 1,0,-1
42 348 m 1,4,-1
 47 375 l 1,5,-1
 531 375 l 1,6,-1
 527 348 l 1,7,-1
 42 348 l 1,4,-1
213 145 m 1,8,-1
 225 219 l 1,9,-1
 302 219 l 1,10,-1
 290 145 l 1,11,-1
 213 145 l 1,8,-1
EndSplineSet
EndChar

StartChar: oslash
Encoding: 248 248 186
Width: 532
GlyphClass: 2
Flags: W
LayerCount: 2
Fore
SplineSet
50 260 m 0,0,1
 70 382 70 382 140.5 460.5 c 128,-1,2
 211 539 211 539 309 539 c 0,3,4
 370 539 370 539 413 504 c 1,5,-1
 461 578 l 1,6,-1
 488 578 l 1,7,-1
 430 488 l 1,8,9
 501 411 501 411 476 260 c 0,10,11
 457 143 457 143 387.5 62 c 128,-1,12
 318 -19 318 -19 217 -19 c 0,13,14
 162 -19 162 -19 122 7 c 1,15,-1
 75 -65 l 1,16,-1
 49 -65 l 1,17,-1
 104 22 l 1,18,19
 65 58 65 58 51.5 122 c 128,-1,20
 38 186 38 186 50 260 c 0,0,1
411 461 m 1,21,-1
 138 32 l 1,22,23
 175 6 175 6 221 6 c 0,24,25
 304 6 304 6 366.5 78.5 c 128,-1,26
 429 151 429 151 447 260 c 0,27,28
 468 388 468 388 411 461 c 1,21,-1
397 478 m 1,29,30
 359 513 359 513 305 513 c 0,31,32
 224 513 224 513 160 442.5 c 128,-1,33
 96 372 96 372 78 260 c 0,34,35
 54 117 54 117 122 48 c 1,36,-1
 397 478 l 1,29,30
EndSplineSet
EndChar

StartChar: thorn
Encoding: 254 254 192
Width: 551
GlyphClass: 2
Flags: W
LayerCount: 2
Fore
SplineSet
119 262 m 0,0,1
 101 148 101 148 138 77 c 128,-1,2
 175 6 175 6 249 6 c 0,3,4
 327 6 327 6 387.5 74 c 128,-1,5
 448 142 448 142 467 260 c 0,6,7
 485 371 485 371 450.5 442 c 128,-1,8
 416 513 416 513 333 513 c 0,9,10
 262 513 262 513 199.5 442.5 c 128,-1,11
 137 372 137 372 120 266 c 0,12,13
 119 264 119 264 119 262 c 0,0,1
8 -244 m 1,14,-1
 176 767 l 1,15,-1
 204 767 l 1,16,-1
 141 387 l 1,17,18
 172 455 172 455 226.5 497 c 128,-1,19
 281 539 281 539 339 539 c 0,20,21
 432 539 432 539 474 463 c 128,-1,22
 516 387 516 387 495 260 c 0,23,24
 473 126 473 126 404 53.5 c 128,-1,25
 335 -19 335 -19 245 -19 c 0,26,27
 183 -19 183 -19 145.5 23 c 128,-1,28
 108 65 108 65 98 130 c 1,29,-1
 36 -244 l 1,30,-1
 8 -244 l 1,14,-1
EndSplineSet
EndChar

StartChar: dcroat
Encoding: 273 273 211
Width: 553
GlyphClass: 2
Flags: W
LayerCount: 2
Fore
SplineSet
50 260 m 0,0,1
 72 391 72 391 140 465 c 128,-1,2
 208 539 208 539 298 539 c 0,3,4
 363 539 363 539 401.5 493.5 c 128,-1,5
 440 448 440 448 445 385 c 1,6,-1
 488 644 l 1,7,-1
 266 644 l 1,8,-1
 270 668 l 1,9,-1
 492 668 l 1,10,-1
 509 767 l 1,11,-1
 537 767 l 1,12,-1
 520 668 l 1,13,-1
 599 668 l 1,14,-1
 595 644 l 1,15,-1
 516 644 l 1,16,-1
 410 0 l 1,17,-1
 382 0 l 1,18,-1
 402 126 l 1,19,20
 373 63 373 63 321.5 22 c 128,-1,21
 270 -19 270 -19 205 -19 c 0,22,23
 123 -19 123 -19 75 51 c 128,-1,24
 27 121 27 121 50 260 c 0,0,1
78 260 m 0,25,26
 59 146 59 146 95.5 76 c 128,-1,27
 132 6 132 6 213 6 c 0,28,29
 285 6 285 6 345 73 c 128,-1,30
 405 140 405 140 426 260 c 0,31,32
 426 262 426 262 426 264 c 0,33,34
 445 377 445 377 405 445 c 128,-1,35
 365 513 365 513 295 513 c 0,36,37
 218 513 218 513 157.5 444 c 128,-1,38
 97 375 97 375 78 260 c 0,25,26
EndSplineSet
EndChar

StartChar: uni0123
Encoding: 291 291 229
Width: 543
GlyphClass: 2
Flags: W
LayerCount: 2
Fore
SplineSet
288 634 m 1,0,-1
 389 804 l 1,1,-1
 414 804 l 1,2,-1
 332 634 l 1,3,-1
 288 634 l 1,0,-1
79 269 m 0,4,5
 61 160 61 160 97.5 92.5 c 128,-1,6
 134 25 134 25 209 25 c 0,7,8
 288 25 288 25 344.5 90.5 c 128,-1,9
 401 156 401 156 420 271 c 0,10,11
 438 379 438 379 402 446 c 128,-1,12
 366 513 366 513 292 513 c 0,13,14
 212 513 212 513 154.5 444.5 c 128,-1,15
 97 376 97 376 79 269 c 0,4,5
51 269 m 0,16,17
 71 389 71 389 137.5 464 c 128,-1,18
 204 539 204 539 294 539 c 0,19,20
 362 539 362 539 396.5 496 c 128,-1,21
 431 453 431 453 441 397 c 1,22,-1
 461 520 l 1,23,-1
 489 520 l 1,24,-1
 409 37 l 2,25,26
 385 -109 385 -109 329 -178.5 c 128,-1,27
 273 -248 273 -248 168 -248 c 0,28,29
 119 -248 119 -248 78 -225 c 128,-1,30
 37 -202 37 -202 16 -164 c 1,31,-1
 41 -149 l 1,32,33
 89 -222 89 -222 173 -222 c 0,34,35
 264 -222 264 -222 311 -159 c 128,-1,36
 358 -96 358 -96 380 32 c 2,37,-1
 398 136 l 1,38,39
 328 -2 328 -2 205 -2 c 0,40,41
 116 -2 116 -2 73.5 74 c 128,-1,42
 31 150 31 150 51 269 c 0,16,17
EndSplineSet
EndChar

StartChar: Hbar
Encoding: 294 294 232
Width: 733
GlyphClass: 2
Flags: W
LayerCount: 2
Fore
SplineSet
78 587 m 1,0,-1
 83 612 l 1,1,-1
 178 612 l 1,2,-1
 198 735 l 1,3,-1
 227 735 l 1,4,-1
 207 612 l 1,5,-1
 635 612 l 1,6,-1
 656 735 l 1,7,-1
 686 735 l 1,8,-1
 666 612 l 1,9,-1
 759 612 l 1,10,-1
 755 587 l 1,11,-1
 661 587 l 1,12,-1
 564 0 l 1,13,-1
 534 0 l 1,14,-1
 595 367 l 1,15,-1
 166 367 l 1,16,-1
 106 0 l 1,17,-1
 76 0 l 1,18,-1
 173 587 l 1,19,-1
 78 587 l 1,0,-1
631 587 m 1,20,-1
 203 587 l 1,21,-1
 171 393 l 1,22,-1
 599 393 l 1,23,-1
 631 587 l 1,20,-1
EndSplineSet
EndChar

StartChar: hbar
Encoding: 295 295 233
Width: 550
GlyphClass: 2
Flags: W
LayerCount: 2
Fore
SplineSet
84 654 m 1,0,-1
 88 679 l 1,1,-1
 163 679 l 1,2,-1
 178 767 l 1,3,-1
 207 767 l 1,4,-1
 192 679 l 1,5,-1
 407 679 l 1,6,-1
 403 654 l 1,7,-1
 188 654 l 1,8,-1
 148 409 l 1,9,-1
 149 409 l 1,10,11
 174 456 174 456 229.5 495.5 c 128,-1,12
 285 535 285 535 350 535 c 0,13,14
 378 535 378 535 400 527.5 c 128,-1,15
 422 520 422 520 444 500 c 128,-1,16
 466 480 466 480 474.5 438 c 128,-1,17
 483 396 483 396 473 335 c 2,18,-1
 418 0 l 1,19,-1
 391 0 l 1,20,-1
 445 326 l 2,21,22
 475 509 475 509 340 509 c 0,23,24
 274 509 274 509 209.5 451 c 128,-1,25
 145 393 145 393 132 317 c 2,26,-1
 80 0 l 1,27,-1
 51 0 l 1,28,-1
 159 654 l 1,29,-1
 84 654 l 1,0,-1
EndSplineSet
EndChar

StartChar: dotlessi
Encoding: 305 305 243
Width: 213
GlyphClass: 2
Flags: W
LayerCount: 2
Fore
SplineSet
45 0 m 1,0,-1
 131 520 l 1,1,-1
 161 520 l 1,2,-1
 75 0 l 1,3,-1
 45 0 l 1,0,-1
EndSplineSet
EndChar

StartChar: kgreenlandic
Encoding: 312 312 250
Width: 462
GlyphClass: 2
Flags: W
LayerCount: 2
Fore
SplineSet
48 0 m 1,0,-1
 134 520 l 1,1,-1
 163 520 l 1,2,-1
 118 252 l 1,3,-1
 120 252 l 1,4,-1
 445 520 l 1,5,-1
 485 520 l 1,6,-1
 175 263 l 1,7,-1
 414 0 l 1,8,-1
 375 0 l 1,9,-1
 153 242 l 1,10,-1
 111 208 l 1,11,-1
 77 0 l 1,12,-1
 48 0 l 1,0,-1
EndSplineSet
EndChar

StartChar: Lslash
Encoding: 321 321 259
Width: 528
GlyphClass: 2
Flags: W
LayerCount: 2
Fore
SplineSet
168 357 m 1,0,-1
 113 27 l 1,1,-1
 475 27 l 1,2,-1
 470 0 l 1,3,-1
 79 0 l 1,4,-1
 135 336 l 1,5,-1
 2 252 l 1,6,-1
 -10 274 l 1,7,-1
 140 370 l 1,8,-1
 201 735 l 1,9,-1
 230 735 l 1,10,-1
 173 390 l 1,11,-1
 296 468 l 1,12,-1
 308 447 l 1,13,-1
 168 357 l 1,0,-1
EndSplineSet
EndChar

StartChar: lslash
Encoding: 322 322 260
Width: 235
GlyphClass: 2
Flags: W
LayerCount: 2
Fore
SplineSet
146 373 m 1,0,-1
 85 0 l 1,1,-1
 56 0 l 1,2,-1
 114 352 l 1,3,-1
 -8 271 l 1,4,-1
 -20 293 l 1,5,-1
 120 386 l 1,6,-1
 183 767 l 1,7,-1
 212 767 l 1,8,-1
 152 406 l 1,9,-1
 276 487 l 1,10,-1
 286 465 l 1,11,-1
 146 373 l 1,0,-1
EndSplineSet
EndChar

StartChar: Eng
Encoding: 330 330 268
Width: 728
GlyphClass: 2
Flags: W
LayerCount: 2
Fore
SplineSet
69 0 m 1,0,-1
 191 735 l 1,1,-1
 228 735 l 1,2,-1
 488 170 l 1,3,-1
 544 50 l 1,4,-1
 548 50 l 1,5,6
 556 120 556 120 572 216 c 2,7,-1
 658 735 l 1,8,-1
 689 735 l 1,9,-1
 566 -5 l 2,10,11
 546 -128 546 -128 494 -188 c 128,-1,12
 442 -248 442 -248 343 -248 c 0,13,14
 294 -248 294 -248 246 -242 c 1,15,-1
 250 -215 l 1,16,17
 294 -221 294 -221 345 -221 c 0,18,19
 427 -221 427 -221 470.5 -170.5 c 128,-1,20
 514 -120 514 -120 534 0 c 1,21,-1
 212 692 l 1,22,-1
 211 692 l 1,23,24
 203 628 203 628 182 504 c 2,25,-1
 99 0 l 1,26,-1
 69 0 l 1,0,-1
EndSplineSet
EndChar

StartChar: eng
Encoding: 331 331 269
Width: 541
GlyphClass: 2
Flags: W
LayerCount: 2
Fore
SplineSet
44 0 m 1,0,-1
 130 520 l 1,1,-1
 157 520 l 1,2,-1
 138 402 l 1,3,-1
 140 402 l 1,4,5
 155 446 155 446 213 492.5 c 128,-1,6
 271 539 271 539 343 539 c 0,7,8
 371 539 371 539 394 531 c 128,-1,9
 417 523 417 523 438.5 502.5 c 128,-1,10
 460 482 460 482 468.5 440 c 128,-1,11
 477 398 477 398 467 338 c 2,12,-1
 410 -5 l 2,13,14
 388 -136 388 -136 340 -192 c 128,-1,15
 292 -248 292 -248 210 -248 c 0,16,17
 191 -248 191 -248 122 -239 c 1,18,-1
 126 -213 l 1,19,20
 183 -221 183 -221 211 -221 c 0,21,22
 283 -221 283 -221 322 -170 c 128,-1,23
 361 -119 361 -119 380 -6 c 2,24,-1
 435 329 l 2,25,26
 465 513 465 513 334 513 c 0,27,28
 266 513 266 513 202 455 c 128,-1,29
 138 397 138 397 125 320 c 2,30,-1
 72 0 l 1,31,-1
 44 0 l 1,0,-1
EndSplineSet
EndChar

StartChar: OE
Encoding: 338 338 276
Width: 892
GlyphClass: 2
Flags: W
LayerCount: 2
Fore
SplineSet
72 368 m 0,0,1
 102 549 102 549 203.5 652 c 128,-1,2
 305 755 305 755 438 755 c 0,3,4
 496 755 496 755 538 735 c 1,5,-1
 925 735 l 1,6,-1
 920 708 l 1,7,-1
 561 708 l 1,8,-1
 509 395 l 1,9,-1
 831 395 l 1,10,-1
 827 369 l 1,11,-1
 505 369 l 1,12,-1
 448 27 l 1,13,-1
 810 27 l 1,14,-1
 806 0 l 1,15,-1
 419 0 l 1,16,17
 371 -19 371 -19 310 -19 c 0,18,19
 177 -19 177 -19 109.5 84.5 c 128,-1,20
 42 188 42 188 72 368 c 0,0,1
105 368 m 0,21,22
 78 203 78 203 138 105.5 c 128,-1,23
 198 8 198 8 314 8 c 0,24,25
 373 8 373 8 418 27 c 1,26,-1
 530 705 l 1,27,28
 494 727 494 727 433 727 c 0,29,30
 311 727 311 727 221.5 628.5 c 128,-1,31
 132 530 132 530 105 368 c 0,21,22
EndSplineSet
EndChar

StartChar: uni0163
Encoding: 355 355 293
Width: 324
GlyphClass: 2
Flags: W
LayerCount: 2
Fore
SplineSet
62 494 m 1,0,-1
 66 520 l 1,1,-1
 164 520 l 1,2,-1
 194 701 l 1,3,-1
 224 701 l 1,4,-1
 194 520 l 1,5,-1
 316 520 l 1,6,-1
 312 494 l 1,7,-1
 190 494 l 1,8,-1
 131 137 l 2,9,10
 121 78 121 78 138.5 52 c 128,-1,11
 156 26 156 26 206 26 c 2,12,-1
 235 26 l 1,13,-1
 231 0 l 1,14,-1
 198 0 l 2,15,16
 188 0 188 0 178 1 c 1,17,-1
 158 -52 l 1,18,19
 204 -57 204 -57 225.5 -80.5 c 128,-1,20
 247 -104 247 -104 241 -139 c 0,21,22
 235 -176 235 -176 204.5 -198.5 c 128,-1,23
 174 -221 174 -221 126 -221 c 0,24,25
 86 -221 86 -221 51 -211 c 1,26,-1
 55 -187 l 1,27,28
 93 -199 93 -199 131 -199 c 0,29,30
 163 -199 163 -199 185.5 -182 c 128,-1,31
 208 -165 208 -165 213 -139 c 0,32,33
 223 -79 223 -79 120 -71 c 1,34,-1
 151 6 l 1,35,36
 83 29 83 29 100 131 c 2,37,-1
 160 494 l 1,38,-1
 62 494 l 1,0,-1
EndSplineSet
Substitution2: "'locl' Localized Forms in Latin lookup 3 subtable" uni021B
Substitution2: "'locl' Localized Forms in Latin lookup 2 subtable" uni021B
Substitution2: "'aalt' Access All Alternates lookup 0 subtable" uni021B
EndChar

StartChar: tbar
Encoding: 359 359 297
Width: 335
GlyphClass: 2
Flags: W
LayerCount: 2
Fore
SplineSet
62 494 m 1,0,-1
 67 520 l 1,1,-1
 164 520 l 1,2,-1
 194 701 l 1,3,-1
 225 701 l 1,4,-1
 195 520 l 1,5,-1
 329 520 l 1,6,-1
 324 494 l 1,7,-1
 190 494 l 1,8,-1
 165 342 l 1,9,-1
 302 342 l 1,10,-1
 298 317 l 1,11,-1
 161 317 l 1,12,-1
 131 137 l 2,13,14
 121 78 121 78 138.5 52 c 128,-1,15
 156 26 156 26 206 26 c 2,16,-1
 248 26 l 1,17,-1
 243 0 l 1,18,-1
 198 0 l 2,19,20
 79 0 79 0 100 131 c 2,21,-1
 131 317 l 1,22,-1
 27 317 l 1,23,-1
 31 342 l 1,24,-1
 135 342 l 1,25,-1
 160 494 l 1,26,-1
 62 494 l 1,0,-1
EndSplineSet
EndChar

StartChar: longs
Encoding: 383 383 321
Width: 280
GlyphClass: 2
Flags: W
LayerCount: 2
Fore
SplineSet
49 0 m 1,0,-1
 148 598 l 2,1,2
 160 672 160 672 201 706.5 c 128,-1,3
 242 741 242 741 300 741 c 2,4,-1
 340 741 l 1,5,-1
 336 715 l 1,6,-1
 297 715 l 2,7,8
 196 715 196 715 176 593 c 2,9,-1
 78 0 l 1,10,-1
 49 0 l 1,0,-1
EndSplineSet
EndChar

StartChar: uni0180
Encoding: 384 384 322
Width: 553
GlyphClass: 2
Flags: W
LayerCount: 2
Fore
SplineSet
122 260 m 0,0,1
 102 140 102 140 141 73 c 128,-1,2
 180 6 180 6 251 6 c 0,3,4
 330 6 330 6 390.5 75.5 c 128,-1,5
 451 145 451 145 471 260 c 256,6,7
 490 375 490 375 452.5 444 c 128,-1,8
 415 513 415 513 337 513 c 0,9,10
 267 513 267 513 204 445 c 128,-1,11
 141 377 141 377 122 260 c 0,0,1
88 655 m 1,12,-1
 92 679 l 1,13,-1
 163 679 l 1,14,-1
 178 767 l 1,15,-1
 208 767 l 1,16,-1
 193 679 l 1,17,-1
 406 679 l 1,18,-1
 402 655 l 1,19,-1
 189 655 l 1,20,-1
 144 384 l 1,21,22
 166 442 166 442 220 490.5 c 128,-1,23
 274 539 274 539 343 539 c 0,24,25
 435 539 435 539 476.5 464 c 128,-1,26
 518 389 518 389 497 260 c 0,27,28
 474 121 474 121 403 51 c 128,-1,29
 332 -19 332 -19 248 -19 c 0,30,31
 186 -19 186 -19 148 22.5 c 128,-1,32
 110 64 110 64 100 125 c 1,33,-1
 80 0 l 1,34,-1
 51 0 l 1,35,-1
 159 655 l 1,36,-1
 88 655 l 1,12,-1
EndSplineSet
EndChar

StartChar: uni0182
Encoding: 386 386 324
Width: 643
GlyphClass: 2
Flags: W
LayerCount: 2
Fore
SplineSet
103 27 m 1,0,-1
 333 27 l 2,1,2
 418 27 418 27 473.5 70.5 c 128,-1,3
 529 114 529 114 543 198 c 0,4,5
 557 281 557 281 513.5 326.5 c 128,-1,6
 470 372 470 372 380 372 c 2,7,-1
 160 372 l 1,8,-1
 103 27 l 1,0,-1
69 0 m 1,9,-1
 191 735 l 1,10,-1
 581 735 l 1,11,-1
 577 708 l 1,12,-1
 216 708 l 1,13,-1
 165 399 l 1,14,-1
 391 399 l 2,15,16
 491 399 491 399 540.5 343.5 c 128,-1,17
 590 288 590 288 574 196 c 0,18,19
 559 106 559 106 496 53 c 128,-1,20
 433 0 433 0 336 0 c 2,21,-1
 69 0 l 1,9,-1
EndSplineSet
EndChar

StartChar: uni0183
Encoding: 387 387 325
Width: 550
GlyphClass: 2
Flags: W
LayerCount: 2
Fore
SplineSet
119 260 m 0,0,1
 99 140 99 140 138 73 c 128,-1,2
 177 6 177 6 248 6 c 0,3,4
 327 6 327 6 387.5 75.5 c 128,-1,5
 448 145 448 145 468 260 c 256,6,7
 487 375 487 375 449 444 c 128,-1,8
 411 513 411 513 334 513 c 0,9,10
 264 513 264 513 201 445 c 128,-1,11
 138 377 138 377 119 260 c 0,0,1
48 0 m 1,12,-1
 175 767 l 1,13,-1
 482 767 l 1,14,-1
 478 741 l 1,15,-1
 200 741 l 1,16,-1
 141 384 l 1,17,18
 163 441 163 441 216.5 490 c 128,-1,19
 270 539 270 539 340 539 c 0,20,21
 432 539 432 539 473.5 464 c 128,-1,22
 515 389 515 389 494 260 c 0,23,24
 471 121 471 121 400 51 c 128,-1,25
 329 -19 329 -19 245 -19 c 0,26,27
 183 -19 183 -19 145 22.5 c 128,-1,28
 107 64 107 64 97 125 c 1,29,-1
 77 0 l 1,30,-1
 48 0 l 1,12,-1
EndSplineSet
EndChar

StartChar: uni0184
Encoding: 388 388 326
Width: 650
GlyphClass: 2
Flags: W
LayerCount: 2
Fore
SplineSet
120 688 m 1,0,-1
 200 735 l 1,1,-1
 226 735 l 1,2,-1
 170 393 l 1,3,-1
 398 393 l 2,4,5
 495 393 495 393 545 336 c 128,-1,6
 595 279 595 279 581 196 c 0,7,8
 567 114 567 114 504 57 c 128,-1,9
 441 0 441 0 343 0 c 2,10,-1
 74 0 l 1,11,-1
 180 636 l 1,12,-1
 120 688 l 1,0,-1
109 27 m 1,13,-1
 340 27 l 2,14,15
 420 27 420 27 478.5 73 c 128,-1,16
 537 119 537 119 550 196 c 0,17,18
 562 269 562 269 518 318 c 128,-1,19
 474 367 474 367 392 367 c 2,20,-1
 166 367 l 1,21,-1
 109 27 l 1,13,-1
EndSplineSet
EndChar

StartChar: uni0185
Encoding: 389 389 327
Width: 553
GlyphClass: 2
Flags: W
LayerCount: 2
Fore
SplineSet
104 714 m 1,0,-1
 189 767 l 1,1,-1
 207 767 l 1,2,-1
 144 383 l 1,3,4
 170 448 170 448 226.5 493.5 c 128,-1,5
 283 539 283 539 342 539 c 0,6,7
 434 539 434 539 476 464 c 128,-1,8
 518 389 518 389 497 260 c 0,9,10
 474 121 474 121 403 51 c 128,-1,11
 332 -19 332 -19 248 -19 c 0,12,13
 183 -19 183 -19 147 22 c 128,-1,14
 111 63 111 63 100 126 c 1,15,-1
 80 0 l 1,16,-1
 50 0 l 1,17,-1
 160 664 l 1,18,-1
 104 714 l 1,0,-1
122 260 m 256,19,20
 103 143 103 143 140 74.5 c 128,-1,21
 177 6 177 6 251 6 c 0,22,23
 330 6 330 6 390.5 75.5 c 128,-1,24
 451 145 451 145 470 260 c 256,25,26
 489 375 489 375 451.5 444 c 128,-1,27
 414 513 414 513 336 513 c 0,28,29
 266 513 266 513 203.5 445 c 128,-1,30
 141 377 141 377 122 260 c 256,19,20
EndSplineSet
EndChar

StartChar: uni0186
Encoding: 390 390 328
Width: 613
GlyphClass: 2
Flags: W
LayerCount: 2
Fore
SplineSet
9 132 m 1,0,-1
 40 143 l 1,1,2
 58 84 58 84 102.5 46 c 128,-1,3
 147 8 147 8 218 8 c 0,4,5
 334 8 334 8 422 105 c 128,-1,6
 510 202 510 202 538 368 c 0,7,8
 565 531 565 531 510.5 629 c 128,-1,9
 456 727 456 727 337 727 c 0,10,11
 270 727 270 727 218 689.5 c 128,-1,12
 166 652 166 652 134 599 c 1,13,-1
 108 610 l 1,14,15
 140 665 140 665 201 710 c 128,-1,16
 262 755 262 755 342 755 c 0,17,18
 472 755 472 755 536 652.5 c 128,-1,19
 600 550 600 550 570 368 c 0,20,21
 540 188 540 188 442.5 84.5 c 128,-1,22
 345 -19 345 -19 214 -19 c 0,23,24
 55 -19 55 -19 9 132 c 1,0,-1
EndSplineSet
EndChar

StartChar: uni018B
Encoding: 395 395 333
Width: 643
GlyphClass: 2
Flags: W
LayerCount: 2
Fore
SplineSet
71 198 m 0,0,1
 57 114 57 114 100 70.5 c 128,-1,2
 143 27 143 27 231 27 c 2,3,-1
 453 27 l 1,4,-1
 510 372 l 1,5,-1
 299 372 l 2,6,7
 208 372 208 372 146.5 326 c 128,-1,8
 85 280 85 280 71 198 c 0,0,1
39 196 m 0,9,10
 54 288 54 288 124.5 343.5 c 128,-1,11
 195 399 195 399 296 399 c 2,12,-1
 515 399 l 1,13,-1
 566 708 l 1,14,-1
 208 708 l 1,15,-1
 213 735 l 1,16,-1
 602 735 l 1,17,-1
 480 0 l 1,18,-1
 217 0 l 2,19,20
 122 0 122 0 73 53.5 c 128,-1,21
 24 107 24 107 39 196 c 0,9,10
EndSplineSet
EndChar

StartChar: uni018C
Encoding: 396 396 334
Width: 550
GlyphClass: 2
Flags: W
LayerCount: 2
Fore
SplineSet
78 260 m 256,0,1
 59 145 59 145 95 75.5 c 128,-1,2
 131 6 131 6 212 6 c 0,3,4
 283 6 283 6 344 73 c 128,-1,5
 405 140 405 140 425 260 c 0,6,7
 444 377 444 377 404 445 c 128,-1,8
 364 513 364 513 294 513 c 0,9,10
 217 513 217 513 157 444 c 128,-1,11
 97 375 97 375 78 260 c 256,0,1
50 260 m 0,12,13
 72 390 72 390 140 464.5 c 128,-1,14
 208 539 208 539 298 539 c 0,15,16
 363 539 363 539 401.5 493 c 128,-1,17
 440 447 440 447 445 385 c 1,18,-1
 504 741 l 1,19,-1
 224 741 l 1,20,-1
 228 767 l 1,21,-1
 537 767 l 1,22,-1
 410 0 l 1,23,-1
 382 0 l 1,24,-1
 402 126 l 1,25,26
 374 64 374 64 321.5 22.5 c 128,-1,27
 269 -19 269 -19 204 -19 c 0,28,29
 122 -19 122 -19 74.5 51 c 128,-1,30
 27 121 27 121 50 260 c 0,12,13
EndSplineSet
EndChar

StartChar: uni018D
Encoding: 397 397 335
Width: 587
GlyphClass: 2
Flags: W
LayerCount: 2
Fore
SplineSet
87 317 m 0,0,1
 80 272 80 272 93 232.5 c 128,-1,2
 106 193 106 193 135.5 163 c 128,-1,3
 165 133 165 133 193 113.5 c 128,-1,4
 221 94 221 94 261 73 c 1,5,6
 359 112 359 112 428.5 180 c 128,-1,7
 498 248 498 248 510 319 c 0,8,9
 523 398 523 398 479.5 455.5 c 128,-1,10
 436 513 436 513 336 513 c 0,11,12
 243 513 243 513 172.5 461 c 128,-1,13
 102 409 102 409 87 317 c 0,0,1
59 314 m 0,14,15
 76 418 76 418 153.5 478.5 c 128,-1,16
 231 539 231 539 340 539 c 256,17,18
 449 539 449 539 503 476.5 c 128,-1,19
 557 414 557 414 541 320 c 0,20,21
 529 247 529 247 459.5 174.5 c 128,-1,22
 390 102 390 102 286 57 c 1,23,24
 348 19 348 19 378 -19.5 c 128,-1,25
 408 -58 408 -58 400 -104 c 0,26,27
 390 -164 390 -164 336 -205 c 128,-1,28
 282 -246 282 -246 202 -246 c 0,29,30
 80 -246 80 -246 27 -141 c 1,31,-1
 52 -126 l 1,32,33
 99 -220 99 -220 207 -220 c 0,34,35
 267 -220 267 -220 315 -188 c 128,-1,36
 363 -156 363 -156 372 -104 c 0,37,38
 380 -57 380 -57 339 -18.5 c 128,-1,39
 298 20 298 20 215 65 c 0,40,41
 34 165 34 165 59 314 c 0,14,15
EndSplineSet
EndChar

StartChar: uni018E
Encoding: 398 398 336
Width: 598
GlyphClass: 2
Flags: W
LayerCount: 2
Fore
SplineSet
-7 0 m 1,0,-1
 -2 27 l 1,1,-1
 409 27 l 1,2,-1
 466 368 l 1,3,-1
 105 368 l 1,4,-1
 109 395 l 1,5,-1
 470 395 l 1,6,-1
 522 708 l 1,7,-1
 125 708 l 1,8,-1
 129 735 l 1,9,-1
 558 735 l 1,10,-1
 436 0 l 1,11,-1
 -7 0 l 1,0,-1
EndSplineSet
EndChar

StartChar: uni018F
Encoding: 399 399 337
Width: 666
GlyphClass: 2
Flags: W
LayerCount: 2
Fore
SplineSet
63 321 m 0,0,1
 65 334 65 334 69 352 c 128,-1,2
 73 370 73 370 73 375 c 1,3,-1
 593 375 l 1,4,5
 604 450 604 450 599.5 511.5 c 128,-1,6
 595 573 595 573 574 622.5 c 128,-1,7
 553 672 553 672 507 699.5 c 128,-1,8
 461 727 461 727 392 727 c 0,9,10
 249 727 249 727 160 599 c 1,11,-1
 136 610 l 1,12,13
 178 675 178 675 245.5 715 c 128,-1,14
 313 755 313 755 397 755 c 0,15,16
 497 755 497 755 555 702.5 c 128,-1,17
 613 650 613 650 627.5 565 c 128,-1,18
 642 480 642 480 622 365 c 0,19,20
 590 173 590 173 494 77 c 128,-1,21
 398 -19 398 -19 274 -19 c 0,22,23
 213 -19 213 -19 169.5 2 c 128,-1,24
 126 23 126 23 102 56.5 c 128,-1,25
 78 90 78 90 67 136 c 128,-1,26
 56 182 56 182 55.5 227 c 128,-1,27
 55 272 55 272 63 321 c 0,0,1
100 347 m 1,28,29
 99 341 99 341 98 331.5 c 128,-1,30
 97 322 97 322 96 318 c 0,31,32
 89 274 89 274 88 234.5 c 128,-1,33
 87 195 87 195 95.5 152.5 c 128,-1,34
 104 110 104 110 124 79.5 c 128,-1,35
 144 49 144 49 183.5 28.5 c 128,-1,36
 223 8 223 8 279 8 c 0,37,38
 321 8 321 8 365 25 c 128,-1,39
 409 42 409 42 455 78 c 128,-1,40
 501 114 501 114 537.5 184 c 128,-1,41
 574 254 574 254 589 347 c 1,42,-1
 100 347 l 1,28,29
EndSplineSet
EndChar

StartChar: uni0190
Encoding: 400 400 338
Width: 580
GlyphClass: 2
Flags: W
LayerCount: 2
Fore
SplineSet
43 199 m 0,0,1
 57 282 57 282 118.5 331 c 128,-1,2
 180 380 180 380 249 394 c 1,3,4
 196 410 196 410 160 456 c 128,-1,5
 124 502 124 502 136 575 c 0,6,7
 148 650 148 650 214 702.5 c 128,-1,8
 280 755 280 755 382 755 c 0,9,10
 524 755 524 755 573 623 c 1,11,-1
 544 611 l 1,12,13
 502 728 502 728 378 728 c 0,14,15
 298 728 298 728 237.5 684.5 c 128,-1,16
 177 641 177 641 166 574 c 0,17,18
 153 496 153 496 204 450 c 128,-1,19
 255 404 255 404 338 404 c 0,20,21
 376 404 376 404 384 405 c 1,22,-1
 379 377 l 1,23,24
 369 378 369 378 329 378 c 0,25,26
 274 378 274 378 222 361 c 128,-1,27
 170 344 170 344 127.5 301.5 c 128,-1,28
 85 259 85 259 75 199 c 0,29,30
 59 105 59 105 116.5 56 c 128,-1,31
 174 7 174 7 262 7 c 0,32,33
 321 7 321 7 383 37 c 128,-1,34
 445 67 445 67 484 114 c 1,35,-1
 507 101 l 1,36,37
 466 49 466 49 397.5 15 c 128,-1,38
 329 -19 329 -19 258 -19 c 0,39,40
 154 -19 154 -19 90 38 c 128,-1,41
 26 95 26 95 43 199 c 0,0,1
EndSplineSet
EndChar

StartChar: uni0191
Encoding: 401 401 339
Width: 580
GlyphClass: 2
Flags: W
LayerCount: 2
Fore
SplineSet
-105 -218 m 1,0,1
 -68 -221 -68 -221 -58 -221 c 0,2,3
 -1 -221 -1 -221 27.5 -183.5 c 128,-1,4
 56 -146 56 -146 69 -69 c 2,5,-1
 202 735 l 1,6,-1
 612 735 l 1,7,-1
 608 708 l 1,8,-1
 227 708 l 1,9,-1
 173 385 l 1,10,-1
 516 385 l 1,11,-1
 512 359 l 1,12,-1
 169 359 l 1,13,-1
 98 -69 l 2,14,15
 83 -161 83 -161 45.5 -204.5 c 128,-1,16
 8 -248 8 -248 -60 -248 c 0,17,18
 -80 -248 -80 -248 -109 -244 c 1,19,-1
 -105 -218 l 1,0,1
EndSplineSet
EndChar

StartChar: florin
Encoding: 402 402 340
Width: 309
GlyphClass: 2
Flags: W
LayerCount: 2
Fore
SplineSet
-109 -218 m 1,0,1
 -86 -221 -86 -221 -65 -221 c 0,2,3
 41 -221 41 -221 68 -57 c 2,4,-1
 159 494 l 1,5,-1
 63 494 l 1,6,-1
 67 520 l 1,7,-1
 164 520 l 1,8,-1
 181 625 l 2,9,10
 193 699 193 699 234 733 c 128,-1,11
 275 767 275 767 333 767 c 2,12,-1
 375 767 l 1,13,-1
 371 741 l 1,14,-1
 330 741 l 2,15,16
 228 741 228 741 208 619 c 2,17,-1
 192 520 l 1,18,-1
 320 520 l 1,19,-1
 316 494 l 1,20,-1
 188 494 l 1,21,-1
 96 -60 l 2,22,23
 65 -248 65 -248 -67 -248 c 0,24,25
 -78 -248 -78 -248 -94 -246 c 128,-1,26
 -110 -244 -110 -244 -114 -244 c 1,27,-1
 -109 -218 l 1,0,1
EndSplineSet
EndChar

StartChar: uni0194
Encoding: 404 404 342
Width: 568
GlyphClass: 2
Flags: W
LayerCount: 2
Fore
SplineSet
72 735 m 1,0,-1
 107 735 l 1,1,-1
 252 135 l 1,2,-1
 258 105 l 1,3,-1
 259 105 l 1,4,-1
 273 135 l 1,5,-1
 614 735 l 1,6,-1
 647 735 l 1,7,-1
 279 85 l 1,8,9
 316 20 316 20 331.5 -23.5 c 128,-1,10
 347 -67 347 -67 339 -116 c 0,11,12
 330 -170 330 -170 291 -209 c 128,-1,13
 252 -248 252 -248 200 -248 c 0,14,15
 149 -248 149 -248 122.5 -212.5 c 128,-1,16
 96 -177 96 -177 106 -116 c 0,17,18
 119 -40 119 -40 229 85 c 1,19,-1
 72 735 l 1,0,-1
138 -115 m 0,20,21
 130 -161 130 -161 149 -191 c 128,-1,22
 168 -221 168 -221 205 -221 c 0,23,24
 244 -221 244 -221 273 -189 c 128,-1,25
 302 -157 302 -157 309 -115 c 0,26,27
 316 -72 316 -72 300.5 -31.5 c 128,-1,28
 285 9 285 9 251 62 c 1,29,30
 150 -44 150 -44 138 -115 c 0,20,21
EndSplineSet
EndChar

StartChar: uni0195
Encoding: 405 405 343
Width: 869
GlyphClass: 2
Flags: W
LayerCount: 2
Fore
SplineSet
48 0 m 1,0,-1
 175 767 l 1,1,-1
 205 767 l 1,2,-1
 146 411 l 1,3,4
 173 461 173 461 228.5 500 c 128,-1,5
 284 539 284 539 347 539 c 0,6,7
 376 539 376 539 399 531 c 128,-1,8
 422 523 422 523 444 503 c 128,-1,9
 466 483 466 483 474 441 c 128,-1,10
 482 399 482 399 472 338 c 2,11,-1
 441 154 l 2,12,13
 430 85 430 85 459 45.5 c 128,-1,14
 488 6 488 6 557 6 c 0,15,16
 709 6 709 6 735 161 c 2,17,-1
 794 520 l 1,18,-1
 823 520 l 1,19,-1
 764 161 l 2,20,21
 734 -19 734 -19 553 -19 c 0,22,23
 482 -19 482 -19 440 21 c 128,-1,24
 398 61 398 61 412 149 c 2,25,-1
 442 329 l 2,26,27
 472 513 472 513 337 513 c 0,28,29
 269 513 269 513 206 454.5 c 128,-1,30
 143 396 143 396 131 320 c 0,31,32
 131 318 131 318 130 317 c 2,33,-1
 78 0 l 1,34,-1
 48 0 l 1,0,-1
EndSplineSet
EndChar

StartChar: uni0196
Encoding: 406 406 344
Width: 314
GlyphClass: 2
Flags: W
LayerCount: 2
Fore
SplineSet
88 154 m 2,0,-1
 184 735 l 1,1,-1
 214 735 l 1,2,-1
 118 155 l 2,3,4
 94 8 94 8 189 8 c 0,5,6
 230 8 230 8 255 11 c 1,7,-1
 251 -16 l 1,8,9
 225 -19 225 -19 183 -19 c 0,10,11
 120 -19 120 -19 96.5 22.5 c 128,-1,12
 73 64 73 64 88 154 c 2,0,-1
EndSplineSet
EndChar

StartChar: uni0197
Encoding: 407 407 345
Width: 274
GlyphClass: 2
Flags: W
LayerCount: 2
Fore
SplineSet
54 366 m 1,0,-1
 58 391 l 1,1,-1
 140 391 l 1,2,-1
 197 735 l 1,3,-1
 226 735 l 1,4,-1
 169 391 l 1,5,-1
 253 391 l 1,6,-1
 249 366 l 1,7,-1
 165 366 l 1,8,-1
 105 0 l 1,9,-1
 75 0 l 1,10,-1
 136 366 l 1,11,-1
 54 366 l 1,0,-1
EndSplineSet
EndChar

StartChar: uni0198
Encoding: 408 408 346
Width: 614
GlyphClass: 2
Flags: W
LayerCount: 2
Fore
SplineSet
69 0 m 1,0,-1
 191 735 l 1,1,-1
 221 735 l 1,2,-1
 145 281 l 1,3,-1
 147 281 l 1,4,-1
 584 711 l 2,5,6
 629 755 629 755 688 755 c 0,7,8
 712 755 712 755 736 750 c 1,9,-1
 731 723 l 1,10,11
 708 728 708 728 685 728 c 0,12,13
 646 728 646 728 611 695 c 2,14,-1
 332 421 l 1,15,-1
 557 0 l 1,16,-1
 515 0 l 1,17,-1
 307 397 l 1,18,-1
 137 233 l 1,19,-1
 99 0 l 1,20,-1
 69 0 l 1,0,-1
EndSplineSet
EndChar

StartChar: uni0199
Encoding: 409 409 347
Width: 464
GlyphClass: 2
Flags: W
LayerCount: 2
Fore
SplineSet
49 0 m 1,0,-1
 152 624 l 2,1,2
 163 692 163 692 206.5 731.5 c 128,-1,3
 250 771 250 771 318 771 c 0,4,5
 322 771 322 771 366 768 c 1,6,-1
 362 742 l 1,7,8
 339 745 339 745 318 745 c 0,9,10
 265 745 265 745 228 714.5 c 128,-1,11
 191 684 191 684 181 622 c 2,12,-1
 111 200 l 1,13,-1
 435 520 l 1,14,-1
 474 520 l 1,15,-1
 268 316 l 1,16,-1
 415 0 l 1,17,-1
 379 0 l 1,18,-1
 243 292 l 1,19,-1
 104 157 l 1,20,-1
 78 0 l 1,21,-1
 49 0 l 1,0,-1
EndSplineSet
EndChar

StartChar: uni019A
Encoding: 410 410 348
Width: 230
GlyphClass: 2
Flags: W
LayerCount: 2
Fore
SplineSet
34 370 m 1,0,-1
 39 396 l 1,1,-1
 119 396 l 1,2,-1
 181 767 l 1,3,-1
 210 767 l 1,4,-1
 148 396 l 1,5,-1
 231 396 l 1,6,-1
 227 370 l 1,7,-1
 144 370 l 1,8,-1
 83 0 l 1,9,-1
 54 0 l 1,10,-1
 115 370 l 1,11,-1
 34 370 l 1,0,-1
EndSplineSet
EndChar

StartChar: uni019B
Encoding: 411 411 349
Width: 441
GlyphClass: 2
Flags: W
LayerCount: 2
Fore
SplineSet
-34 0 m 1,0,-1
 250 548 l 1,1,-1
 239 616 l 1,2,-1
 98 523 l 1,3,-1
 87 545 l 1,4,-1
 234 640 l 1,5,6
 209 740 209 740 154 740 c 2,7,-1
 136 740 l 1,8,-1
 140 766 l 1,9,-1
 164 766 l 2,10,11
 230 766 230 766 260 656 c 1,12,-1
 370 730 l 1,13,-1
 382 709 l 1,14,-1
 265 633 l 1,15,-1
 381 0 l 1,16,-1
 348 0 l 1,17,-1
 283 374 l 2,18,19
 271 435 271 435 260 507 c 1,20,-1
 258 507 l 1,21,22
 228 440 228 440 193 377 c 2,23,-1
 -1 0 l 1,24,-1
 -34 0 l 1,0,-1
EndSplineSet
EndChar

StartChar: uni019C
Encoding: 412 412 350
Width: 924
GlyphClass: 2
Flags: W
LayerCount: 2
Fore
SplineSet
100 185 m 2,0,-1
 191 735 l 1,1,-1
 221 735 l 1,2,-1
 131 192 l 2,3,4
 116 104 116 104 136.5 55.5 c 128,-1,5
 157 7 157 7 228 7 c 0,6,7
 297 7 297 7 359 64.5 c 128,-1,8
 421 122 421 122 436 211 c 2,9,-1
 522 735 l 1,10,-1
 553 735 l 1,11,-1
 463 193 l 2,12,13
 450 112 450 112 472 59.5 c 128,-1,14
 494 7 494 7 565 7 c 256,15,16
 636 7 636 7 694.5 63.5 c 128,-1,17
 753 120 753 120 767 204 c 2,18,-1
 855 735 l 1,19,-1
 885 735 l 1,20,-1
 763 0 l 1,21,-1
 733 0 l 1,22,-1
 749 97 l 1,23,-1
 748 97 l 1,24,25
 716 41 716 41 663.5 11 c 128,-1,26
 611 -19 611 -19 554 -19 c 0,27,28
 486 -19 486 -19 456.5 23 c 128,-1,29
 427 65 427 65 429 123 c 1,30,31
 419 84 419 84 360 32.5 c 128,-1,32
 301 -19 301 -19 217 -19 c 0,33,34
 66 -19 66 -19 100 185 c 2,0,-1
EndSplineSet
EndChar

StartChar: uni019D
Encoding: 413 413 351
Width: 738
GlyphClass: 2
Flags: W
LayerCount: 2
Fore
SplineSet
201 735 m 1,0,-1
 238 735 l 1,1,-1
 497 166 l 1,2,-1
 555 43 l 1,3,-1
 558 43 l 1,4,5
 565 115 565 115 582 217 c 2,6,-1
 667 735 l 1,7,-1
 699 735 l 1,8,-1
 577 0 l 1,9,-1
 539 0 l 1,10,-1
 223 692 l 1,11,-1
 220 692 l 1,12,13
 210 606 210 606 192 498 c 2,14,-1
 104 -34 l 2,15,16
 86 -141 86 -141 47.5 -194.5 c 128,-1,17
 9 -248 9 -248 -71 -248 c 0,18,19
 -81 -248 -81 -248 -98 -245 c 1,20,-1
 -93 -219 l 1,21,22
 -78 -221 -78 -221 -68 -221 c 0,23,24
 -39 -221 -39 -221 -16.5 -211.5 c 128,-1,25
 6 -202 6 -202 20 -186 c 128,-1,26
 34 -170 34 -170 45.5 -143.5 c 128,-1,27
 57 -117 57 -117 62.5 -93 c 128,-1,28
 68 -69 68 -69 74 -32 c 2,29,-1
 201 735 l 1,0,-1
EndSplineSet
EndChar

StartChar: uni019E
Encoding: 414 414 352
Width: 551
GlyphClass: 2
Flags: W
LayerCount: 2
Fore
SplineSet
44 0 m 1,0,-1
 130 520 l 1,1,-1
 157 520 l 1,2,-1
 139 409 l 1,3,-1
 141 409 l 1,4,5
 166 458 166 458 221.5 498.5 c 128,-1,6
 277 539 277 539 343 539 c 0,7,8
 371 539 371 539 394 531 c 128,-1,9
 417 523 417 523 438.5 502.5 c 128,-1,10
 460 482 460 482 468.5 440 c 128,-1,11
 477 398 477 398 467 338 c 2,12,-1
 371 -244 l 1,13,-1
 341 -244 l 1,14,-1
 435 329 l 2,15,16
 465 513 465 513 334 513 c 0,17,18
 266 513 266 513 202 455.5 c 128,-1,19
 138 398 138 398 126 323 c 0,20,21
 126 321 126 321 125 320 c 2,22,-1
 72 0 l 1,23,-1
 44 0 l 1,0,-1
EndSplineSet
EndChar

StartChar: uni019F
Encoding: 415 415 353
Width: 678
GlyphClass: 2
Flags: W
LayerCount: 2
Fore
SplineSet
72 368 m 256,0,1
 101 543 101 543 194 649 c 128,-1,2
 287 755 287 755 417 755 c 256,3,4
 547 755 547 755 605 648.5 c 128,-1,5
 663 542 663 542 634 367 c 0,6,7
 605 193 605 193 512.5 87 c 128,-1,8
 420 -19 420 -19 289 -19 c 256,9,10
 158 -19 158 -19 100.5 87 c 128,-1,11
 43 193 43 193 72 368 c 256,0,1
601 355 m 1,12,-1
 102 355 l 1,13,14
 79 200 79 200 129 104 c 128,-1,15
 179 8 179 8 294 8 c 256,16,17
 409 8 409 8 490.5 103 c 128,-1,18
 572 198 572 198 601 355 c 1,12,-1
106 380 m 1,19,-1
 605 380 l 1,20,21
 629 540 629 540 577.5 633.5 c 128,-1,22
 526 727 526 727 413 727 c 0,23,24
 301 727 301 727 217.5 633.5 c 128,-1,25
 134 540 134 540 106 380 c 1,19,-1
EndSplineSet
EndChar

StartChar: uni01A2
Encoding: 418 418 356
Width: 973
GlyphClass: 2
Flags: W
LayerCount: 2
Fore
SplineSet
71 360 m 0,0,1
 102 546 102 546 203.5 650.5 c 128,-1,2
 305 755 305 755 423 755 c 0,3,4
 484 755 484 755 567 734.5 c 128,-1,5
 650 714 650 714 741 714 c 0,6,7
 794 714 794 714 933 735 c 1,8,-1
 811 0 l 1,9,-1
 780 0 l 1,10,-1
 896 705 l 1,11,12
 797 689 797 689 736 689 c 0,13,14
 652 689 652 689 586 701 c 1,15,-1
 477 46 l 1,16,17
 397 -19 397 -19 295 -19 c 0,18,19
 175 -19 175 -19 109 85.5 c 128,-1,20
 43 190 43 190 71 360 c 0,0,1
103 360 m 0,21,22
 76 198 76 198 138 103 c 128,-1,23
 200 8 200 8 300 8 c 0,24,25
 337 8 337 8 370.5 17.5 c 128,-1,26
 404 27 404 27 415.5 34 c 128,-1,27
 427 41 427 41 450 56 c 1,28,-1
 558 707 l 1,29,30
 551 709 551 709 537 713 c 128,-1,31
 523 717 523 717 515 718.5 c 128,-1,32
 507 720 507 720 492.5 723 c 128,-1,33
 478 726 478 726 460.5 727 c 128,-1,34
 443 728 443 728 419 728 c 0,35,36
 375 728 375 728 328 706.5 c 128,-1,37
 281 685 281 685 235.5 643 c 128,-1,38
 190 601 190 601 154 527 c 128,-1,39
 118 453 118 453 103 360 c 0,21,22
EndSplineSet
EndChar

StartChar: uni01A3
Encoding: 419 419 357
Width: 798
GlyphClass: 2
Flags: W
LayerCount: 2
Fore
SplineSet
50 259 m 0,0,1
 72 394 72 394 144.5 466.5 c 128,-1,2
 217 539 217 539 316 539 c 0,3,4
 364 539 364 539 441 524 c 128,-1,5
 518 509 518 509 600 509 c 0,6,7
 670 509 670 509 749 523 c 1,8,-1
 662 0 l 1,9,-1
 634 0 l 1,10,-1
 716 495 l 1,11,12
 638 483 638 483 596 483 c 0,13,14
 512 483 512 483 484 489 c 1,15,-1
 417 86 l 1,16,17
 340 -19 340 -19 224 -19 c 0,18,19
 131 -19 131 -19 79 51.5 c 128,-1,20
 27 122 27 122 50 259 c 0,0,1
78 259 m 0,21,22
 59 146 59 146 100 76 c 128,-1,23
 141 6 141 6 228 6 c 0,24,25
 325 6 325 6 391 97 c 1,26,-1
 457 493 l 1,27,28
 368 513 368 513 312 513 c 0,29,30
 216 513 216 513 156 440 c 128,-1,31
 96 367 96 367 78 259 c 0,21,22
EndSplineSet
EndChar

StartChar: uni01A5
Encoding: 421 421 359
Width: 550
GlyphClass: 2
Flags: W
LayerCount: 2
Fore
SplineSet
119 262 m 0,0,1
 100 148 100 148 137 77 c 128,-1,2
 174 6 174 6 249 6 c 0,3,4
 326 6 326 6 387 74 c 128,-1,5
 448 142 448 142 468 260 c 0,6,7
 486 370 486 370 450.5 441.5 c 128,-1,8
 415 513 415 513 333 513 c 0,9,10
 261 513 261 513 199 442.5 c 128,-1,11
 137 372 137 372 119 262 c 0,0,1
7 -244 m 1,12,-1
 151 622 l 2,13,14
 164 701 164 701 210.5 734.5 c 128,-1,15
 257 768 257 768 311 768 c 0,16,17
 318 768 318 768 368 765 c 1,18,-1
 363 739 l 1,19,20
 338 742 338 742 311 742 c 0,21,22
 252 742 252 742 219.5 705 c 128,-1,23
 187 668 187 668 179 619 c 2,24,-1
 141 388 l 1,25,26
 171 454 171 454 224.5 496.5 c 128,-1,27
 278 539 278 539 340 539 c 0,28,29
 432 539 432 539 473.5 463 c 128,-1,30
 515 387 515 387 494 260 c 0,31,32
 472 126 472 126 403 53.5 c 128,-1,33
 334 -19 334 -19 245 -19 c 0,34,35
 182 -19 182 -19 145.5 22.5 c 128,-1,36
 109 64 109 64 99 129 c 1,37,-1
 37 -244 l 1,38,-1
 7 -244 l 1,12,-1
EndSplineSet
EndChar

StartChar: uni01A6
Encoding: 422 422 360
Width: 573
GlyphClass: 2
Flags: W
LayerCount: 2
Fore
SplineSet
125 274 m 1,0,-1
 291 274 l 2,1,2
 325 274 325 274 355.5 281.5 c 128,-1,3
 386 289 386 289 417 305 c 128,-1,4
 448 321 448 321 469.5 353.5 c 128,-1,5
 491 386 491 386 498 431 c 0,6,7
 509 498 509 498 474 539 c 128,-1,8
 439 580 439 580 345 580 c 2,9,-1
 176 580 l 1,10,-1
 125 274 l 1,0,-1
49 0 m 1,11,-1
 170 735 l 1,12,-1
 202 735 l 1,13,-1
 180 606 l 1,14,-1
 361 606 l 2,15,16
 461 606 461 606 500.5 557 c 128,-1,17
 540 508 540 508 528 432 c 0,18,19
 521 388 521 388 499.5 353.5 c 128,-1,20
 478 319 478 319 455 302 c 128,-1,21
 432 285 432 285 401.5 273 c 128,-1,22
 371 261 371 261 355.5 258 c 128,-1,23
 340 255 340 255 323 254 c 1,24,25
 361 239 361 239 378 208 c 128,-1,26
 395 177 395 177 407 124 c 0,27,28
 410 107 410 107 416 77.5 c 128,-1,29
 422 48 422 48 426 33 c 128,-1,30
 430 18 430 18 434.5 -3.5 c 128,-1,31
 439 -25 439 -25 444.5 -42.5 c 128,-1,32
 450 -60 450 -60 456 -78 c 1,33,-1
 421 -78 l 1,34,35
 409 -42 409 -42 395 26.5 c 128,-1,36
 381 95 381 95 371 135 c 0,37,38
 357 190 357 190 326.5 218.5 c 128,-1,39
 296 247 296 247 238 247 c 2,40,-1
 121 247 l 1,41,-1
 80 0 l 1,42,-1
 49 0 l 1,11,-1
EndSplineSet
EndChar

StartChar: uni01A7
Encoding: 423 423 361
Width: 593
GlyphClass: 2
Flags: W
LayerCount: 2
Fore
SplineSet
37 184 m 0,0,1
 43 221 43 221 62 251.5 c 128,-1,2
 81 282 81 282 102.5 300.5 c 128,-1,3
 124 319 124 319 162 338 c 128,-1,4
 200 357 200 357 225 365.5 c 128,-1,5
 250 374 250 374 298 390 c 0,6,7
 351 406 351 406 382.5 418.5 c 128,-1,8
 414 431 414 431 453 453 c 128,-1,9
 492 475 492 475 513.5 504.5 c 128,-1,10
 535 534 535 534 542 573 c 0,11,12
 554 644 554 644 509 685.5 c 128,-1,13
 464 727 464 727 373 727 c 0,14,15
 247 727 247 727 162 626 c 1,16,-1
 136 637 l 1,17,18
 173 685 173 685 237 720 c 128,-1,19
 301 755 301 755 375 755 c 0,20,21
 482 755 482 755 535 706 c 128,-1,22
 588 657 588 657 574 573 c 0,23,24
 566 527 566 527 542 492.5 c 128,-1,25
 518 458 518 458 475.5 434 c 128,-1,26
 433 410 433 410 399 396.5 c 128,-1,27
 365 383 365 383 308 365 c 0,28,29
 264 351 264 351 240.5 343 c 128,-1,30
 217 335 217 335 182 318 c 128,-1,31
 147 301 147 301 127 284.5 c 128,-1,32
 107 268 107 268 90 241.5 c 128,-1,33
 73 215 73 215 67 183 c 0,34,35
 53 101 53 101 104.5 54.5 c 128,-1,36
 156 8 156 8 248 8 c 0,37,38
 316 8 316 8 380 41.5 c 128,-1,39
 444 75 444 75 485 127 c 1,40,-1
 511 112 l 1,41,42
 463 53 463 53 395 17 c 128,-1,43
 327 -19 327 -19 246 -19 c 0,44,45
 130 -19 130 -19 75.5 34.5 c 128,-1,46
 21 88 21 88 37 184 c 0,0,1
EndSplineSet
EndChar

StartChar: uni01A8
Encoding: 424 424 362
Width: 458
GlyphClass: 2
Flags: W
LayerCount: 2
Fore
SplineSet
18 120 m 0,0,1
 22 147 22 147 38 170 c 128,-1,2
 54 193 54 193 72.5 207.5 c 128,-1,3
 91 222 91 222 121.5 236 c 128,-1,4
 152 250 152 250 173.5 257 c 128,-1,5
 195 264 195 264 229 273 c 0,6,7
 299 293 299 293 341.5 320.5 c 128,-1,8
 384 348 384 348 392 401 c 0,9,10
 400 450 400 450 365 481.5 c 128,-1,11
 330 513 330 513 265 513 c 0,12,13
 217 513 217 513 175 488.5 c 128,-1,14
 133 464 133 464 104 424 c 1,15,-1
 84 438 l 1,16,17
 114 481 114 481 163.5 510 c 128,-1,18
 213 539 213 539 269 539 c 0,19,20
 344 539 344 539 387.5 503 c 128,-1,21
 431 467 431 467 421 401 c 0,22,23
 415 367 415 367 398 341.5 c 128,-1,24
 381 316 381 316 351.5 299 c 128,-1,25
 322 282 322 282 299 273 c 128,-1,26
 276 264 276 264 237 252 c 0,27,28
 205 242 205 242 194 238.5 c 128,-1,29
 183 235 183 235 155 225 c 128,-1,30
 127 215 127 215 114.5 207 c 128,-1,31
 102 199 102 199 85 185.5 c 128,-1,32
 68 172 68 172 59 155.5 c 128,-1,33
 50 139 50 139 47 120 c 0,34,35
 39 70 39 70 75 38 c 128,-1,36
 111 6 111 6 181 6 c 0,37,38
 232 6 232 6 279.5 31 c 128,-1,39
 327 56 327 56 359 99 c 1,40,-1
 380 85 l 1,41,42
 303 -19 303 -19 177 -19 c 0,43,44
 90 -19 90 -19 49 21 c 128,-1,45
 8 61 8 61 18 120 c 0,0,1
EndSplineSet
EndChar

StartChar: uni01A9
Encoding: 425 425 363
Width: 589
GlyphClass: 2
Flags: W
LayerCount: 2
Fore
SplineSet
44 0 m 1,0,-1
 48 25 l 1,1,-1
 386 367 l 1,2,-1
 162 710 l 1,3,-1
 166 735 l 1,4,-1
 580 735 l 1,5,-1
 576 708 l 1,6,-1
 199 708 l 1,7,-1
 423 367 l 1,8,-1
 87 27 l 1,9,-1
 469 27 l 1,10,-1
 464 0 l 1,11,-1
 44 0 l 1,0,-1
EndSplineSet
EndChar

StartChar: uni01AA
Encoding: 426 426 364
Width: 406
GlyphClass: 2
Flags: W
LayerCount: 2
Fore
SplineSet
56 626 m 0,0,1
 49 581 49 581 74.5 554 c 128,-1,2
 100 527 100 527 146 527 c 0,3,4
 220 527 220 527 276 573 c 1,5,6
 280 598 280 598 279.5 621.5 c 128,-1,7
 279 645 279 645 271.5 671 c 128,-1,8
 264 697 264 697 241 712.5 c 128,-1,9
 218 728 218 728 181 728 c 0,10,11
 135 728 135 728 99.5 700.5 c 128,-1,12
 64 673 64 673 56 626 c 0,0,1
28 626 m 0,13,14
 38 687 38 687 83 721 c 128,-1,15
 128 755 128 755 184 755 c 0,16,17
 259 755 259 755 288 703 c 128,-1,18
 317 651 317 651 303 568 c 2,19,-1
 192 -102 l 2,20,21
 182 -162 182 -162 198.5 -191.5 c 128,-1,22
 215 -221 215 -221 270 -221 c 0,23,24
 273 -221 273 -221 310 -218 c 1,25,-1
 305 -245 l 1,26,27
 268 -248 268 -248 263 -248 c 0,28,29
 139 -248 139 -248 163 -102 c 2,30,-1
 270 541 l 1,31,32
 221 502 221 502 139 502 c 0,33,34
 85 502 85 502 52 536.5 c 128,-1,35
 19 571 19 571 28 626 c 0,13,14
EndSplineSet
EndChar

StartChar: uni01AB
Encoding: 427 427 365
Width: 360
GlyphClass: 2
Flags: W
LayerCount: 2
Fore
SplineSet
62 494 m 1,0,-1
 66 520 l 1,1,-1
 164 520 l 1,2,-1
 194 701 l 1,3,-1
 224 701 l 1,4,-1
 194 520 l 1,5,-1
 316 520 l 1,6,-1
 312 494 l 1,7,-1
 190 494 l 1,8,-1
 131 137 l 2,9,10
 121 78 121 78 138.5 52 c 128,-1,11
 156 26 156 26 205 26 c 0,12,13
 257 26 257 26 278 30 c 1,14,-1
 263 -59 l 2,15,16
 246 -159 246 -159 208 -203.5 c 128,-1,17
 170 -248 170 -248 101 -248 c 0,18,19
 95 -248 95 -248 89 -247.5 c 128,-1,20
 83 -247 83 -247 76.5 -245.5 c 128,-1,21
 70 -244 70 -244 67 -244 c 1,22,-1
 71 -218 l 1,23,24
 100 -221 100 -221 105 -221 c 0,25,26
 162 -221 162 -221 191.5 -186.5 c 128,-1,27
 221 -152 221 -152 236 -59 c 2,28,-1
 246 1 l 1,29,30
 236 0 236 0 194 0 c 0,31,32
 135 2 135 2 112 33 c 128,-1,33
 89 64 89 64 100 131 c 2,34,-1
 160 494 l 1,35,-1
 62 494 l 1,0,-1
EndSplineSet
EndChar

StartChar: uni01AC
Encoding: 428 428 366
Width: 541
GlyphClass: 2
Flags: W
LayerCount: 2
Fore
SplineSet
53 630 m 0,0,1
 62 682 62 682 103 708.5 c 128,-1,2
 144 735 144 735 229 735 c 2,3,-1
 597 735 l 1,4,-1
 593 708 l 1,5,-1
 362 708 l 1,6,-1
 244 0 l 1,7,-1
 214 0 l 1,8,-1
 331 708 l 1,9,-1
 226 708 l 2,10,11
 158 708 158 708 124 690.5 c 128,-1,12
 90 673 90 673 83 628 c 0,13,14
 82 622 82 622 81 607 c 1,15,-1
 53 607 l 1,16,17
 53 609 53 609 52.5 617 c 128,-1,18
 52 625 52 625 53 630 c 0,0,1
EndSplineSet
EndChar

StartChar: uni01AD
Encoding: 429 429 367
Width: 324
GlyphClass: 2
Flags: W
LayerCount: 2
Fore
SplineSet
62 493 m 1,0,-1
 66 520 l 1,1,-1
 164 520 l 1,2,-1
 179 611 l 2,3,4
 190 680 190 680 234.5 719.5 c 128,-1,5
 279 759 279 759 347 759 c 0,6,7
 350 759 350 759 394 756 c 1,8,-1
 389 729 l 1,9,10
 366 732 366 732 344 732 c 0,11,12
 292 732 292 732 255.5 701.5 c 128,-1,13
 219 671 219 671 209 609 c 2,14,-1
 194 520 l 1,15,-1
 316 520 l 1,16,-1
 311 493 l 1,17,-1
 190 493 l 1,18,-1
 131 137 l 2,19,20
 121 78 121 78 138.5 52 c 128,-1,21
 156 26 156 26 206 26 c 2,22,-1
 235 26 l 1,23,-1
 231 0 l 1,24,-1
 198 0 l 2,25,26
 79 0 79 0 100 131 c 2,27,-1
 160 493 l 1,28,-1
 62 493 l 1,0,-1
EndSplineSet
EndChar

StartChar: uni01AE
Encoding: 430 430 368
Width: 532
GlyphClass: 2
Flags: W
LayerCount: 2
Fore
SplineSet
91 708 m 1,0,-1
 96 735 l 1,1,-1
 589 735 l 1,2,-1
 584 708 l 1,3,-1
 350 708 l 1,4,-1
 215 -105 l 2,5,6
 205 -167 205 -167 221.5 -194 c 128,-1,7
 238 -221 238 -221 294 -221 c 0,8,9
 315 -221 315 -221 339 -217 c 1,10,-1
 334 -244 l 1,11,12
 305 -248 305 -248 288 -248 c 0,13,14
 221 -248 221 -248 196.5 -215.5 c 128,-1,15
 172 -183 172 -183 185 -104 c 2,16,-1
 319 708 l 1,17,-1
 91 708 l 1,0,-1
EndSplineSet
EndChar

StartChar: uni01B1
Encoding: 433 433 371
Width: 739
GlyphClass: 2
Flags: W
LayerCount: 2
Fore
SplineSet
61 299 m 0,0,1
 97 518 97 518 333 600 c 1,2,-1
 351 708 l 1,3,-1
 133 708 l 1,4,-1
 138 735 l 1,5,-1
 383 735 l 1,6,-1
 357 581 l 1,7,8
 246 549 246 549 178 474 c 128,-1,9
 110 399 110 399 93 299 c 0,10,11
 72 170 72 170 136.5 89 c 128,-1,12
 201 8 201 8 325 8 c 256,13,14
 449 8 449 8 541.5 90 c 128,-1,15
 634 172 634 172 655 299 c 0,16,17
 671 398 671 398 627 473.5 c 128,-1,18
 583 549 583 549 483 581 c 1,19,-1
 508 735 l 1,20,-1
 754 735 l 1,21,-1
 750 708 l 1,22,-1
 530 708 l 1,23,-1
 512 600 l 1,24,25
 721 518 721 518 685 299 c 0,26,27
 663 166 663 166 565.5 73.5 c 128,-1,28
 468 -19 468 -19 321 -19 c 256,29,30
 174 -19 174 -19 106.5 72.5 c 128,-1,31
 39 164 39 164 61 299 c 0,0,1
EndSplineSet
EndChar

StartChar: uni01B2
Encoding: 434 434 372
Width: 701
GlyphClass: 2
Flags: W
LayerCount: 2
Fore
SplineSet
108 235 m 2,0,-1
 191 735 l 1,1,-1
 221 735 l 1,2,-1
 137 231 l 2,3,4
 100 8 100 8 308 8 c 0,5,6
 427 8 427 8 515 119.5 c 128,-1,7
 603 231 603 231 633 412 c 0,8,9
 657 558 657 558 627 642.5 c 128,-1,10
 597 727 597 727 517 727 c 0,11,12
 480 727 480 727 466 725 c 1,13,-1
 470 752 l 1,14,15
 516 755 516 755 527 755 c 0,16,17
 610 755 610 755 651.5 672 c 128,-1,18
 693 589 693 589 664 414 c 0,19,20
 632 219 632 219 535.5 100 c 128,-1,21
 439 -19 439 -19 303 -19 c 0,22,23
 186 -19 186 -19 136 42 c 128,-1,24
 86 103 86 103 108 235 c 2,0,-1
EndSplineSet
EndChar

StartChar: uni01B3
Encoding: 435 435 373
Width: 549
GlyphClass: 2
Flags: W
LayerCount: 2
Fore
SplineSet
73 735 m 1,0,-1
 109 735 l 1,1,-1
 239 435 l 2,2,3
 247 418 247 418 260 383.5 c 128,-1,4
 273 349 273 349 281 334 c 1,5,-1
 283 334 l 1,6,7
 289 343 289 343 316.5 379 c 128,-1,8
 344 415 344 415 358 435 c 2,9,-1
 551 694 l 2,10,11
 596 755 596 755 666 755 c 0,12,13
 677 755 677 755 693 753 c 1,14,-1
 689 725 l 1,15,16
 669 727 669 727 662 727 c 0,17,18
 611 727 611 727 575 681 c 2,19,-1
 292 304 l 1,20,-1
 241 0 l 1,21,-1
 212 0 l 1,22,-1
 262 304 l 1,23,-1
 73 735 l 1,0,-1
EndSplineSet
EndChar

StartChar: uni01B4
Encoding: 436 436 374
Width: 444
GlyphClass: 2
Flags: W
LayerCount: 2
Fore
SplineSet
52 520 m 1,0,-1
 85 520 l 1,1,-1
 153 140 l 2,2,3
 157 119 157 119 164.5 76 c 128,-1,4
 172 33 172 33 176 11 c 1,5,-1
 178 11 l 1,6,7
 222 96 222 96 245 143 c 2,8,-1
 410 473 l 2,9,10
 443 537 443 537 510 537 c 0,11,12
 512 537 512 537 538 534 c 1,13,-1
 534 509 l 1,14,15
 528 510 528 510 510 510 c 0,16,17
 485 510 485 510 466 494.5 c 128,-1,18
 447 479 447 479 438 463 c 2,19,-1
 150 -100 l 2,20,21
 110 -176 110 -176 74 -210 c 128,-1,22
 38 -244 38 -244 0 -244 c 2,23,-1
 -26 -244 l 1,24,-1
 -22 -217 l 1,25,-1
 -2 -217 l 2,26,27
 66 -217 66 -217 126 -88 c 2,28,-1
 155 -29 l 1,29,-1
 52 520 l 1,0,-1
EndSplineSet
EndChar

StartChar: uni01B5
Encoding: 437 437 375
Width: 604
GlyphClass: 2
Flags: W
LayerCount: 2
Fore
SplineSet
129 352 m 1,0,-1
 134 378 l 1,1,-1
 302 378 l 1,2,-1
 571 708 l 1,3,-1
 163 708 l 1,4,-1
 167 735 l 1,5,-1
 611 735 l 1,6,-1
 607 710 l 1,7,-1
 337 378 l 1,8,-1
 503 378 l 1,9,-1
 499 352 l 1,10,-1
 316 352 l 1,11,-1
 52 27 l 1,12,-1
 505 27 l 1,13,-1
 500 0 l 1,14,-1
 12 0 l 1,15,-1
 16 26 l 1,16,-1
 282 352 l 1,17,-1
 129 352 l 1,0,-1
EndSplineSet
EndChar

StartChar: uni01B6
Encoding: 438 438 376
Width: 446
GlyphClass: 2
Flags: W
LayerCount: 2
Fore
SplineSet
-6 0 m 1,0,-1
 -2 23 l 1,1,-1
 194 255 l 1,2,-1
 73 255 l 1,3,-1
 77 279 l 1,4,-1
 214 279 l 1,5,-1
 397 494 l 1,6,-1
 100 494 l 1,7,-1
 105 520 l 1,8,-1
 435 520 l 1,9,-1
 432 497 l 1,10,-1
 247 279 l 1,11,-1
 370 279 l 1,12,-1
 366 255 l 1,13,-1
 225 255 l 1,14,-1
 33 26 l 1,15,-1
 365 26 l 1,16,-1
 361 0 l 1,17,-1
 -6 0 l 1,0,-1
EndSplineSet
EndChar

StartChar: uni01B7
Encoding: 439 439 377
Width: 662
GlyphClass: 2
Flags: W
LayerCount: 2
Fore
SplineSet
-10 -111 m 1,0,-1
 18 -97 l 1,1,2
 38 -152 38 -152 90.5 -185.5 c 128,-1,3
 143 -219 143 -219 214 -219 c 0,4,5
 347 -219 347 -219 430.5 -143 c 128,-1,6
 514 -67 514 -67 535 62 c 0,7,8
 555 181 555 181 488.5 251.5 c 128,-1,9
 422 322 422 322 260 322 c 2,10,-1
 214 322 l 1,11,-1
 219 353 l 1,12,-1
 580 708 l 1,13,-1
 144 708 l 1,14,-1
 149 735 l 1,15,-1
 631 735 l 1,16,-1
 628 718 l 1,17,-1
 249 348 l 1,18,-1
 276 348 l 2,19,20
 439 347 439 347 514 270.5 c 128,-1,21
 589 194 589 194 568 63 c 0,22,23
 544 -82 544 -82 446 -164 c 128,-1,24
 348 -246 348 -246 210 -246 c 0,25,26
 129 -246 129 -246 71 -207.5 c 128,-1,27
 13 -169 13 -169 -10 -111 c 1,0,-1
EndSplineSet
EndChar

StartChar: uni01B8
Encoding: 440 440 378
Width: 662
GlyphClass: 2
Flags: W
LayerCount: 2
Fore
SplineSet
23 63 m 0,0,1
 45 194 45 194 146.5 271 c 128,-1,2
 248 348 248 348 408 348 c 2,3,-1
 434 348 l 1,4,-1
 180 718 l 1,5,-1
 183 735 l 1,6,-1
 664 735 l 1,7,-1
 660 708 l 1,8,-1
 223 708 l 1,9,-1
 467 353 l 1,10,-1
 461 322 l 1,11,-1
 416 322 l 2,12,13
 253 322 253 322 163.5 251.5 c 128,-1,14
 74 181 74 181 55 62 c 0,15,16
 34 -67 34 -67 92 -143 c 128,-1,17
 150 -219 150 -219 284 -219 c 0,18,19
 356 -219 356 -219 418.5 -185.5 c 128,-1,20
 481 -152 481 -152 519 -97 c 1,21,-1
 543 -111 l 1,22,23
 502 -169 502 -169 431 -207.5 c 128,-1,24
 360 -246 360 -246 278 -246 c 0,25,26
 140 -246 140 -246 69.5 -164 c 128,-1,27
 -1 -82 -1 -82 23 63 c 0,0,1
EndSplineSet
EndChar

StartChar: uni01B9
Encoding: 441 441 379
Width: 498
GlyphClass: 2
Flags: W
LayerCount: 2
Fore
SplineSet
8 -20 m 0,0,1
 26 88 26 88 104 145.5 c 128,-1,2
 182 203 182 203 293 203 c 2,3,-1
 333 203 l 1,4,-1
 115 497 l 1,5,-1
 119 520 l 1,6,-1
 468 520 l 1,7,-1
 463 494 l 1,8,-1
 154 494 l 1,9,-1
 368 201 l 1,10,-1
 365 179 l 1,11,-1
 297 179 l 2,12,13
 189 179 189 179 121.5 126.5 c 128,-1,14
 54 74 54 74 38 -20 c 0,15,16
 24 -107 24 -107 61.5 -164.5 c 128,-1,17
 99 -222 99 -222 181 -222 c 0,18,19
 287 -222 287 -222 361 -125 c 1,20,-1
 382 -137 l 1,21,22
 302 -248 302 -248 176 -248 c 0,23,24
 84 -248 84 -248 37.5 -185.5 c 128,-1,25
 -9 -123 -9 -123 8 -20 c 0,0,1
EndSplineSet
EndChar

StartChar: uni01BA
Encoding: 442 442 380
Width: 444
GlyphClass: 2
Flags: W
LayerCount: 2
Fore
SplineSet
-10 -126 m 0,0,1
 -3 -84 -3 -84 30.5 -53.5 c 128,-1,2
 64 -23 64 -23 107.5 -3.5 c 128,-1,3
 151 16 151 16 194 35 c 128,-1,4
 237 54 237 54 269.5 83.5 c 128,-1,5
 302 113 302 113 309 153 c 0,6,7
 325 247 325 247 168 247 c 2,8,-1
 134 247 l 1,9,-1
 138 271 l 1,10,-1
 376 494 l 1,11,-1
 98 494 l 1,12,-1
 102 520 l 1,13,-1
 417 520 l 1,14,-1
 413 498 l 1,15,-1
 169 269 l 1,16,-1
 189 269 l 2,17,18
 276 268 276 268 312.5 237 c 128,-1,19
 349 206 349 206 340 153 c 0,20,21
 333 109 333 109 299 76.5 c 128,-1,22
 265 44 265 44 221.5 23.5 c 128,-1,23
 178 3 178 3 135.5 -15.5 c 128,-1,24
 93 -34 93 -34 60.5 -61 c 128,-1,25
 28 -88 28 -88 22 -124 c 0,26,27
 15 -165 15 -165 37.5 -188.5 c 128,-1,28
 60 -212 60 -212 110 -212 c 0,29,30
 143 -212 143 -212 193 -205 c 1,31,-1
 188 -231 l 1,32,33
 146 -238 146 -238 102 -238 c 0,34,35
 42 -238 42 -238 11.5 -208.5 c 128,-1,36
 -19 -179 -19 -179 -10 -126 c 0,0,1
EndSplineSet
EndChar

StartChar: uni01BB
Encoding: 443 443 381
Width: 541
GlyphClass: 2
Flags: W
LayerCount: 2
Fore
SplineSet
132 348 m 1,0,-1
 137 374 l 1,1,-1
 360 374 l 1,2,3
 465 467 465 467 480 559 c 0,4,5
 494 641 494 641 454 684.5 c 128,-1,6
 414 728 414 728 337 728 c 0,7,8
 272 728 272 728 220 688 c 128,-1,9
 168 648 168 648 137 578 c 1,10,-1
 109 586 l 1,11,12
 142 662 142 662 203.5 708.5 c 128,-1,13
 265 755 265 755 345 755 c 0,14,15
 433 755 433 755 479.5 704 c 128,-1,16
 526 653 526 653 510 559 c 0,17,18
 495 466 495 466 398 374 c 1,19,-1
 511 374 l 1,20,-1
 507 348 l 1,21,-1
 373 348 l 1,22,23
 356 334 356 334 318 302.5 c 128,-1,24
 280 271 280 271 265.5 258.5 c 128,-1,25
 251 246 251 246 221.5 220.5 c 128,-1,26
 192 195 192 195 179.5 183.5 c 128,-1,27
 167 172 167 172 146 151.5 c 128,-1,28
 125 131 125 131 114.5 118.5 c 128,-1,29
 104 106 104 106 91 89 c 128,-1,30
 78 72 78 72 69.5 57.5 c 128,-1,31
 61 43 61 43 55 27 c 1,32,-1
 422 27 l 1,33,-1
 418 0 l 1,34,-1
 15 0 l 1,35,36
 26 64 26 64 100.5 141.5 c 128,-1,37
 175 219 175 219 331 348 c 1,38,-1
 132 348 l 1,0,-1
EndSplineSet
EndChar

StartChar: uni01BC
Encoding: 444 444 382
Width: 510
GlyphClass: 2
Flags: W
LayerCount: 2
Fore
SplineSet
19 97 m 1,0,-1
 47 111 l 1,1,2
 80 7 80 7 197 7 c 0,3,4
 278 7 278 7 334.5 60.5 c 128,-1,5
 391 114 391 114 406 202 c 0,6,7
 420 285 420 285 371 343.5 c 128,-1,8
 322 402 322 402 200 402 c 0,9,10
 158 402 158 402 118 396 c 1,11,-1
 203 708 l 1,12,-1
 148 708 l 1,13,-1
 152 735 l 1,14,-1
 488 735 l 1,15,-1
 484 708 l 1,16,-1
 230 708 l 1,17,-1
 156 426 l 1,18,19
 190 428 190 428 218 428 c 0,20,21
 340 428 340 428 397 363.5 c 128,-1,22
 454 299 454 299 438 202 c 0,23,24
 421 98 421 98 354 39.5 c 128,-1,25
 287 -19 287 -19 193 -19 c 0,26,27
 56 -19 56 -19 19 97 c 1,0,-1
EndSplineSet
EndChar

StartChar: uni01BD
Encoding: 445 445 383
Width: 415
GlyphClass: 2
Flags: W
LayerCount: 2
Fore
SplineSet
17 65 m 1,0,-1
 43 79 l 1,1,2
 58 47 58 47 87 26.5 c 128,-1,3
 116 6 116 6 152 6 c 0,4,5
 219 6 219 6 258.5 42.5 c 128,-1,6
 298 79 298 79 308 136 c 0,7,8
 319 202 319 202 275.5 243.5 c 128,-1,9
 232 285 232 285 155 285 c 0,10,11
 113 285 113 285 101 284 c 1,12,-1
 165 494 l 1,13,-1
 116 494 l 1,14,-1
 120 520 l 1,15,-1
 379 520 l 1,16,-1
 374 494 l 1,17,-1
 192 494 l 1,18,-1
 135 311 l 1,19,-1
 161 311 l 2,20,21
 254 311 254 311 301.5 261 c 128,-1,22
 349 211 349 211 337 136 c 0,23,24
 325 64 325 64 276 22.5 c 128,-1,25
 227 -19 227 -19 148 -19 c 0,26,27
 54 -19 54 -19 17 65 c 1,0,-1
EndSplineSet
EndChar

StartChar: uni01BE
Encoding: 446 446 384
Width: 413
GlyphClass: 2
Flags: W
LayerCount: 2
Fore
SplineSet
88 494 m 1,0,-1
 92 520 l 1,1,-1
 165 520 l 1,2,-1
 193 690 l 1,3,-1
 220 690 l 1,4,-1
 192 520 l 1,5,-1
 333 520 l 1,6,-1
 329 494 l 1,7,-1
 188 494 l 1,8,-1
 171 389 l 2,9,10
 164 349 164 349 178.5 317 c 128,-1,11
 193 285 193 285 217 263 c 128,-1,12
 241 241 241 241 265 220 c 128,-1,13
 289 199 289 199 304 170 c 128,-1,14
 319 141 319 141 314 107 c 0,15,16
 293 -19 293 -19 146 -19 c 0,17,18
 55 -19 55 -19 16 63 c 1,19,-1
 40 79 l 1,20,21
 80 6 80 6 150 6 c 0,22,23
 269 6 269 6 285 107 c 0,24,25
 290 135 290 135 275 160.5 c 128,-1,26
 260 186 260 186 236 207.5 c 128,-1,27
 212 229 212 229 187.5 251.5 c 128,-1,28
 163 274 163 274 149.5 308 c 128,-1,29
 136 342 136 342 142 383 c 2,30,-1
 161 494 l 1,31,-1
 88 494 l 1,0,-1
EndSplineSet
EndChar

StartChar: uni01BF
Encoding: 447 447 385
Width: 550
GlyphClass: 2
Flags: W
LayerCount: 2
Fore
SplineSet
7 -244 m 1,0,-1
 134 520 l 1,1,-1
 164 520 l 1,2,-1
 156 472 l 1,3,4
 253 539 253 539 337 539 c 0,5,6
 430 539 430 539 475.5 481.5 c 128,-1,7
 521 424 521 424 504 322 c 0,8,9
 458 47 458 47 78 0 c 1,10,-1
 37 -244 l 1,11,-1
 7 -244 l 1,0,-1
82 26 m 1,12,13
 437 77 437 77 478 321 c 0,14,15
 494 415 494 415 451 464 c 128,-1,16
 408 513 408 513 329 513 c 0,17,18
 248 513 248 513 151 441 c 1,19,-1
 82 26 l 1,12,13
EndSplineSet
EndChar

StartChar: uni01C0
Encoding: 448 448 386
Width: 192
GlyphClass: 2
Flags: W
LayerCount: 2
Fore
SplineSet
-2 -227 m 1,0,-1
 172 823 l 1,1,-1
 201 823 l 1,2,-1
 28 -227 l 1,3,-1
 -2 -227 l 1,0,-1
EndSplineSet
EndChar

StartChar: uni01C1
Encoding: 449 449 387
Width: 328
GlyphClass: 2
Flags: W
LayerCount: 2
Fore
SplineSet
-3 -227 m 1,0,-1
 171 823 l 1,1,-1
 202 823 l 1,2,-1
 28 -227 l 1,3,-1
 -3 -227 l 1,0,-1
135 -227 m 1,4,-1
 308 823 l 1,5,-1
 339 823 l 1,6,-1
 165 -227 l 1,7,-1
 135 -227 l 1,4,-1
EndSplineSet
EndChar

StartChar: uni01C2
Encoding: 450 450 388
Width: 281
GlyphClass: 2
Flags: W
LayerCount: 2
Fore
SplineSet
46 435 m 1,0,-1
 50 458 l 1,1,-1
 157 458 l 1,2,-1
 217 823 l 1,3,-1
 245 823 l 1,4,-1
 185 458 l 1,5,-1
 291 458 l 1,6,-1
 287 435 l 1,7,-1
 181 435 l 1,8,-1
 148 234 l 1,9,-1
 254 234 l 1,10,-1
 250 210 l 1,11,-1
 144 210 l 1,12,-1
 71 -228 l 1,13,-1
 43 -228 l 1,14,-1
 116 210 l 1,15,-1
 9 210 l 1,16,-1
 13 234 l 1,17,-1
 119 234 l 1,18,-1
 153 435 l 1,19,-1
 46 435 l 1,0,-1
EndSplineSet
EndChar

StartChar: uni01DD
Encoding: 477 477 415
Width: 524
GlyphClass: 2
Flags: W
LayerCount: 2
Fore
SplineSet
71 243 m 1,0,1
 55 147 55 147 93 76.5 c 128,-1,2
 131 6 131 6 213 6 c 0,3,4
 298 6 298 6 358.5 78 c 128,-1,5
 419 150 419 150 437 243 c 1,6,-1
 71 243 l 1,0,1
43 240 m 2,7,-1
 47 268 l 1,8,-1
 441 268 l 1,9,10
 458 369 458 369 420.5 441 c 128,-1,11
 383 513 383 513 295 513 c 0,12,13
 238 513 238 513 188.5 482.5 c 128,-1,14
 139 452 139 452 109 409 c 1,15,-1
 86 418 l 1,16,17
 170 539 170 539 299 539 c 0,18,19
 403 539 403 539 445.5 459.5 c 128,-1,20
 488 380 488 380 468 257 c 0,21,22
 448 137 448 137 376.5 59 c 128,-1,23
 305 -19 305 -19 209 -19 c 0,24,25
 114 -19 114 -19 70 58 c 128,-1,26
 26 135 26 135 43 240 c 2,7,-1
EndSplineSet
EndChar

StartChar: uni01E4
Encoding: 484 484 422
Width: 701
GlyphClass: 2
Flags: W
LayerCount: 2
Fore
SplineSet
72 368 m 0,0,1
 101 542 101 542 197.5 648.5 c 128,-1,2
 294 755 294 755 437 755 c 0,3,4
 517 755 517 755 566.5 714 c 128,-1,5
 616 673 616 673 633 618 c 1,6,-1
 606 607 l 1,7,8
 562 727 562 727 432 727 c 0,9,10
 304 727 304 727 217.5 628 c 128,-1,11
 131 529 131 529 105 368 c 0,12,13
 78 205 78 205 132.5 106.5 c 128,-1,14
 187 8 187 8 312 8 c 0,15,16
 401 8 401 8 463.5 60 c 128,-1,17
 526 112 526 112 557 194 c 1,18,-1
 357 194 l 1,19,-1
 361 218 l 1,20,-1
 567 218 l 1,21,22
 576 244 576 244 582 279 c 2,23,-1
 594 351 l 1,24,-1
 359 351 l 1,25,-1
 364 378 l 1,26,-1
 628 378 l 1,27,-1
 601 218 l 1,28,-1
 697 218 l 1,29,-1
 693 194 l 1,30,-1
 597 194 l 1,31,-1
 565 0 l 1,32,-1
 538 0 l 1,33,-1
 563 152 l 1,34,35
 530 79 530 79 467 30 c 128,-1,36
 404 -19 404 -19 308 -19 c 0,37,38
 167 -19 167 -19 105 86.5 c 128,-1,39
 43 192 43 192 72 368 c 0,0,1
EndSplineSet
EndChar

StartChar: uni01E5
Encoding: 485 485 423
Width: 547
GlyphClass: 2
Flags: W
LayerCount: 2
Fore
SplineSet
51 270 m 0,0,1
 71 389 71 389 137 464 c 128,-1,2
 203 539 203 539 294 539 c 0,3,4
 361 539 361 539 396 496 c 128,-1,5
 431 453 431 453 441 397 c 1,6,-1
 461 520 l 1,7,-1
 489 520 l 1,8,-1
 410 41 l 2,9,10
 398 -31 398 -31 383 -76 c 1,11,-1
 465 -76 l 1,12,-1
 461 -98 l 1,13,-1
 375 -98 l 1,14,15
 344 -173 344 -173 295 -210.5 c 128,-1,16
 246 -248 246 -248 169 -248 c 0,17,18
 119 -248 119 -248 78 -225 c 128,-1,19
 37 -202 37 -202 16 -164 c 1,20,-1
 41 -149 l 1,21,22
 62 -182 62 -182 97 -202 c 128,-1,23
 132 -222 132 -222 173 -222 c 0,24,25
 291 -222 291 -222 344 -98 c 1,26,-1
 136 -98 l 1,27,-1
 140 -76 l 1,28,-1
 354 -76 l 1,29,30
 369 -35 369 -35 382 40 c 2,31,-1
 398 141 l 1,32,33
 368 82 368 82 320 42.5 c 128,-1,34
 272 3 272 3 206 3 c 0,35,36
 117 3 117 3 74 77.5 c 128,-1,37
 31 152 31 152 51 270 c 0,0,1
79 269 m 0,38,39
 61 161 61 161 98.5 95.5 c 128,-1,40
 136 30 136 30 210 30 c 0,41,42
 289 30 289 30 345 95 c 128,-1,43
 401 160 401 160 420 273 c 0,44,45
 438 379 438 379 402 446 c 128,-1,46
 366 513 366 513 292 513 c 0,47,48
 212 513 212 513 154.5 444 c 128,-1,49
 97 375 97 375 79 269 c 0,38,39
EndSplineSet
EndChar

StartChar: uni01EF
Encoding: 495 495 433
Width: 498
GlyphClass: 2
Flags: W
LayerCount: 2
Fore
SplineSet
149 789 m 1,0,-1
 184 789 l 1,1,-1
 295 660 l 1,2,-1
 449 789 l 1,3,-1
 484 789 l 1,4,-1
 307 634 l 1,5,-1
 275 634 l 1,6,-1
 149 789 l 1,0,-1
-23 -137 m 1,7,-1
 2 -125 l 1,8,9
 43 -222 43 -222 150 -222 c 0,10,11
 233 -222 233 -222 290 -164.5 c 128,-1,12
 347 -107 347 -107 362 -19 c 0,13,14
 377 74 377 74 326.5 126.5 c 128,-1,15
 276 179 276 179 170 179 c 2,16,-1
 100 179 l 1,17,-1
 104 201 l 1,18,-1
 415 494 l 1,19,-1
 106 494 l 1,20,-1
 110 520 l 1,21,-1
 459 520 l 1,22,-1
 455 497 l 1,23,-1
 141 204 l 1,24,-1
 182 203 l 2,25,26
 295 201 295 201 352 143.5 c 128,-1,27
 409 86 409 86 391 -19 c 256,28,29
 374 -124 374 -124 306.5 -186 c 128,-1,30
 239 -248 239 -248 147 -248 c 0,31,32
 20 -248 20 -248 -23 -137 c 1,7,-1
EndSplineSet
EndChar

StartChar: uni01F6
Encoding: 502 502 440
Width: 1017
GlyphClass: 2
Flags: W
LayerCount: 2
Fore
SplineSet
69 0 m 1,0,-1
 191 735 l 1,1,-1
 221 735 l 1,2,-1
 164 393 l 1,3,-1
 563 393 l 1,4,-1
 619 735 l 1,5,-1
 650 735 l 1,6,-1
 557 177 l 2,7,8
 542 87 542 87 583.5 46.5 c 128,-1,9
 625 6 625 6 696 6 c 0,10,11
 764 6 764 6 816.5 51 c 128,-1,12
 869 96 869 96 883 176 c 2,13,-1
 940 520 l 1,14,-1
 971 520 l 1,15,-1
 913 172 l 2,16,17
 898 82 898 82 835.5 31.5 c 128,-1,18
 773 -19 773 -19 692 -19 c 0,19,20
 606 -19 606 -19 558 27.5 c 128,-1,21
 510 74 510 74 526 172 c 2,22,-1
 558 366 l 1,23,-1
 159 366 l 1,24,-1
 99 0 l 1,25,-1
 69 0 l 1,0,-1
EndSplineSet
EndChar

StartChar: uni01F7
Encoding: 503 503 441
Width: 632
GlyphClass: 2
Flags: W
LayerCount: 2
Fore
SplineSet
29 -242 m 1,0,-1
 191 735 l 1,1,-1
 223 735 l 1,2,-1
 207 641 l 1,3,4
 333 755 333 755 448 755 c 0,5,6
 546 755 546 755 588.5 684 c 128,-1,7
 631 613 631 613 611 496 c 0,8,9
 601 438 601 438 576 384.5 c 128,-1,10
 551 331 551 331 519.5 288.5 c 128,-1,11
 488 246 488 246 442.5 206 c 128,-1,12
 397 166 397 166 357 138.5 c 128,-1,13
 317 111 317 111 265.5 82.5 c 128,-1,14
 214 54 214 54 180 38 c 128,-1,15
 146 22 146 22 101 2 c 1,16,-1
 61 -242 l 1,17,-1
 29 -242 l 1,0,-1
106 30 m 1,18,19
 146 48 146 48 173.5 61.5 c 128,-1,20
 201 75 201 75 250.5 102.5 c 128,-1,21
 300 130 300 130 336 156 c 128,-1,22
 372 182 372 182 416 220.5 c 128,-1,23
 460 259 460 259 490.5 298.5 c 128,-1,24
 521 338 521 338 546.5 389.5 c 128,-1,25
 572 441 572 441 581 495 c 0,26,27
 598 597 598 597 562.5 662.5 c 128,-1,28
 527 728 527 728 436 728 c 0,29,30
 379 728 379 728 309.5 688 c 128,-1,31
 240 648 240 648 200 601 c 1,32,-1
 106 30 l 1,18,19
EndSplineSet
EndChar

StartChar: Aringacute
Encoding: 506 506 444
Width: 608
GlyphClass: 2
Flags: W
LayerCount: 2
Fore
SplineSet
-44 0 m 1,0,-1
 359 735 l 1,1,-1
 400 735 l 1,2,-1
 559 0 l 1,3,-1
 523 0 l 1,4,-1
 473 243 l 1,5,-1
 122 243 l 1,6,-1
 -10 0 l 1,7,-1
 -44 0 l 1,0,-1
136 269 m 1,8,-1
 467 269 l 1,9,-1
 397 600 l 2,10,11
 393 620 393 620 385.5 655.5 c 128,-1,12
 378 691 378 691 375 706 c 1,13,-1
 373 706 l 1,14,15
 329 623 329 623 317 600 c 2,16,-1
 136 269 l 1,8,-1
282 904 m 256,17,18
 290 952 290 952 331 988 c 0,19,20
 363 1016 363 1016 405 1022 c 1,21,-1
 493 1135 l 1,22,-1
 546 1135 l 1,23,-1
 440 1022 l 1,24,25
 480 1017 480 1017 504 988 c 0,26,27
 533 953 533 953 525 904 c 0,28,29
 517 856 517 856 477.5 820.5 c 128,-1,30
 438 785 438 785 385 785 c 0,31,32
 333 785 333 785 303.5 820.5 c 128,-1,33
 274 856 274 856 282 904 c 256,17,18
309 904 m 256,34,35
 303 865 303 865 325 837.5 c 128,-1,36
 347 810 347 810 389 810 c 0,37,38
 430 810 430 810 460.5 836.5 c 128,-1,39
 491 863 491 863 497 904 c 0,40,41
 504 944 504 944 483 971.5 c 128,-1,42
 462 999 462 999 420 999 c 0,43,44
 377 999 377 999 346 971 c 128,-1,45
 315 943 315 943 309 904 c 256,34,35
EndSplineSet
EndChar

StartChar: aringacute
Encoding: 507 507 445
Width: 527
GlyphClass: 2
Flags: W
LayerCount: 2
Fore
SplineSet
21 117 m 0,0,1
 45 259 45 259 252 291 c 0,2,3
 380 312 380 312 426 333 c 1,4,-1
 430 360 l 2,5,6
 441 427 441 427 405.5 470 c 128,-1,7
 370 513 370 513 295 513 c 0,8,9
 249 513 249 513 201.5 490 c 128,-1,10
 154 467 154 467 118 425 c 1,11,-1
 99 439 l 1,12,13
 133 481 133 481 187.5 510 c 128,-1,14
 242 539 242 539 299 539 c 0,15,16
 392 539 392 539 431.5 488 c 128,-1,17
 471 437 471 437 458 357 c 2,18,-1
 399 0 l 1,19,-1
 372 0 l 1,20,-1
 391 113 l 1,21,22
 364 60 364 60 301.5 20.5 c 128,-1,23
 239 -19 239 -19 167 -19 c 0,24,25
 89 -19 89 -19 50 19 c 128,-1,26
 11 57 11 57 21 117 c 0,0,1
50 120 m 0,27,28
 42 74 42 74 73.5 40 c 128,-1,29
 105 6 105 6 173 6 c 0,30,31
 254 6 254 6 322 61 c 128,-1,32
 390 116 390 116 404 203 c 2,33,-1
 422 307 l 1,34,35
 363 285 363 285 249 267 c 0,36,37
 154 252 154 252 107 215.5 c 128,-1,38
 60 179 60 179 50 120 c 0,27,28
210 727 m 0,39,40
 218 775 218 775 257 810 c 0,41,42
 288 838 288 838 328 844 c 1,43,-1
 414 957 l 1,44,-1
 466 957 l 1,45,-1
 362 844 l 1,46,47
 401 840 401 840 424 811 c 0,48,49
 452 776 452 776 445 727 c 256,50,51
 437 678 437 678 397.5 642.5 c 128,-1,52
 358 607 358 607 307 607 c 0,53,54
 257 607 257 607 229.5 642.5 c 128,-1,55
 202 678 202 678 210 727 c 0,39,40
236 727 m 0,56,57
 229 687 229 687 250.5 659.5 c 128,-1,58
 272 632 272 632 311 632 c 0,59,60
 352 632 352 632 381.5 658.5 c 128,-1,61
 411 685 411 685 418 727 c 0,62,63
 424 766 424 766 404.5 793.5 c 128,-1,64
 385 821 385 821 343 821 c 0,65,66
 302 821 302 821 272 793 c 128,-1,67
 242 765 242 765 236 727 c 0,56,57
EndSplineSet
EndChar

StartChar: uni021C
Encoding: 540 540 478
Width: 561
GlyphClass: 2
Flags: W
LayerCount: 2
Fore
SplineSet
-24 -211 m 1,0,1
 26 -218 26 -218 96 -218 c 0,2,3
 227 -218 227 -218 321 -146.5 c 128,-1,4
 415 -75 415 -75 436 47 c 0,5,6
 447 113 447 113 433 161.5 c 128,-1,7
 419 210 419 210 388 235.5 c 128,-1,8
 357 261 357 261 322 272.5 c 128,-1,9
 287 284 287 284 247 284 c 0,10,11
 223 284 223 284 167 265 c 1,12,-1
 171 293 l 1,13,-1
 252 316 l 2,14,15
 358 345 358 345 424.5 407 c 128,-1,16
 491 469 491 469 504 547 c 0,17,18
 518 633 518 633 474 680 c 128,-1,19
 430 727 430 727 341 727 c 0,20,21
 221 727 221 727 144 612 c 1,22,-1
 118 625 l 1,23,24
 208 755 208 755 345 755 c 0,25,26
 458 755 458 755 504 696.5 c 128,-1,27
 550 638 550 638 535 548 c 256,28,29
 520 458 520 458 450 396 c 128,-1,30
 380 334 380 334 302 308 c 1,31,-1
 302 307 l 1,32,33
 336 301 336 301 367 285.5 c 128,-1,34
 398 270 398 270 425.5 241.5 c 128,-1,35
 453 213 453 213 465 162.5 c 128,-1,36
 477 112 477 112 466 47 c 0,37,38
 445 -80 445 -80 343.5 -163 c 128,-1,39
 242 -246 242 -246 92 -246 c 0,40,41
 22 -246 22 -246 -28 -240 c 1,42,-1
 -24 -211 l 1,0,1
EndSplineSet
EndChar

StartChar: uni021D
Encoding: 541 541 479
Width: 429
GlyphClass: 2
Flags: W
LayerCount: 2
Fore
SplineSet
-24 -216 m 1,0,1
 5 -222 5 -222 56 -222 c 0,2,3
 149 -222 149 -222 212 -167 c 128,-1,4
 275 -112 275 -112 291 -12 c 0,5,6
 305 74 305 74 267.5 119 c 128,-1,7
 230 164 230 164 169 164 c 0,8,9
 163 164 163 164 112 153 c 1,10,-1
 116 180 l 1,11,-1
 167 192 l 2,12,13
 242 212 242 212 288.5 260.5 c 128,-1,14
 335 309 335 309 345 370 c 0,15,16
 355 428 355 428 328 470.5 c 128,-1,17
 301 513 301 513 236 513 c 0,18,19
 163 513 163 513 108 443 c 1,20,-1
 87 455 l 1,21,22
 148 539 148 539 241 539 c 0,23,24
 321 539 321 539 352.5 489.5 c 128,-1,25
 384 440 384 440 373 372 c 0,26,27
 361 301 361 301 315.5 254 c 128,-1,28
 270 207 270 207 208 183 c 1,29,30
 262 177 262 177 298 127.5 c 128,-1,31
 334 78 334 78 320 -11 c 0,32,33
 302 -121 302 -121 230.5 -184.5 c 128,-1,34
 159 -248 159 -248 52 -248 c 0,35,36
 13 -248 13 -248 -28 -242 c 1,37,-1
 -24 -216 l 1,0,1
EndSplineSet
EndChar

StartChar: uni0220
Encoding: 544 544 482
Width: 712
GlyphClass: 2
Flags: W
LayerCount: 2
Fore
SplineSet
69 0 m 1,0,-1
 191 735 l 1,1,-1
 221 735 l 1,2,-1
 202 622 l 1,3,-1
 203 622 l 1,4,5
 234 668 234 668 305 711.5 c 128,-1,6
 376 755 376 755 457 755 c 0,7,8
 677 755 677 755 637 508 c 2,9,-1
 512 -244 l 1,10,-1
 480 -244 l 1,11,-1
 603 500 l 2,12,13
 623 618 623 618 586 672.5 c 128,-1,14
 549 727 549 727 449 727 c 0,15,16
 366 727 366 727 283 667.5 c 128,-1,17
 200 608 200 608 186 527 c 2,18,-1
 99 0 l 1,19,-1
 69 0 l 1,0,-1
EndSplineSet
EndChar

StartChar: uni0221
Encoding: 545 545 483
Width: 735
GlyphClass: 2
Flags: W
LayerCount: 2
Fore
SplineSet
407 -135 m 1,0,1
 413 -168 413 -168 442 -194.5 c 128,-1,2
 471 -221 471 -221 511 -221 c 0,3,4
 555 -221 555 -221 585.5 -199.5 c 128,-1,5
 616 -178 616 -178 621 -145 c 0,6,7
 627 -107 627 -107 605.5 -84 c 128,-1,8
 584 -61 584 -61 540 -61 c 0,9,10
 468 -61 468 -61 407 -135 c 1,0,1
50 260 m 0,11,12
 72 390 72 390 140 464.5 c 128,-1,13
 208 539 208 539 298 539 c 0,14,15
 363 539 363 539 401.5 493.5 c 128,-1,16
 440 448 440 448 445 385 c 1,17,-1
 509 767 l 1,18,-1
 537 767 l 1,19,-1
 409 -3 l 2,20,21
 398 -68 398 -68 404 -105 c 1,22,23
 429 -77 429 -77 466 -56 c 128,-1,24
 503 -35 503 -35 544 -35 c 0,25,26
 604 -35 604 -35 630.5 -67 c 128,-1,27
 657 -99 657 -99 650 -143 c 0,28,29
 642 -189 642 -189 602.5 -218.5 c 128,-1,30
 563 -248 563 -248 508 -248 c 0,31,32
 419 -248 419 -248 387 -162 c 1,33,34
 370 -184 370 -184 338 -240 c 1,35,-1
 314 -231 l 1,36,37
 353 -162 353 -162 377 -132 c 1,38,39
 367 -93 367 -93 381 -4 c 2,40,-1
 402 126 l 1,41,42
 374 64 374 64 321.5 22.5 c 128,-1,43
 269 -19 269 -19 204 -19 c 0,44,45
 122 -19 122 -19 74.5 51 c 128,-1,46
 27 121 27 121 50 260 c 0,11,12
78 260 m 0,47,48
 59 146 59 146 95 76 c 128,-1,49
 131 6 131 6 212 6 c 0,50,51
 284 6 284 6 344.5 72.5 c 128,-1,52
 405 139 405 139 425 260 c 0,53,54
 444 377 444 377 404 445 c 128,-1,55
 364 513 364 513 294 513 c 0,56,57
 217 513 217 513 157 444.5 c 128,-1,58
 97 376 97 376 78 260 c 0,47,48
EndSplineSet
EndChar

StartChar: uni0222
Encoding: 546 546 484
Width: 648
GlyphClass: 2
Flags: W
LayerCount: 2
Fore
SplineSet
47 229 m 0,0,1
 62 320 62 320 128 384.5 c 128,-1,2
 194 449 194 449 274 471 c 1,3,4
 209 492 209 492 174 545.5 c 128,-1,5
 139 599 139 599 152 678 c 0,6,7
 158 713 158 713 165 735 c 1,8,-1
 195 735 l 1,9,10
 193 724 193 724 189 706 c 128,-1,11
 185 688 185 688 184 679 c 0,12,13
 170 597 170 597 217 540.5 c 128,-1,14
 264 484 264 484 358 484 c 0,15,16
 443 484 443 484 513.5 538 c 128,-1,17
 584 592 584 592 598 679 c 0,18,19
 600 691 600 691 604 735 c 1,20,-1
 634 735 l 1,21,22
 635 715 635 715 628 678 c 0,23,24
 614 595 614 595 558 542 c 128,-1,25
 502 489 502 489 431 471 c 1,26,27
 508 454 508 454 553.5 386.5 c 128,-1,28
 599 319 599 319 584 229 c 0,29,30
 567 127 567 127 485.5 54 c 128,-1,31
 404 -19 404 -19 275 -19 c 0,32,33
 148 -19 148 -19 89 53.5 c 128,-1,34
 30 126 30 126 47 229 c 0,0,1
80 229 m 0,35,36
 64 134 64 134 119.5 71 c 128,-1,37
 175 8 175 8 279 8 c 0,38,39
 380 8 380 8 458.5 70 c 128,-1,40
 537 132 537 132 553 229 c 0,41,42
 568 320 568 320 512 388 c 128,-1,43
 456 456 456 456 353 456 c 0,44,45
 255 456 255 456 175.5 391 c 128,-1,46
 96 326 96 326 80 229 c 0,35,36
EndSplineSet
EndChar

StartChar: uni0223
Encoding: 547 547 485
Width: 532
GlyphClass: 2
Flags: W
LayerCount: 2
Fore
SplineSet
46 239 m 0,0,1
 63 344 63 344 120.5 412 c 128,-1,2
 178 480 178 480 246 492 c 1,3,4
 189 506 189 506 160 556.5 c 128,-1,5
 131 607 131 607 145 693 c 0,6,7
 152 738 152 738 158 755 c 1,8,-1
 185 755 l 1,9,10
 175 709 175 709 173 694 c 0,11,12
 159 610 159 610 193.5 557.5 c 128,-1,13
 228 505 228 505 303 505 c 0,14,15
 373 505 373 505 426.5 556 c 128,-1,16
 480 607 480 607 494 694 c 0,17,18
 499 724 499 724 503 755 c 1,19,-1
 530 755 l 1,20,21
 530 735 530 735 523 693 c 0,22,23
 509 610 509 610 462.5 556.5 c 128,-1,24
 416 503 416 503 355 492 c 1,25,26
 421 482 421 482 455.5 413.5 c 128,-1,27
 490 345 490 345 473 239 c 0,28,29
 455 130 455 130 386 55.5 c 128,-1,30
 317 -19 317 -19 217 -19 c 0,31,32
 118 -19 118 -19 72.5 54 c 128,-1,33
 27 127 27 127 46 239 c 0,0,1
74 239 m 0,34,35
 58 140 58 140 97.5 73 c 128,-1,36
 137 6 137 6 221 6 c 0,37,38
 300 6 300 6 363 70 c 128,-1,39
 426 134 426 134 443 239 c 256,40,41
 460 344 460 344 420.5 411 c 128,-1,42
 381 478 381 478 299 478 c 0,43,44
 223 478 223 478 157.5 414 c 128,-1,45
 92 350 92 350 74 239 c 0,34,35
EndSplineSet
EndChar

StartChar: uni0224
Encoding: 548 548 486
Width: 607
GlyphClass: 2
Flags: W
LayerCount: 2
Fore
SplineSet
12 0 m 1,0,-1
 16 26 l 1,1,-1
 571 708 l 1,2,-1
 163 708 l 1,3,-1
 167 735 l 1,4,-1
 611 735 l 1,5,-1
 607 710 l 1,6,-1
 52 27 l 1,7,-1
 400 27 l 2,8,9
 477 27 477 27 507.5 -9.5 c 128,-1,10
 538 -46 538 -46 524 -127 c 0,11,12
 515 -183 515 -183 482 -244 c 1,13,-1
 454 -244 l 1,14,15
 485 -184 485 -184 495 -128 c 0,16,17
 506 -61 506 -61 484 -30.5 c 128,-1,18
 462 0 462 0 386 0 c 2,19,-1
 12 0 l 1,0,-1
EndSplineSet
EndChar

StartChar: uni0225
Encoding: 549 549 487
Width: 518
GlyphClass: 2
Flags: W
LayerCount: 2
Fore
SplineSet
-6 0 m 1,0,-1
 -2 23 l 1,1,-1
 397 495 l 1,2,-1
 101 495 l 1,3,-1
 105 521 l 1,4,-1
 436 521 l 1,5,-1
 432 498 l 1,6,-1
 33 26 l 1,7,-1
 343 26 l 2,8,9
 408 26 408 26 430 -11.5 c 128,-1,10
 452 -49 452 -49 440 -124 c 0,11,12
 428 -196 428 -196 404 -244 c 1,13,-1
 375 -244 l 1,14,15
 401 -188 401 -188 412 -124 c 0,16,17
 423 -57 423 -57 403 -28.5 c 128,-1,18
 383 0 383 0 328 0 c 2,19,-1
 -6 0 l 1,0,-1
EndSplineSet
EndChar

StartChar: uni0234
Encoding: 564 564 502
Width: 402
GlyphClass: 2
Flags: W
LayerCount: 2
Fore
SplineSet
78 -136 m 1,0,1
 83 -170 83 -170 112 -195.5 c 128,-1,2
 141 -221 141 -221 181 -221 c 0,3,4
 224 -221 224 -221 254.5 -200 c 128,-1,5
 285 -179 285 -179 290 -145 c 0,6,7
 296 -107 296 -107 274.5 -84 c 128,-1,8
 253 -61 253 -61 209 -61 c 0,9,10
 140 -61 140 -61 78 -136 c 1,0,1
-16 -231 m 1,11,12
 24 -160 24 -160 47 -133 c 1,13,14
 36 -85 36 -85 50 -3 c 2,15,-1
 178 767 l 1,16,-1
 207 767 l 1,17,-1
 79 -3 l 2,18,19
 69 -62 69 -62 75 -105 c 1,20,21
 136 -35 136 -35 213 -35 c 0,22,23
 272 -35 272 -35 299.5 -67.5 c 128,-1,24
 327 -100 327 -100 320 -143 c 0,25,26
 312 -189 312 -189 272.5 -218.5 c 128,-1,27
 233 -248 233 -248 178 -248 c 0,28,29
 134 -248 134 -248 102 -224 c 128,-1,30
 70 -200 70 -200 57 -163 c 1,31,32
 34 -194 34 -194 8 -240 c 1,33,-1
 -16 -231 l 1,11,12
EndSplineSet
EndChar

StartChar: uni0235
Encoding: 565 565 503
Width: 734
GlyphClass: 2
Flags: W
LayerCount: 2
Fore
SplineSet
408 -136 m 1,0,1
 414 -170 414 -170 442.5 -195.5 c 128,-1,2
 471 -221 471 -221 511 -221 c 0,3,4
 555 -221 555 -221 585 -200 c 128,-1,5
 615 -179 615 -179 621 -145 c 0,6,7
 627 -108 627 -108 605.5 -84.5 c 128,-1,8
 584 -61 584 -61 541 -61 c 0,9,10
 470 -61 470 -61 408 -136 c 1,0,1
44 0 m 1,11,-1
 130 520 l 1,12,-1
 157 520 l 1,13,-1
 138 402 l 1,14,-1
 140 402 l 1,15,16
 154 444 154 444 212 491.5 c 128,-1,17
 270 539 270 539 343 539 c 0,18,19
 371 539 371 539 394 531 c 128,-1,20
 417 523 417 523 438.5 502.5 c 128,-1,21
 460 482 460 482 468.5 440 c 128,-1,22
 477 398 477 398 467 338 c 2,23,-1
 411 -3 l 2,24,25
 401 -62 401 -62 405 -105 c 1,26,27
 466 -35 466 -35 546 -35 c 0,28,29
 606 -35 606 -35 631.5 -67 c 128,-1,30
 657 -99 657 -99 650 -143 c 0,31,32
 642 -189 642 -189 603 -218.5 c 128,-1,33
 564 -248 564 -248 509 -248 c 0,34,35
 465 -248 465 -248 433 -224 c 128,-1,36
 401 -200 401 -200 388 -163 c 1,37,38
 369 -187 369 -187 338 -240 c 1,39,-1
 314 -231 l 1,40,41
 350 -165 350 -165 378 -133 c 1,42,43
 367 -85 367 -85 381 -2 c 2,44,-1
 435 329 l 2,45,46
 465 513 465 513 334 513 c 0,47,48
 266 513 266 513 202 455 c 128,-1,49
 138 397 138 397 125 320 c 2,50,-1
 72 0 l 1,51,-1
 44 0 l 1,11,-1
EndSplineSet
EndChar

StartChar: uni0236
Encoding: 566 566 504
Width: 430
GlyphClass: 2
Flags: W
LayerCount: 2
Fore
SplineSet
105 -136 m 1,0,1
 110 -169 110 -169 139.5 -195 c 128,-1,2
 169 -221 169 -221 209 -221 c 0,3,4
 253 -221 253 -221 282.5 -199.5 c 128,-1,5
 312 -178 312 -178 318 -145 c 0,6,7
 324 -108 324 -108 302.5 -84.5 c 128,-1,8
 281 -61 281 -61 237 -61 c 0,9,10
 167 -61 167 -61 105 -136 c 1,0,1
62 494 m 1,11,-1
 66 520 l 1,12,-1
 164 520 l 1,13,-1
 194 701 l 1,14,-1
 224 701 l 1,15,-1
 194 520 l 1,16,-1
 328 520 l 1,17,-1
 324 494 l 1,18,-1
 190 494 l 1,19,-1
 108 -3 l 2,20,21
 97 -70 97 -70 101 -105 c 1,22,23
 162 -35 162 -35 241 -35 c 0,24,25
 300 -35 300 -35 327.5 -67.5 c 128,-1,26
 355 -100 355 -100 347 -143 c 0,27,28
 339 -189 339 -189 300 -218.5 c 128,-1,29
 261 -248 261 -248 206 -248 c 0,30,31
 162 -248 162 -248 129.5 -224 c 128,-1,32
 97 -200 97 -200 83 -163 c 1,33,34
 66 -186 66 -186 37 -240 c 1,35,-1
 11 -231 l 1,36,37
 59 -148 59 -148 73 -133 c 1,38,39
 63 -89 63 -89 78 -2 c 2,40,-1
 160 494 l 1,41,-1
 62 494 l 1,11,-1
EndSplineSet
EndChar

StartChar: uni0237
Encoding: 567 567 505
Width: 264
GlyphClass: 2
Flags: W
LayerCount: 2
Fore
SplineSet
-87 -217 m 1,0,-1
 -60 -217 l 2,1,2
 40 -217 40 -217 63 -79 c 2,3,-1
 162 520 l 1,4,-1
 190 520 l 1,5,-1
 90 -83 l 2,6,7
 77 -161 77 -161 37.5 -202.5 c 128,-1,8
 -2 -244 -2 -244 -59 -244 c 2,9,-1
 -91 -244 l 1,10,-1
 -87 -217 l 1,0,-1
EndSplineSet
EndChar

StartChar: uni0238
Encoding: 568 568 506
Width: 885
GlyphClass: 2
Flags: W
LayerCount: 2
Fore
SplineSet
50 260 m 0,0,1
 72 391 72 391 140.5 465 c 128,-1,2
 209 539 209 539 298 539 c 0,3,4
 363 539 363 539 401.5 493.5 c 128,-1,5
 440 448 440 448 445 385 c 1,6,-1
 509 767 l 1,7,-1
 537 767 l 1,8,-1
 473 384 l 1,9,10
 495 442 495 442 549.5 490.5 c 128,-1,11
 604 539 604 539 672 539 c 0,12,13
 764 539 764 539 807 464 c 128,-1,14
 850 389 850 389 829 260 c 0,15,16
 806 121 806 121 734.5 51 c 128,-1,17
 663 -19 663 -19 578 -19 c 0,18,19
 516 -19 516 -19 478 22 c 128,-1,20
 440 63 440 63 431 125 c 1,21,-1
 410 0 l 1,22,-1
 382 0 l 1,23,-1
 402 126 l 1,24,25
 373 63 373 63 321 22 c 128,-1,26
 269 -19 269 -19 204 -19 c 0,27,28
 167 -19 167 -19 135 -3.5 c 128,-1,29
 103 12 103 12 79 44 c 128,-1,30
 55 76 55 76 46.5 131.5 c 128,-1,31
 38 187 38 187 50 260 c 0,0,1
78 260 m 0,32,33
 59 146 59 146 95 76 c 128,-1,34
 131 6 131 6 212 6 c 0,35,36
 280 6 280 6 338.5 67.5 c 128,-1,37
 397 129 397 129 421 237 c 1,38,-1
 429 286 l 1,39,40
 441 391 441 391 400.5 452 c 128,-1,41
 360 513 360 513 294 513 c 0,42,43
 217 513 217 513 157 444.5 c 128,-1,44
 97 376 97 376 78 260 c 0,32,33
448 235 m 1,45,46
 437 129 437 129 474.5 67.5 c 128,-1,47
 512 6 512 6 580 6 c 0,48,49
 659 6 659 6 719.5 74.5 c 128,-1,50
 780 143 780 143 800 260 c 0,51,52
 819 375 819 375 781 444 c 128,-1,53
 743 513 743 513 666 513 c 0,54,55
 600 513 600 513 540 451.5 c 128,-1,56
 480 390 480 390 456 284 c 1,57,-1
 448 235 l 1,45,46
EndSplineSet
EndChar

StartChar: uni0239
Encoding: 569 569 507
Width: 886
GlyphClass: 2
Flags: W
LayerCount: 2
Fore
SplineSet
50 260 m 0,0,1
 71 387 71 387 138.5 463 c 128,-1,2
 206 539 206 539 297 539 c 0,3,4
 356 539 356 539 396 499.5 c 128,-1,5
 436 460 436 460 446 390 c 1,6,-1
 468 520 l 1,7,-1
 496 520 l 1,8,-1
 474 388 l 1,9,10
 506 456 506 456 559.5 497.5 c 128,-1,11
 613 539 613 539 673 539 c 0,12,13
 765 539 765 539 808 463 c 128,-1,14
 851 387 851 387 830 260 c 0,15,16
 808 127 808 127 737.5 54 c 128,-1,17
 667 -19 667 -19 578 -19 c 0,18,19
 515 -19 515 -19 478 22.5 c 128,-1,20
 441 64 441 64 431 130 c 1,21,-1
 369 -244 l 1,22,-1
 341 -244 l 1,23,-1
 403 130 l 1,24,25
 370 64 370 64 319.5 22.5 c 128,-1,26
 269 -19 269 -19 206 -19 c 0,27,28
 118 -19 118 -19 73 54 c 128,-1,29
 28 127 28 127 50 260 c 0,0,1
78 260 m 0,30,31
 59 143 59 143 96 74.5 c 128,-1,32
 133 6 133 6 210 6 c 0,33,34
 283 6 283 6 341 70.5 c 128,-1,35
 399 135 399 135 421 239 c 1,36,-1
 429 285 l 1,37,38
 440 386 440 386 402 449.5 c 128,-1,39
 364 513 364 513 295 513 c 0,40,41
 212 513 212 513 154 441 c 128,-1,42
 96 369 96 369 78 260 c 0,30,31
450 240 m 1,43,44
 439 134 439 134 475.5 70 c 128,-1,45
 512 6 512 6 583 6 c 0,46,47
 659 6 659 6 719.5 74 c 128,-1,48
 780 142 780 142 800 260 c 0,49,50
 818 370 818 370 784.5 441.5 c 128,-1,51
 751 513 751 513 667 513 c 0,52,53
 600 513 600 513 540.5 450 c 128,-1,54
 481 387 481 387 457 287 c 1,55,-1
 450 240 l 1,43,44
EndSplineSet
EndChar

StartChar: uni023A
Encoding: 570 570 508
Width: 608
GlyphClass: 2
Flags: W
LayerCount: 2
Fore
SplineSet
136 269 m 1,0,-1
 231 269 l 1,1,-1
 416 510 l 1,2,-1
 397 600 l 2,3,4
 387 647 387 647 375 706 c 1,5,-1
 373 706 l 1,6,7
 364 689 364 689 345 652.5 c 128,-1,8
 326 616 326 616 317 600 c 2,9,-1
 136 269 l 1,0,-1
260 269 m 1,10,-1
 467 269 l 1,11,-1
 422 480 l 1,12,-1
 260 269 l 1,10,-1
-44 0 m 1,13,-1
 359 735 l 1,14,-1
 400 735 l 1,15,-1
 442 543 l 1,16,-1
 610 762 l 1,17,-1
 640 762 l 1,18,-1
 448 513 l 1,19,-1
 559 0 l 1,20,-1
 523 0 l 1,21,-1
 473 243 l 1,22,-1
 240 243 l 1,23,-1
 -13 -85 l 1,24,-1
 -42 -85 l 1,25,-1
 211 243 l 1,26,-1
 122 243 l 1,27,-1
 -8 0 l 1,28,-1
 -44 0 l 1,13,-1
EndSplineSet
EndChar

StartChar: uni023B
Encoding: 571 571 509
Width: 605
GlyphClass: 2
Flags: W
LayerCount: 2
Fore
SplineSet
72 368 m 0,0,1
 102 550 102 550 200 652.5 c 128,-1,2
 298 755 298 755 428 755 c 0,3,4
 488 755 488 755 532 727 c 1,5,-1
 571 799 l 1,6,-1
 597 799 l 1,7,-1
 552 713 l 1,8,9
 598 676 598 676 613 610 c 1,10,-1
 585 599 l 1,11,12
 567 656 567 656 536 684 c 1,13,-1
 196 38 l 1,14,15
 245 8 245 8 305 8 c 0,16,17
 377 8 377 8 435 46.5 c 128,-1,18
 493 85 493 85 529 143 c 1,19,-1
 554 132 l 1,20,21
 456 -19 456 -19 300 -19 c 0,22,23
 233 -19 233 -19 181 10 c 1,24,-1
 131 -82 l 1,25,-1
 104 -82 l 1,26,-1
 161 23 l 1,27,28
 100 67 100 67 76 156 c 128,-1,29
 52 245 52 245 72 368 c 0,0,1
177 51 m 1,30,-1
 518 700 l 1,31,32
 479 727 479 727 424 727 c 0,33,34
 305 727 305 727 218 629 c 128,-1,35
 131 531 131 531 105 368 c 0,36,37
 87 258 87 258 105.5 176 c 128,-1,38
 124 94 124 94 177 51 c 1,30,-1
EndSplineSet
EndChar

StartChar: uni023C
Encoding: 572 572 510
Width: 471
GlyphClass: 2
Flags: W
LayerCount: 2
Fore
SplineSet
50 260 m 0,0,1
 70 380 70 380 138.5 459.5 c 128,-1,2
 207 539 207 539 307 539 c 0,3,4
 356 539 356 539 388 518 c 1,5,-1
 426 596 l 1,6,-1
 451 596 l 1,7,-1
 407 503 l 1,8,9
 442 474 442 474 452 424 c 1,10,-1
 425 415 l 1,11,12
 416 449 416 449 393 475 c 1,13,-1
 169 15 l 1,14,15
 188 6 188 6 218 6 c 0,16,17
 267 6 267 6 313.5 37 c 128,-1,18
 360 68 360 68 388 110 c 1,19,-1
 411 100 l 1,20,21
 379 50 379 50 326.5 15.5 c 128,-1,22
 274 -19 274 -19 214 -19 c 0,23,24
 177 -19 177 -19 157 -11 c 1,25,-1
 127 -76 l 1,26,-1
 101 -76 l 1,27,-1
 136 -2 l 1,28,29
 81 26 81 26 57.5 95 c 128,-1,30
 34 164 34 164 50 260 c 0,0,1
149 25 m 1,31,-1
 376 491 l 1,32,33
 345 513 345 513 302 513 c 0,34,35
 219 513 219 513 157.5 442 c 128,-1,36
 96 371 96 371 78 260 c 0,37,38
 64 175 64 175 83 113 c 128,-1,39
 102 51 102 51 149 25 c 1,31,-1
EndSplineSet
EndChar

StartChar: uni023D
Encoding: 573 573 511
Width: 525
GlyphClass: 2
Flags: W
LayerCount: 2
Fore
SplineSet
47 409 m 1,0,-1
 51 435 l 1,1,-1
 148 435 l 1,2,-1
 198 735 l 1,3,-1
 227 735 l 1,4,-1
 178 435 l 1,5,-1
 398 435 l 1,6,-1
 394 409 l 1,7,-1
 174 409 l 1,8,-1
 110 27 l 1,9,-1
 472 27 l 1,10,-1
 467 0 l 1,11,-1
 76 0 l 1,12,-1
 144 409 l 1,13,-1
 47 409 l 1,0,-1
EndSplineSet
EndChar

StartChar: uni023E
Encoding: 574 574 512
Width: 533
GlyphClass: 2
Flags: W
LayerCount: 2
Fore
SplineSet
352 708 m 1,0,-1
 303 413 l 1,1,-1
 511 708 l 1,2,-1
 352 708 l 1,0,-1
90 708 m 1,3,-1
 95 735 l 1,4,-1
 530 735 l 1,5,-1
 575 798 l 1,6,-1
 601 798 l 1,7,-1
 556 735 l 1,8,-1
 589 735 l 1,9,-1
 584 708 l 1,10,-1
 538 708 l 1,11,-1
 295 363 l 1,12,-1
 235 0 l 1,13,-1
 204 0 l 1,14,-1
 255 306 l 1,15,-1
 19 -29 l 1,16,-1
 -8 -29 l 1,17,-1
 263 356 l 1,18,-1
 322 708 l 1,19,-1
 90 708 l 1,3,-1
EndSplineSet
EndChar

StartChar: uni023F
Encoding: 575 575 513
Width: 458
GlyphClass: 2
Flags: W
LayerCount: 2
Fore
SplineSet
13 85 m 1,0,-1
 38 99 l 1,1,2
 80 6 80 6 185 6 c 0,3,4
 254 6 254 6 301 38 c 128,-1,5
 348 70 348 70 356 120 c 0,6,7
 362 156 362 156 339.5 183 c 128,-1,8
 317 210 317 210 294.5 220 c 128,-1,9
 272 230 272 230 221 247 c 0,10,11
 214 251 214 251 210 252 c 0,12,13
 175 263 175 263 154.5 273 c 128,-1,14
 134 283 134 283 110.5 300 c 128,-1,15
 87 317 87 317 79 342 c 128,-1,16
 71 367 71 367 76 401 c 0,17,18
 87 466 87 466 143.5 502.5 c 128,-1,19
 200 539 200 539 274 539 c 0,20,21
 331 539 331 539 370 510 c 128,-1,22
 409 481 409 481 425 438 c 1,23,-1
 401 424 l 1,24,25
 386 465 386 465 351.5 489 c 128,-1,26
 317 513 317 513 269 513 c 0,27,28
 204 513 204 513 158.5 481.5 c 128,-1,29
 113 450 113 450 105 401 c 0,30,31
 96 348 96 348 129.5 320 c 128,-1,32
 163 292 163 292 225 273 c 0,33,34
 264 262 264 262 287.5 251.5 c 128,-1,35
 311 241 311 241 339 223.5 c 128,-1,36
 367 206 367 206 379 179.5 c 128,-1,37
 391 153 391 153 385 120 c 0,38,39
 375 61 375 61 322 21 c 128,-1,40
 269 -19 269 -19 181 -19 c 0,41,42
 116 -19 116 -19 66 16 c 1,43,44
 75 -110 75 -110 87 -149 c 0,45,46
 112 -225 112 -225 182 -225 c 0,47,48
 197 -225 197 -225 216 -222 c 1,49,-1
 212 -245 l 1,50,51
 182 -248 182 -248 178 -248 c 0,52,53
 144 -248 144 -248 121 -236.5 c 128,-1,54
 98 -225 98 -225 84.5 -204.5 c 128,-1,55
 71 -184 71 -184 63 -154.5 c 128,-1,56
 55 -125 55 -125 50.5 -93 c 128,-1,57
 46 -61 46 -61 43 -22 c 0,58,59
 41 -3 41 -3 41 6 c 0,60,61
 36 31 36 31 13 85 c 1,0,-1
EndSplineSet
EndChar

StartChar: uni0240
Encoding: 576 576 514
Width: 446
GlyphClass: 2
Flags: W
LayerCount: 2
Fore
SplineSet
-6 0 m 1,0,-1
 -2 23 l 1,1,-1
 397 494 l 1,2,-1
 100 494 l 1,3,-1
 105 520 l 1,4,-1
 435 520 l 1,5,-1
 432 497 l 1,6,-1
 31 24 l 1,7,8
 75 23 75 23 107 -2.5 c 128,-1,9
 139 -28 139 -28 158.5 -64.5 c 128,-1,10
 178 -101 178 -101 195.5 -137 c 128,-1,11
 213 -173 213 -173 237 -197.5 c 128,-1,12
 261 -222 261 -222 292 -222 c 0,13,14
 312 -222 312 -222 327 -219 c 1,15,-1
 323 -244 l 1,16,17
 302 -248 302 -248 285 -248 c 0,18,19
 250 -248 250 -248 222.5 -223 c 128,-1,20
 195 -198 195 -198 176.5 -161.5 c 128,-1,21
 158 -125 158 -125 138.5 -88.5 c 128,-1,22
 119 -52 119 -52 89.5 -26 c 128,-1,23
 60 0 60 0 22 0 c 2,24,-1
 -6 0 l 1,0,-1
EndSplineSet
EndChar

StartChar: uni0241
Encoding: 577 577 515
Width: 523
GlyphClass: 2
Flags: W
LayerCount: 2
Fore
SplineSet
122 614 m 1,0,1
 162 683 162 683 220.5 719 c 128,-1,2
 279 755 279 755 338 755 c 0,3,4
 425 755 425 755 466 702.5 c 128,-1,5
 507 650 507 650 493 565 c 0,6,7
 485 519 485 519 460 482 c 128,-1,8
 435 445 435 445 404.5 419 c 128,-1,9
 374 393 374 393 342.5 366.5 c 128,-1,10
 311 340 311 340 285.5 302 c 128,-1,11
 260 264 260 264 252 217 c 2,12,-1
 216 0 l 1,13,-1
 185 0 l 1,14,-1
 221 218 l 2,15,16
 229 269 229 269 255 309 c 128,-1,17
 281 349 281 349 312 375.5 c 128,-1,18
 343 402 343 402 374 427.5 c 128,-1,19
 405 453 405 453 429.5 487 c 128,-1,20
 454 521 454 521 460 563 c 0,21,22
 472 637 472 637 439 682 c 128,-1,23
 406 727 406 727 334 727 c 0,24,25
 224 727 224 727 147 604 c 1,26,-1
 122 614 l 1,0,1
EndSplineSet
EndChar

StartChar: uni0250
Encoding: 592 592 516
Width: 526
GlyphClass: 2
Flags: W
LayerCount: 2
Fore
SplineSet
99 212 m 1,0,1
 157 234 157 234 272 252 c 0,2,3
 368 267 368 267 414.5 303.5 c 128,-1,4
 461 340 461 340 471 399 c 0,5,6
 479 445 479 445 447 479 c 128,-1,7
 415 513 415 513 348 513 c 0,8,9
 266 513 266 513 198.5 458 c 128,-1,10
 131 403 131 403 116 317 c 2,11,-1
 99 212 l 1,0,1
63 162 m 2,12,-1
 122 520 l 1,13,-1
 150 520 l 1,14,-1
 131 406 l 1,15,16
 157 460 157 460 219.5 499.5 c 128,-1,17
 282 539 282 539 354 539 c 0,18,19
 432 539 432 539 471 500.5 c 128,-1,20
 510 462 510 462 500 401 c 0,21,22
 489 333 489 333 435 288.5 c 128,-1,23
 381 244 381 244 269 228 c 0,24,25
 139 207 139 207 95 187 c 1,26,-1
 90 159 l 2,27,28
 79 91 79 91 115 48.5 c 128,-1,29
 151 6 151 6 227 6 c 0,30,31
 324 6 324 6 403 95 c 1,32,-1
 422 81 l 1,33,34
 387 38 387 38 333.5 9.5 c 128,-1,35
 280 -19 280 -19 222 -19 c 0,36,37
 129 -19 129 -19 89.5 31 c 128,-1,38
 50 81 50 81 63 162 c 2,12,-1
EndSplineSet
EndChar

StartChar: uni0251
Encoding: 593 593 517
Width: 545
GlyphClass: 2
Flags: W
LayerCount: 2
Fore
SplineSet
78 260 m 0,0,1
 59 145 59 145 97 75.5 c 128,-1,2
 135 6 135 6 212 6 c 0,3,4
 283 6 283 6 345 73.5 c 128,-1,5
 407 141 407 141 426 258 c 256,6,7
 445 375 445 375 404.5 444 c 128,-1,8
 364 513 364 513 294 513 c 0,9,10
 217 513 217 513 157 444.5 c 128,-1,11
 97 376 97 376 78 260 c 0,0,1
50 260 m 0,12,13
 71 388 71 388 139 463.5 c 128,-1,14
 207 539 207 539 297 539 c 0,15,16
 364 539 364 539 403.5 489 c 128,-1,17
 443 439 443 439 444 387 c 1,18,-1
 466 520 l 1,19,-1
 494 520 l 1,20,-1
 408 0 l 1,21,-1
 381 0 l 1,22,-1
 401 122 l 1,23,24
 370 61 370 61 319 21 c 128,-1,25
 268 -19 268 -19 206 -19 c 0,26,27
 123 -19 123 -19 75 51.5 c 128,-1,28
 27 122 27 122 50 260 c 0,12,13
EndSplineSet
EndChar

StartChar: uni0252
Encoding: 594 594 518
Width: 546
GlyphClass: 2
Flags: W
LayerCount: 2
Fore
SplineSet
44 0 m 1,0,-1
 130 520 l 1,1,-1
 158 520 l 1,2,-1
 136 387 l 1,3,4
 154 439 154 439 210.5 489 c 128,-1,5
 267 539 267 539 334 539 c 0,6,7
 426 539 426 539 469 464 c 128,-1,8
 512 389 512 389 490 260 c 0,9,10
 467 122 467 122 395.5 51.5 c 128,-1,11
 324 -19 324 -19 242 -19 c 0,12,13
 179 -19 179 -19 140 21.5 c 128,-1,14
 101 62 101 62 91 122 c 1,15,-1
 71 0 l 1,16,-1
 44 0 l 1,0,-1
113 258 m 0,17,18
 94 142 94 142 133 74 c 128,-1,19
 172 6 172 6 243 6 c 0,20,21
 321 6 321 6 382 75.5 c 128,-1,22
 443 145 443 145 462 260 c 0,23,24
 481 376 481 376 444 444.5 c 128,-1,25
 407 513 407 513 329 513 c 0,26,27
 260 513 260 513 196.5 444.5 c 128,-1,28
 133 376 133 376 113 258 c 0,17,18
EndSplineSet
EndChar

StartChar: uni0253
Encoding: 595 595 519
Width: 550
GlyphClass: 2
Flags: W
LayerCount: 2
Fore
SplineSet
118 260 m 0,0,1
 98 141 98 141 136.5 73.5 c 128,-1,2
 175 6 175 6 247 6 c 0,3,4
 326 6 326 6 387 75.5 c 128,-1,5
 448 145 448 145 467 260 c 256,6,7
 486 375 486 375 448.5 444 c 128,-1,8
 411 513 411 513 333 513 c 0,9,10
 263 513 263 513 200 445 c 128,-1,11
 137 377 137 377 118 260 c 0,0,1
48 0 m 1,12,-1
 132 508 l 2,13,14
 176 771 176 771 357 771 c 0,15,16
 422 771 422 771 474 752 c 1,17,-1
 465 727 l 1,18,19
 403 745 403 745 353 745 c 0,20,21
 200 745 200 745 161 506 c 2,22,-1
 140 384 l 1,23,24
 164 443 164 443 217 491 c 128,-1,25
 270 539 270 539 339 539 c 0,26,27
 432 539 432 539 473.5 463.5 c 128,-1,28
 515 388 515 388 494 260 c 0,29,30
 471 123 471 123 400.5 52 c 128,-1,31
 330 -19 330 -19 245 -19 c 0,32,33
 181 -19 181 -19 143.5 22.5 c 128,-1,34
 106 64 106 64 97 125 c 1,35,-1
 77 0 l 1,36,-1
 48 0 l 1,12,-1
EndSplineSet
EndChar

StartChar: uni0254
Encoding: 596 596 520
Width: 471
GlyphClass: 2
Flags: W
LayerCount: 2
Fore
SplineSet
0 100 m 1,0,-1
 27 110 l 1,1,2
 41 67 41 67 77 36.5 c 128,-1,3
 113 6 113 6 163 6 c 0,4,5
 243 6 243 6 305.5 76.5 c 128,-1,6
 368 147 368 147 387 260 c 0,7,8
 405 371 405 371 366.5 442 c 128,-1,9
 328 513 328 513 247 513 c 0,10,11
 201 513 201 513 159.5 485.5 c 128,-1,12
 118 458 118 458 93 415 c 1,13,-1
 68 424 l 1,14,15
 95 474 95 474 144 506.5 c 128,-1,16
 193 539 193 539 251 539 c 0,17,18
 350 539 350 539 392.5 459.5 c 128,-1,19
 435 380 435 380 415 260 c 0,20,21
 394 132 394 132 322.5 56.5 c 128,-1,22
 251 -19 251 -19 158 -19 c 0,23,24
 99 -19 99 -19 57 15.5 c 128,-1,25
 15 50 15 50 0 100 c 1,0,-1
EndSplineSet
EndChar

StartChar: uni0255
Encoding: 597 597 521
Width: 472
GlyphClass: 2
Flags: W
LayerCount: 2
Fore
SplineSet
154 24 m 1,0,1
 191 6 191 6 248 6 c 0,2,3
 296 6 296 6 332 27 c 128,-1,4
 368 48 368 48 374 79 c 0,5,6
 378 105 378 105 361.5 122 c 128,-1,7
 345 139 345 139 312 139 c 0,8,9
 264 139 264 139 221.5 104 c 128,-1,10
 179 69 179 69 154 24 c 1,0,1
50 261 m 0,11,12
 70 380 70 380 138.5 459.5 c 128,-1,13
 207 539 207 539 308 539 c 0,14,15
 365 539 365 539 402.5 505.5 c 128,-1,16
 440 472 440 472 450 424 c 1,17,-1
 423 415 l 1,18,19
 414 454 414 454 382.5 483.5 c 128,-1,20
 351 513 351 513 304 513 c 0,21,22
 219 513 219 513 157.5 442.5 c 128,-1,23
 96 372 96 372 78 260 c 0,24,25
 53 107 53 107 132 38 c 1,26,27
 166 93 166 93 213 129 c 128,-1,28
 260 165 260 165 316 165 c 0,29,30
 362 165 362 165 385 139.5 c 128,-1,31
 408 114 408 114 403 79 c 0,32,33
 396 35 396 35 350 8 c 128,-1,34
 304 -19 304 -19 242 -19 c 0,35,36
 167 -19 167 -19 140 -2 c 1,37,38
 130 -19 130 -19 110 -65 c 1,39,-1
 85 -58 l 1,40,41
 96 -24 96 -24 117 11 c 1,42,43
 20 81 20 81 50 261 c 0,11,12
EndSplineSet
EndChar

StartChar: uni0256
Encoding: 598 598 522
Width: 557
GlyphClass: 2
Flags: W
LayerCount: 2
Fore
SplineSet
50 260 m 0,0,1
 72 391 72 391 140.5 465 c 128,-1,2
 209 539 209 539 298 539 c 0,3,4
 363 539 363 539 401.5 493.5 c 128,-1,5
 440 448 440 448 445 385 c 1,6,-1
 509 767 l 1,7,-1
 537 767 l 1,8,-1
 403 -44 l 2,9,10
 387 -141 387 -141 406.5 -181 c 128,-1,11
 426 -221 426 -221 477 -221 c 0,12,13
 504 -221 504 -221 532 -217 c 1,14,-1
 527 -243 l 1,15,16
 500 -248 500 -248 471 -248 c 0,17,18
 407 -248 407 -248 381 -204 c 128,-1,19
 355 -160 355 -160 374 -45 c 2,20,-1
 402 126 l 1,21,22
 373 63 373 63 321 22 c 128,-1,23
 269 -19 269 -19 204 -19 c 0,24,25
 122 -19 122 -19 74.5 51 c 128,-1,26
 27 121 27 121 50 260 c 0,0,1
78 260 m 0,27,28
 59 146 59 146 95 76 c 128,-1,29
 131 6 131 6 212 6 c 0,30,31
 283 6 283 6 344 73 c 128,-1,32
 405 140 405 140 425 260 c 0,33,34
 444 377 444 377 404 445 c 128,-1,35
 364 513 364 513 294 513 c 0,36,37
 217 513 217 513 157 444.5 c 128,-1,38
 97 376 97 376 78 260 c 0,27,28
EndSplineSet
EndChar

StartChar: uni0257
Encoding: 599 599 523
Width: 557
GlyphClass: 2
Flags: W
LayerCount: 2
Fore
SplineSet
50 261 m 0,0,1
 72 391 72 391 140 465 c 128,-1,2
 208 539 208 539 298 539 c 0,3,4
 363 539 363 539 401.5 493.5 c 128,-1,5
 440 448 440 448 445 385 c 1,6,-1
 488 641 l 2,7,8
 499 706 499 706 542 738.5 c 128,-1,9
 585 771 585 771 651 771 c 0,10,11
 679 771 679 771 699 768 c 1,12,-1
 695 742 l 1,13,14
 654 745 654 745 650 745 c 0,15,16
 595 745 595 745 559.5 717 c 128,-1,17
 524 689 524 689 514 632 c 2,18,-1
 410 0 l 1,19,-1
 382 0 l 1,20,-1
 402 126 l 1,21,22
 374 64 374 64 321.5 22.5 c 128,-1,23
 269 -19 269 -19 204 -19 c 0,24,25
 122 -19 122 -19 74.5 51.5 c 128,-1,26
 27 122 27 122 50 261 c 0,0,1
78 261 m 0,27,28
 59 147 59 147 95 76.5 c 128,-1,29
 131 6 131 6 212 6 c 0,30,31
 283 6 283 6 344 74 c 128,-1,32
 405 142 405 142 425 261 c 0,33,34
 444 378 444 378 404 445.5 c 128,-1,35
 364 513 364 513 294 513 c 0,36,37
 217 513 217 513 157 444.5 c 128,-1,38
 97 376 97 376 78 261 c 0,27,28
EndSplineSet
EndChar

StartChar: uni0258
Encoding: 600 600 524
Width: 524
GlyphClass: 2
Flags: W
LayerCount: 2
Fore
SplineSet
77 275 m 1,0,-1
 443 275 l 1,1,2
 456 369 456 369 419.5 441 c 128,-1,3
 383 513 383 513 297 513 c 0,4,5
 215 513 215 513 154 442.5 c 128,-1,6
 93 372 93 372 77 275 c 1,0,-1
45 252 m 1,7,-1
 49 279 l 2,8,9
 67 385 67 385 136 462 c 128,-1,10
 205 539 205 539 301 539 c 0,11,12
 400 539 400 539 444.5 461.5 c 128,-1,13
 489 384 489 384 469 263 c 0,14,15
 448 139 448 139 377.5 60 c 128,-1,16
 307 -19 307 -19 207 -19 c 0,17,18
 77 -19 77 -19 34 100 c 1,19,-1
 60 111 l 1,20,21
 76 67 76 67 115 36.5 c 128,-1,22
 154 6 154 6 211 6 c 0,23,24
 298 6 298 6 360 78 c 128,-1,25
 422 150 422 150 439 252 c 1,26,-1
 45 252 l 1,7,-1
EndSplineSet
EndChar

StartChar: uni025A
Encoding: 602 602 526
Width: 578
GlyphClass: 2
Flags: W
LayerCount: 2
Fore
SplineSet
39 220 m 1,0,-1
 435 398 l 1,1,2
 421 447 421 447 386 480 c 128,-1,3
 351 513 351 513 290 513 c 0,4,5
 235 513 235 513 187 482 c 128,-1,6
 139 451 139 451 111 408 c 1,7,-1
 87 418 l 1,8,9
 171 539 171 539 295 539 c 0,10,11
 426 539 426 539 461 411 c 1,12,-1
 534 451 l 1,13,14
 548 392 548 392 605 392 c 0,15,16
 622 392 622 392 630 393 c 1,17,-1
 626 368 l 1,18,19
 617 367 617 367 602 367 c 0,20,21
 536 367 536 367 520 414 c 1,22,-1
 465 386 l 1,23,24
 476 329 476 329 464 258 c 0,25,26
 444 140 444 140 375.5 60.5 c 128,-1,27
 307 -19 307 -19 203 -19 c 0,28,29
 119 -19 119 -19 73.5 48.5 c 128,-1,30
 28 116 28 116 39 220 c 1,0,-1
68 206 m 1,31,32
 65 113 65 113 104.5 59.5 c 128,-1,33
 144 6 144 6 207 6 c 0,34,35
 299 6 299 6 359 81 c 128,-1,36
 419 156 419 156 435 253 c 0,37,38
 435 255 435 255 436 257 c 0,39,40
 446 316 446 316 439 373 c 1,41,-1
 68 206 l 1,31,32
EndSplineSet
EndChar

StartChar: uni025B
Encoding: 603 603 527
Width: 425
GlyphClass: 2
Flags: W
LayerCount: 2
Fore
SplineSet
28 130 m 0,0,1
 38 190 38 190 81 227 c 128,-1,2
 124 264 124 264 179 275 c 1,3,-1
 179 277 l 1,4,5
 135 288 135 288 110 319.5 c 128,-1,6
 85 351 85 351 93 402 c 0,7,8
 103 462 103 462 148 500.5 c 128,-1,9
 193 539 193 539 269 539 c 0,10,11
 367 539 367 539 404 456 c 1,12,-1
 378 443 l 1,13,14
 344 513 344 513 267 513 c 0,15,16
 204 513 204 513 166.5 482.5 c 128,-1,17
 129 452 129 452 121 403 c 0,18,19
 113 353 113 353 146.5 320.5 c 128,-1,20
 180 288 180 288 259 288 c 2,21,-1
 280 288 l 1,22,-1
 276 265 l 1,23,-1
 255 265 l 2,24,25
 165 265 165 265 115 224.5 c 128,-1,26
 65 184 65 184 56 130 c 0,27,28
 47 75 47 75 82 40.5 c 128,-1,29
 117 6 117 6 185 6 c 0,30,31
 228 6 228 6 270 29.5 c 128,-1,32
 312 53 312 53 339 83 c 1,33,-1
 358 67 l 1,34,35
 323 27 323 27 276 4 c 128,-1,36
 229 -19 229 -19 181 -19 c 0,37,38
 100 -19 100 -19 58 20.5 c 128,-1,39
 16 60 16 60 28 130 c 0,0,1
EndSplineSet
EndChar

StartChar: uni025C
Encoding: 604 604 528
Width: 425
GlyphClass: 2
Flags: W
LayerCount: 2
Fore
SplineSet
-5 67 m 1,0,-1
 20 83 l 1,1,2
 37 53 37 53 71.5 29.5 c 128,-1,3
 106 6 106 6 148 6 c 0,4,5
 217 6 217 6 264 40.5 c 128,-1,6
 311 75 311 75 320 130 c 0,7,8
 329 184 329 184 292.5 224.5 c 128,-1,9
 256 265 256 265 166 265 c 2,10,-1
 143 265 l 1,11,-1
 147 288 l 1,12,-1
 169 288 l 2,13,14
 248 288 248 288 292 320.5 c 128,-1,15
 336 353 336 353 344 403 c 0,16,17
 352 452 352 452 326 482.5 c 128,-1,18
 300 513 300 513 236 513 c 0,19,20
 158 513 158 513 101 443 c 1,21,-1
 80 456 l 1,22,23
 144 539 144 539 240 539 c 0,24,25
 316 539 316 539 349 500.5 c 128,-1,26
 382 462 382 462 372 402 c 0,27,28
 364 351 364 351 328 319.5 c 128,-1,29
 292 288 292 288 244 277 c 1,30,-1
 243 275 l 1,31,32
 294 264 294 264 326.5 227 c 128,-1,33
 359 190 359 190 349 130 c 0,34,35
 337 60 337 60 281.5 20.5 c 128,-1,36
 226 -19 226 -19 146 -19 c 0,37,38
 98 -19 98 -19 57.5 4 c 128,-1,39
 17 27 17 27 -5 67 c 1,0,-1
EndSplineSet
EndChar

StartChar: uni025D
Encoding: 605 605 529
Width: 456
GlyphClass: 2
Flags: W
LayerCount: 2
Fore
SplineSet
-5 67 m 1,0,-1
 20 83 l 1,1,2
 34 56 34 56 70 31 c 128,-1,3
 106 6 106 6 145 6 c 0,4,5
 219 6 219 6 265 40.5 c 128,-1,6
 311 75 311 75 320 130 c 256,7,8
 329 185 329 185 292.5 225 c 128,-1,9
 256 265 256 265 166 265 c 2,10,-1
 143 265 l 1,11,-1
 147 288 l 1,12,-1
 169 288 l 2,13,14
 248 288 248 288 292 320.5 c 128,-1,15
 336 353 336 353 344 403 c 0,16,17
 352 454 352 454 324 483.5 c 128,-1,18
 296 513 296 513 236 513 c 0,19,20
 157 513 157 513 101 443 c 1,21,-1
 80 456 l 1,22,23
 144 539 144 539 240 539 c 0,24,25
 355 539 355 539 372 453 c 1,26,-1
 446 488 l 1,27,28
 452 458 452 458 472.5 439 c 128,-1,29
 493 420 493 420 522 420 c 0,30,31
 531 420 531 420 545 422 c 1,32,-1
 541 397 l 1,33,34
 525 395 525 395 517 395 c 0,35,36
 482 395 482 395 459 412.5 c 128,-1,37
 436 430 436 430 429 452 c 1,38,-1
 374 426 l 1,39,40
 374 417 374 417 372 399 c 0,41,42
 363 349 363 349 327 318 c 128,-1,43
 291 287 291 287 244 277 c 1,44,-1
 243 275 l 1,45,46
 295 263 295 263 327 226.5 c 128,-1,47
 359 190 359 190 349 130 c 0,48,49
 337 59 337 59 282.5 20 c 128,-1,50
 228 -19 228 -19 143 -19 c 0,51,52
 95 -19 95 -19 55 6 c 128,-1,53
 15 31 15 31 -5 67 c 1,0,-1
EndSplineSet
EndChar

StartChar: uni025E
Encoding: 606 606 530
Width: 523
GlyphClass: 2
Flags: W
LayerCount: 2
Fore
SplineSet
50 263 m 0,0,1
 72 394 72 394 144.5 466.5 c 128,-1,2
 217 539 217 539 313 539 c 0,3,4
 396 539 396 539 437 498.5 c 128,-1,5
 478 458 478 458 467 394 c 0,6,7
 458 342 458 342 424.5 308.5 c 128,-1,8
 391 275 391 275 348 265 c 1,9,-1
 347 264 l 1,10,11
 395 255 395 255 424.5 219 c 128,-1,12
 454 183 454 183 445 126 c 0,13,14
 434 59 434 59 377.5 20 c 128,-1,15
 321 -19 321 -19 224 -19 c 0,16,17
 185 -19 185 -19 151 -4 c 128,-1,18
 117 11 117 11 88.5 42.5 c 128,-1,19
 60 74 60 74 49 131 c 128,-1,20
 38 188 38 188 50 263 c 0,0,1
78 263 m 0,21,22
 67 194 67 194 77.5 141.5 c 128,-1,23
 88 89 88 89 112.5 61 c 128,-1,24
 137 33 137 33 166.5 19.5 c 128,-1,25
 196 6 196 6 228 6 c 0,26,27
 310 6 310 6 359 39.5 c 128,-1,28
 408 73 408 73 416 124 c 0,29,30
 424 173 424 173 391.5 211.5 c 128,-1,31
 359 250 359 250 270 250 c 2,32,-1
 241 250 l 1,33,-1
 245 275 l 1,34,-1
 274 275 l 2,35,36
 355 275 355 275 394 310.5 c 128,-1,37
 433 346 433 346 441 393 c 0,38,39
 450 450 450 450 415 481.5 c 128,-1,40
 380 513 380 513 309 513 c 0,41,42
 227 513 227 513 162.5 447.5 c 128,-1,43
 98 382 98 382 78 263 c 0,21,22
EndSplineSet
EndChar

StartChar: uni025F
Encoding: 607 607 531
Width: 270
GlyphClass: 2
Flags: W
LayerCount: 2
Fore
SplineSet
2 289 m 1,0,-1
 6 314 l 1,1,-1
 129 314 l 1,2,-1
 163 520 l 1,3,-1
 190 520 l 1,4,-1
 156 314 l 1,5,-1
 265 314 l 1,6,-1
 261 289 l 1,7,-1
 152 289 l 1,8,-1
 91 -79 l 2,9,10
 78 -157 78 -157 38.5 -198.5 c 128,-1,11
 -1 -240 -1 -240 -58 -240 c 2,12,-1
 -89 -240 l 1,13,-1
 -85 -213 l 1,14,-1
 -59 -213 l 2,15,16
 42 -213 42 -213 64 -75 c 2,17,-1
 124 289 l 1,18,-1
 2 289 l 1,0,-1
EndSplineSet
EndChar

StartChar: uni0260
Encoding: 608 608 532
Width: 550
GlyphClass: 2
Flags: W
LayerCount: 2
Fore
SplineSet
51 270 m 256,0,1
 71 390 71 390 137 464.5 c 128,-1,2
 203 539 203 539 294 539 c 0,3,4
 360 539 360 539 395 496.5 c 128,-1,5
 430 454 430 454 441 397 c 1,6,-1
 480 637 l 2,7,8
 491 702 491 702 536 736.5 c 128,-1,9
 581 771 581 771 646 771 c 0,10,11
 655 771 655 771 693 768 c 1,12,-1
 689 744 l 1,13,14
 675 745 675 745 644 745 c 0,15,16
 592 745 592 745 554.5 715.5 c 128,-1,17
 517 686 517 686 507 628 c 2,18,-1
 409 38 l 2,19,20
 385 -105 385 -105 330.5 -176.5 c 128,-1,21
 276 -248 276 -248 169 -248 c 0,22,23
 118 -248 118 -248 77.5 -225.5 c 128,-1,24
 37 -203 37 -203 16 -164 c 1,25,-1
 41 -149 l 1,26,27
 90 -222 90 -222 175 -222 c 0,28,29
 265 -222 265 -222 312.5 -156.5 c 128,-1,30
 360 -91 360 -91 381 35 c 2,31,-1
 398 136 l 1,32,33
 330 -2 330 -2 206 -2 c 0,34,35
 117 -2 117 -2 74 74 c 128,-1,36
 31 150 31 150 51 270 c 256,0,1
79 269 m 0,37,38
 61 159 61 159 97.5 92 c 128,-1,39
 134 25 134 25 209 25 c 0,40,41
 288 25 288 25 344.5 90.5 c 128,-1,42
 401 156 401 156 420 271 c 0,43,44
 438 378 438 378 402 445.5 c 128,-1,45
 366 513 366 513 292 513 c 0,46,47
 212 513 212 513 154.5 444.5 c 128,-1,48
 97 376 97 376 79 269 c 0,37,38
EndSplineSet
EndChar

StartChar: uni0262
Encoding: 610 610 534
Width: 564
GlyphClass: 2
Flags: W
LayerCount: 2
Fore
SplineSet
50 260 m 0,0,1
 71 385 71 385 147 462 c 128,-1,2
 223 539 223 539 333 539 c 0,3,4
 445 539 445 539 492 439 c 1,5,-1
 466 426 l 1,6,7
 419 513 419 513 329 513 c 0,8,9
 233 513 233 513 165 443 c 128,-1,10
 97 373 97 373 78 260 c 0,11,12
 59 145 59 145 104 75.5 c 128,-1,13
 149 6 149 6 242 6 c 0,14,15
 327 6 327 6 383 62.5 c 128,-1,16
 439 119 439 119 452 194 c 2,17,-1
 460 242 l 1,18,-1
 274 242 l 1,19,-1
 279 268 l 1,20,-1
 491 268 l 1,21,-1
 447 0 l 1,22,-1
 421 0 l 1,23,-1
 436 96 l 1,24,25
 411 49 411 49 359 15 c 128,-1,26
 307 -19 307 -19 237 -19 c 0,27,28
 129 -19 129 -19 79 56.5 c 128,-1,29
 29 132 29 132 50 260 c 0,0,1
EndSplineSet
EndChar

StartChar: uni0263
Encoding: 611 611 535
Width: 450
GlyphClass: 2
Flags: W
LayerCount: 2
Fore
SplineSet
55 520 m 1,0,-1
 86 520 l 1,1,-1
 186 100 l 1,2,-1
 191 73 l 1,3,-1
 443 520 l 1,4,-1
 477 520 l 1,5,-1
 207 46 l 1,6,7
 228 6 228 6 238 -15 c 128,-1,8
 248 -36 248 -36 254.5 -68 c 128,-1,9
 261 -100 261 -100 256 -130 c 0,10,11
 247 -182 247 -182 215 -215 c 128,-1,12
 183 -248 183 -248 138 -248 c 0,13,14
 95 -248 95 -248 73.5 -216.5 c 128,-1,15
 52 -185 52 -185 61 -130 c 0,16,17
 63 -119 63 -119 65.5 -108.5 c 128,-1,18
 68 -98 68 -98 73 -87 c 128,-1,19
 78 -76 78 -76 81.5 -68 c 128,-1,20
 85 -60 85 -60 93 -48 c 128,-1,21
 101 -36 101 -36 104.5 -31 c 128,-1,22
 108 -26 108 -26 119 -12.5 c 128,-1,23
 130 1 130 1 133.5 5 c 128,-1,24
 137 9 137 9 150.5 25 c 128,-1,25
 164 41 164 41 168 45 c 1,26,-1
 55 520 l 1,0,-1
86 -132 m 0,27,28
 80 -170 80 -170 95 -197.5 c 128,-1,29
 110 -225 110 -225 142 -225 c 0,30,31
 175 -225 175 -225 199.5 -197.5 c 128,-1,32
 224 -170 224 -170 230 -132 c 0,33,34
 232 -121 232 -121 232 -109 c 128,-1,35
 232 -97 232 -97 232 -88.5 c 128,-1,36
 232 -80 232 -80 227.5 -67 c 128,-1,37
 223 -54 223 -54 222 -49 c 128,-1,38
 221 -44 221 -44 213.5 -29.5 c 128,-1,39
 206 -15 206 -15 204.5 -12 c 128,-1,40
 203 -9 203 -9 193.5 8 c 128,-1,41
 184 25 184 25 183 26 c 1,42,43
 97 -68 97 -68 86 -132 c 0,27,28
EndSplineSet
Substitution2: "'sups' Superscript lookup 5 subtable" uni02E0
Substitution2: "'aalt' Access All Alternates lookup 0 subtable" uni02E0
EndChar

StartChar: uni0264
Encoding: 612 612 536
Width: 449
GlyphClass: 2
Flags: W
LayerCount: 2
Fore
SplineSet
241 376 m 1,0,1
 201 336 201 336 178 309 c 128,-1,2
 155 282 155 282 129.5 234 c 128,-1,3
 104 186 104 186 96 135 c 0,4,5
 87 78 87 78 109 42 c 128,-1,6
 131 6 131 6 181 6 c 0,7,8
 228 6 228 6 262 42 c 128,-1,9
 296 78 296 78 306 135 c 0,10,11
 318 205 318 205 299.5 260.5 c 128,-1,12
 281 316 281 316 241 376 c 1,0,1
81 510 m 1,13,-1
 85 535 l 1,14,15
 99 539 99 539 114 539 c 0,16,17
 160 539 160 539 189.5 509.5 c 128,-1,18
 219 480 219 480 249 423 c 1,19,20
 298 481 298 481 336.5 510 c 128,-1,21
 375 539 375 539 420 539 c 0,22,23
 436 539 436 539 449 536 c 1,24,-1
 444 510 l 1,25,26
 436 513 436 513 417 513 c 0,27,28
 379 513 379 513 342.5 483.5 c 128,-1,29
 306 454 306 454 261 399 c 1,30,31
 309 325 309 325 327.5 267 c 128,-1,32
 346 209 346 209 334 135 c 0,33,34
 322 65 322 65 280 23 c 128,-1,35
 238 -19 238 -19 177 -19 c 0,36,37
 113 -19 113 -19 84.5 23 c 128,-1,38
 56 65 56 65 67 135 c 0,39,40
 70 153 70 153 75.5 170.5 c 128,-1,41
 81 188 81 188 85 201.5 c 128,-1,42
 89 215 89 215 99 232.5 c 128,-1,43
 109 250 109 250 113.5 259 c 128,-1,44
 118 268 118 268 131.5 286.5 c 128,-1,45
 145 305 145 305 148.5 310.5 c 128,-1,46
 152 316 152 316 168.5 334.5 c 128,-1,47
 185 353 185 353 187.5 356 c 128,-1,48
 190 359 190 359 209 378.5 c 128,-1,49
 228 398 228 398 228 399 c 0,50,51
 201 456 201 456 175 484.5 c 128,-1,52
 149 513 149 513 110 513 c 0,53,54
 100 513 100 513 81 510 c 1,13,-1
EndSplineSet
EndChar

StartChar: uni0265
Encoding: 613 613 537
Width: 547
GlyphClass: 2
Flags: W
LayerCount: 2
Fore
SplineSet
70 182 m 2,0,-1
 126 520 l 1,1,-1
 155 520 l 1,2,-1
 100 190 l 2,3,4
 70 6 70 6 204 6 c 0,5,6
 271 6 271 6 334.5 64 c 128,-1,7
 398 122 398 122 411 201 c 2,8,-1
 463 520 l 1,9,-1
 492 520 l 1,10,-1
 365 -244 l 1,11,-1
 337 -244 l 1,12,-1
 395 108 l 1,13,14
 371 60 371 60 315.5 20.5 c 128,-1,15
 260 -19 260 -19 194 -19 c 0,16,17
 166 -19 166 -19 143.5 -11 c 128,-1,18
 121 -3 121 -3 98.5 16.5 c 128,-1,19
 76 36 76 36 68 79 c 128,-1,20
 60 122 60 122 70 182 c 2,0,-1
EndSplineSet
EndChar

StartChar: uni0266
Encoding: 614 614 538
Width: 547
GlyphClass: 2
Flags: W
LayerCount: 2
Fore
SplineSet
48 0 m 1,0,-1
 149 610 l 2,1,2
 162 687 162 687 211.5 729 c 128,-1,3
 261 771 261 771 327 771 c 0,4,5
 376 771 376 771 422 764 c 1,6,-1
 417 737 l 1,7,8
 369 745 369 745 324 745 c 0,9,10
 260 745 260 745 223.5 701.5 c 128,-1,11
 187 658 187 658 178 607 c 2,12,-1
 146 411 l 1,13,14
 172 460 172 460 227.5 499.5 c 128,-1,15
 283 539 283 539 347 539 c 0,16,17
 376 539 376 539 399 531 c 128,-1,18
 422 523 422 523 444 502.5 c 128,-1,19
 466 482 466 482 474 440 c 128,-1,20
 482 398 482 398 472 338 c 2,21,-1
 416 0 l 1,22,-1
 387 0 l 1,23,-1
 442 329 l 2,24,25
 472 513 472 513 337 513 c 0,26,27
 271 513 271 513 207.5 456.5 c 128,-1,28
 144 400 144 400 130 317 c 2,29,-1
 78 0 l 1,30,-1
 48 0 l 1,0,-1
EndSplineSet
Substitution2: "'sups' Superscript lookup 5 subtable" uni02B1
Substitution2: "'aalt' Access All Alternates lookup 0 subtable" uni02B1
EndChar

StartChar: uni0267
Encoding: 615 615 539
Width: 551
GlyphClass: 2
Flags: W
LayerCount: 2
Fore
SplineSet
48 0 m 1,0,-1
 149 610 l 2,1,2
 162 687 162 687 211.5 729 c 128,-1,3
 261 771 261 771 327 771 c 0,4,5
 376 771 376 771 422 764 c 1,6,-1
 417 737 l 1,7,8
 369 745 369 745 324 745 c 0,9,10
 260 745 260 745 223.5 701.5 c 128,-1,11
 187 658 187 658 178 606 c 2,12,-1
 146 411 l 1,13,14
 172 460 172 460 227.5 499.5 c 128,-1,15
 283 539 283 539 347 539 c 0,16,17
 376 539 376 539 399 531 c 128,-1,18
 422 523 422 523 444 502.5 c 128,-1,19
 466 482 466 482 474 440 c 128,-1,20
 482 398 482 398 472 338 c 2,21,-1
 402 -80 l 2,22,23
 388 -162 388 -162 351 -205 c 128,-1,24
 314 -248 314 -248 237 -248 c 0,25,26
 211 -248 211 -248 190 -245 c 1,27,-1
 194 -219 l 1,28,29
 214 -222 214 -222 240 -222 c 0,30,31
 293 -222 293 -222 327 -189.5 c 128,-1,32
 361 -157 361 -157 374 -79 c 2,33,-1
 442 329 l 2,34,35
 472 513 472 513 337 513 c 0,36,37
 272 513 272 513 208 456 c 128,-1,38
 144 399 144 399 130 317 c 2,39,-1
 78 0 l 1,40,-1
 48 0 l 1,0,-1
EndSplineSet
EndChar

StartChar: uni0268
Encoding: 616 616 540
Width: 264
GlyphClass: 2
Flags: W
LayerCount: 2
Fore
SplineSet
163 668 m 1,0,-1
 176 746 l 1,1,-1
 242 746 l 1,2,-1
 229 668 l 1,3,-1
 163 668 l 1,0,-1
29 275 m 1,4,-1
 34 301 l 1,5,-1
 122 301 l 1,6,-1
 158 520 l 1,7,-1
 186 520 l 1,8,-1
 150 301 l 1,9,-1
 238 301 l 1,10,-1
 234 275 l 1,11,-1
 146 275 l 1,12,-1
 100 0 l 1,13,-1
 72 0 l 1,14,-1
 118 275 l 1,15,-1
 29 275 l 1,4,-1
EndSplineSet
EndChar

StartChar: uni0269
Encoding: 617 617 541
Width: 308
GlyphClass: 2
Flags: W
LayerCount: 2
Fore
SplineSet
65 130 m 2,0,-1
 129 520 l 1,1,-1
 159 520 l 1,2,-1
 95 130 l 2,3,4
 75 7 75 7 164 7 c 0,5,6
 192 7 192 7 227 11 c 1,7,-1
 223 -16 l 1,8,9
 193 -19 193 -19 156 -19 c 0,10,11
 40 -19 40 -19 65 130 c 2,0,-1
EndSplineSet
EndChar

StartChar: uni026B
Encoding: 619 619 543
Width: 232
GlyphClass: 2
Flags: W
LayerCount: 2
Fore
SplineSet
11 386 m 1,0,-1
 15 412 l 1,1,2
 50 426 50 426 87 426 c 0,3,4
 101 426 101 426 123 419 c 1,5,-1
 181 767 l 1,6,-1
 211 767 l 1,7,-1
 152 412 l 1,8,9
 176 403 176 403 198 403 c 0,10,11
 234 403 234 403 262 420 c 1,12,-1
 258 394 l 1,13,14
 230 377 230 377 194 377 c 0,15,16
 175 377 175 377 148 387 c 1,17,-1
 84 0 l 1,18,-1
 54 0 l 1,19,-1
 119 394 l 1,20,21
 100 400 100 400 83 400 c 0,22,23
 51 400 51 400 11 386 c 1,0,-1
EndSplineSet
EndChar

StartChar: uni026C
Encoding: 620 620 544
Width: 413
GlyphClass: 2
Flags: W
LayerCount: 2
Fore
SplineSet
77 417 m 0,0,1
 83 456 83 456 114 484.5 c 128,-1,2
 145 513 145 513 192 513 c 0,3,4
 233 513 233 513 264 487.5 c 128,-1,5
 295 462 295 462 301 432 c 1,6,-1
 357 767 l 1,7,-1
 384 767 l 1,8,-1
 311 325 l 1,9,-1
 417 325 l 1,10,-1
 413 300 l 1,11,-1
 307 300 l 1,12,-1
 257 0 l 1,13,-1
 230 0 l 1,14,-1
 279 300 l 1,15,-1
 201 300 l 2,16,17
 136 300 136 300 102 331.5 c 128,-1,18
 68 363 68 363 77 417 c 0,0,1
104 417 m 0,19,20
 97 373 97 373 125.5 349 c 128,-1,21
 154 325 154 325 208 325 c 2,22,-1
 282 325 l 1,23,-1
 288 358 l 2,24,25
 297 415 297 415 264 451 c 128,-1,26
 231 487 231 487 189 487 c 0,27,28
 157 487 157 487 133 466.5 c 128,-1,29
 109 446 109 446 104 417 c 0,19,20
EndSplineSet
EndChar

StartChar: uni026D
Encoding: 621 621 545
Width: 309
GlyphClass: 2
Flags: W
LayerCount: 2
Fore
SplineSet
33 -100 m 2,0,-1
 176 767 l 1,1,-1
 207 767 l 1,2,-1
 63 -99 l 2,3,4
 43 -221 43 -221 131 -221 c 0,5,6
 160 -221 160 -221 197 -217 c 1,7,-1
 192 -243 l 1,8,9
 142 -248 142 -248 126 -248 c 0,10,11
 8 -248 8 -248 33 -100 c 2,0,-1
EndSplineSet
EndChar

StartChar: uni026E
Encoding: 622 622 546
Width: 563
GlyphClass: 2
Flags: W
LayerCount: 2
Fore
SplineSet
41 -196 m 1,0,-1
 64 -181 l 1,1,2
 113 -222 113 -222 185 -222 c 0,3,4
 285 -222 285 -222 349 -166.5 c 128,-1,5
 413 -111 413 -111 427 -23 c 0,6,7
 443 72 443 72 394 125 c 128,-1,8
 345 178 345 178 234 178 c 2,9,-1
 166 178 l 1,10,-1
 170 201 l 1,11,-1
 481 494 l 1,12,-1
 160 494 l 1,13,-1
 79 0 l 1,14,-1
 49 0 l 1,15,-1
 176 767 l 1,16,-1
 206 767 l 1,17,-1
 165 520 l 1,18,-1
 525 520 l 1,19,-1
 521 497 l 1,20,-1
 207 203 l 1,21,-1
 242 203 l 2,22,23
 358 203 358 203 416.5 145.5 c 128,-1,24
 475 88 475 88 456 -23 c 0,25,26
 439 -124 439 -124 364.5 -186 c 128,-1,27
 290 -248 290 -248 181 -248 c 0,28,29
 92 -248 92 -248 41 -196 c 1,0,-1
EndSplineSet
EndChar

StartChar: uni026F
Encoding: 623 623 547
Width: 811
GlyphClass: 2
Flags: W
LayerCount: 2
Fore
SplineSet
69 181 m 2,0,-1
 126 520 l 1,1,-1
 155 520 l 1,2,-1
 100 189 l 2,3,4
 85 99 85 99 101.5 52.5 c 128,-1,5
 118 6 118 6 185 6 c 0,6,7
 249 6 249 6 305 62.5 c 128,-1,8
 361 119 361 119 376 207 c 2,9,-1
 427 520 l 1,10,-1
 457 520 l 1,11,-1
 403 189 l 2,12,13
 373 6 373 6 491 6 c 0,14,15
 557 6 557 6 610.5 60 c 128,-1,16
 664 114 664 114 678 200 c 2,17,-1
 731 520 l 1,18,-1
 759 520 l 1,19,-1
 673 0 l 1,20,-1
 646 0 l 1,21,-1
 662 100 l 1,22,-1
 661 100 l 1,23,24
 640 54 640 54 593.5 17.5 c 128,-1,25
 547 -19 547 -19 482 -19 c 0,26,27
 418 -19 418 -19 393.5 22 c 128,-1,28
 369 63 369 63 370 123 c 1,29,30
 368 112 368 112 354 91 c 128,-1,31
 340 70 340 70 317.5 44.5 c 128,-1,32
 295 19 295 19 256.5 0 c 128,-1,33
 218 -19 218 -19 174 -19 c 0,34,35
 102 -19 102 -19 77 30 c 128,-1,36
 52 79 52 79 69 181 c 2,0,-1
EndSplineSet
EndChar

StartChar: uni0270
Encoding: 624 624 548
Width: 818
GlyphClass: 2
Flags: W
LayerCount: 2
Fore
SplineSet
69 181 m 2,0,-1
 126 520 l 1,1,-1
 154 520 l 1,2,-1
 99 189 l 2,3,4
 84 100 84 100 100.5 53 c 128,-1,5
 117 6 117 6 184 6 c 0,6,7
 249 6 249 6 305 61.5 c 128,-1,8
 361 117 361 117 376 207 c 2,9,-1
 427 520 l 1,10,-1
 456 520 l 1,11,-1
 402 189 l 2,12,13
 372 6 372 6 491 6 c 0,14,15
 557 6 557 6 610.5 60.5 c 128,-1,16
 664 115 664 115 678 200 c 2,17,-1
 731 520 l 1,18,-1
 759 520 l 1,19,-1
 633 -244 l 1,20,-1
 605 -244 l 1,21,-1
 661 100 l 1,22,-1
 661 100 l 1,23,24
 639 53 639 53 592 17 c 128,-1,25
 545 -19 545 -19 480 -19 c 0,26,27
 416 -19 416 -19 391.5 22.5 c 128,-1,28
 367 64 367 64 369 123 c 1,29,30
 366 109 366 109 352 88.5 c 128,-1,31
 338 68 338 68 315.5 42.5 c 128,-1,32
 293 17 293 17 254.5 -1 c 128,-1,33
 216 -19 216 -19 172 -19 c 0,34,35
 102 -19 102 -19 77 30 c 128,-1,36
 52 79 52 79 69 181 c 2,0,-1
EndSplineSet
EndChar

